<?xml version="1.0" encoding="UTF-8" standalone="no"?>
<svg
   xmlns:dc="http://purl.org/dc/elements/1.1/"
   xmlns:cc="http://creativecommons.org/ns#"
   xmlns:rdf="http://www.w3.org/1999/02/22-rdf-syntax-ns#"
   xmlns:svg="http://www.w3.org/2000/svg"
   xmlns="http://www.w3.org/2000/svg"
   xmlns:xlink="http://www.w3.org/1999/xlink"
   xmlns:sodipodi="http://sodipodi.sourceforge.net/DTD/sodipodi-0.dtd"
   xmlns:inkscape="http://www.inkscape.org/namespaces/inkscape"
   sodipodi:docname="The_Pirate_Bay_logo.dxf"
   inkscape:version="0.47 r22583"
   xml:space="preserve"
   viewBox="0 0 543 615"
   height="615"
   width="543"
   id="The_Pirate_Bay_Logo"
   version="1.1"><metadata
   id="metadata2963"><rdf:RDF><cc:Work
       rdf:about=""><dc:format>image/svg+xml</dc:format><dc:type
         rdf:resource="http://purl.org/dc/dcmitype/StillImage" /><dc:title>The Pirate Bay Logo</dc:title></cc:Work></rdf:RDF></metadata><sodipodi:namedview
   pagecolor="#ffffff"
   bordercolor="#666666"
   borderopacity="1"
   objecttolerance="10"
   gridtolerance="10"
   guidetolerance="10"
   inkscape:pageopacity="0"
   inkscape:pageshadow="2"
   inkscape:window-width="1158"
   inkscape:window-height="904"
   id="namedview2961"
   showgrid="false"
   inkscape:zoom="1"
   inkscape:cx="140.5"
   inkscape:cy="507.5"
   inkscape:window-x="0"
   inkscape:window-y="25"
   inkscape:window-maximized="0"
   inkscape:current-layer="The_Pirate_Bay_Logo" />
  <title
   id="title2943">The Pirate Bay Logo</title>
  <desc
   id="desc2945">For more information see: http://commons.wikimedia.org/wiki/File:The_Pirate_Bay_logo.svg</desc>
  <defs
   id="defs2947"><inkscape:perspective
   sodipodi:type="inkscape:persp3d"
   inkscape:vp_x="0 : 307.5 : 1"
   inkscape:vp_y="0 : 1000 : 0"
   inkscape:vp_z="543 : 307.5 : 1"
   inkscape:persp3d-origin="271.5 : 205 : 1"
   id="perspective2965" />
    <filter
   id="GaussianBlur">
      <feGaussianBlur
   stdDeviation="2.7961191"
   id="feGaussianBlur2950" />
    </filter>
  <radialGradient
   inkscape:collect="always"
   xlink:href="#radialGradient"
   id="radialGradient3010"
   gradientUnits="userSpaceOnUse"
   gradientTransform="matrix(0.45708583,4.4780141e-4,3.2838769e-4,-0.31976006,-119.32232,97.846159)"
   cx="425.6711"
   cy="41.2476"
   r="261.6557" /></defs>
  
  <radialGradient
   id="radialGradient"
   cx="425.6711"
   cy="41.2476"
   r="261.6557"
   gradientTransform="matrix(0.45708583,4.4780141e-4,3.2838769e-4,-0.31976006,-119.32232,97.846159)"
   gradientUnits="userSpaceOnUse">
      <stop
   offset="0"
   stop-color="#a4724e"
   id="stop2954" />
      <stop
   offset="0.41"
   stop-color="#906444"
   id="stop2956" />
      <stop
   offset="1"
   stop-color="#3f2b1d"
   id="stop2958" />
  </radialGradient>
  <path
   style="fill:url(#radialGradient3010)"
   d="m 66.274828,9.9307134 c 3.05619,6.0239586 -3.349797,11.8799246 -6.532564,16.8899496 -5.144093,3.980432 -1.848732,13.551346 -10.25133,15.57625 -3.32552,1.846652 -5.666414,6.849963 0.05295,3.033443 3.37821,-1.598539 -3.552431,13.416563 1.676755,7.273754 1.883203,-7.801631 12.709153,-10.494697 11.557639,-19.276585 0.552709,-5.150129 8.287082,-12.499061 6.854474,-2.827241 2.731701,7.624513 2.101838,15.079752 -3.657022,21.252 -0.879268,4.583111 -9.321269,10.176405 -8.125542,12.431071 2.747556,0.02665 -0.08505,11.175776 4.901375,13.909159 2.759016,7.672224 -7.336938,-2.852772 -8.173195,-5.540923 C 50.026971,68.302739 51.836575,57.870006 52.72801,55.842745 50.076419,60.834965 40.542458,69.009503 40.741382,57.903006 39.060597,53.561795 37.258018,43.681131 35.2426,42.910544 c -0.952388,8.498833 -6.917015,16.274245 -5.704644,25.547182 -0.229482,2.559415 -2.326867,9.716198 0.803909,3.510031 2.299912,-5.316385 1.929448,-19.297609 7.521712,-19.265554 0.752839,9.623611 -1.833685,19.276676 -2.277406,28.920097 -1.100312,10.397211 -1.996578,20.84015 -3.189372,31.21231 -4.78591,-1.4491 -11.962407,-11.13519 -14.802468,-9.5179 2.110277,5.03682 17.255829,9.19407 10.126594,14.37525 -6.589329,3.22149 -1.075682,13.13306 3.845668,16.54074 4.615957,4.01097 11.984026,3.52809 16.713703,4.10385 -2.820866,4.16534 1.383842,10.32943 -5.842503,10.02623 -3.03854,1.25302 -8.209388,9.98314 -1.900619,5.38499 0.8028,6.8111 -7.708723,-0.11936 -9.192057,-0.0251 -0.763152,4.04281 -6.978462,5.53095 -6.194588,1.81897 -6.510246,1.89615 -0.05073,7.55509 4.517055,5.61838 41.903089,0.021 83.806176,0.042 125.709266,0.063 11.79781,-2.73023 -5.13945,-18.97663 -6.20384,-7.37051 1.7132,6.93384 7.99066,-4.12542 2.75352,0.29906 -1.7574,-6.18363 9.23795,2.56287 1.32328,3.10603 -7.2222,-1.49726 -16.54009,-5.00682 -20.88814,-10.20629 6.63693,-6.9792 -3.89395,-11.06377 -7.3039,-15.28954 -6.75017,-1.77259 -6.81162,-14.72269 2.62532,-10.28789 7.49848,0.0364 14.42616,2.56263 20.74384,6.34019 -4.72165,-4.58931 -11.46296,-8.09884 -15.57874,-13.86853 -8.6351,-10.37559 -8.55311,-25.529679 -4.61476,-37.84915 3.26803,-11.115236 8.69338,-21.611085 15.82571,-30.636934 -6.09374,3.485122 -9.17579,11.097814 -15.40416,14.973748 -3.07388,2.75594 -9.87639,13.177505 -9.87392,4.105779 -2.24379,-5.778053 2.13029,-14.495925 0.15549,-19.858053 -2.98676,7.099026 -0.003,16.666592 -5.68432,21.946113 5.06124,8.046743 -3.32661,13.945745 -7.16371,20.797392 -3.27468,5.275021 -10.105708,9.993513 -5.60458,16.474925 1.47295,5.92774 7.15313,9.96718 10.1307,14.28725 C 105.06571,113.47608 99.068841,106.12136 98.943433,99.173331 97.08904,94.995132 96.653058,87.518054 97.000956,81.998513 96.399848,67.356172 103.44456,54.003378 109.87887,41.325138 c 3.40328,-1.503477 6.2568,-7.675906 1.06171,-2.86407 -4.75644,7.289068 -16.613411,10.543323 -20.896241,0.960096 -3.982955,-6.434398 6.309562,-13.960363 5.698483,-16.46763 -4.86063,5.381408 -10.159449,10.308989 -16.484118,13.974543 -3.280283,3.147565 -8.421808,5.363272 -7.182872,-1.6736 C 71.195513,26.958005 68.084605,18.756317 68.080873,10.521705 69.216164,9.38237 66.770743,10.158716 66.274828,9.9307134 z M 83.561752,34.988785 c -2.591203,2.466754 -7.389116,9.657591 -10.080566,9.35681 -0.700718,-5.204278 7.350191,-5.851572 10.080566,-9.35681 z m -11.969133,9.142611 c 3.553589,3.208589 -8.639767,12.946445 -2.988341,4.663121 0.898131,-1.620899 1.992828,-3.109253 2.988341,-4.663121 z m 28.892441,3.004151 c -4.798605,5.068493 -11.617484,10.71361 -17.298979,15.855595 -2.540723,2.628383 -7.127769,6.943953 -4.688551,-0.03623 -2.289596,-8.731683 10.224387,-11.595718 16.341468,-14.713709 1.884536,-0.353436 3.743668,-0.854803 5.646062,-1.105659 z m -61.638068,9.674302 c 4.175107,7.229079 2.553913,15.827553 -1.581543,22.699257 -1.876344,-6.289518 1.366754,-15.133438 1.343717,-22.366216 l 0.237824,-0.333033 2e-6,-8e-6 z m 8.900204,5.616028 c 0.05728,2.271918 -5.683546,8.486525 -3.722724,2.472158 1.020209,-1.144148 2.499868,-1.614739 3.722724,-2.472158 z m 79.988364,0.363914 c -2.4165,2.577948 -7.06053,11.110339 -9.78654,10.131669 1.18549,-4.368183 6.95901,-6.648326 9.78654,-10.131669 z M 72.413592,64.19857 c 9.077716,4.767565 -5.033359,12.510053 -7.501048,14.185487 0.441244,-5.583548 4.592319,-9.75817 7.501048,-14.185487 z m -30.161518,4.319496 c 2.351198,2.974985 -3.877724,6.70626 -0.512643,0.783024 l 0.391439,-0.727203 0.121204,-0.05582 0,-10e-7 z m 72.534576,7.631131 c 1.58655,3.495568 -11.35298,15.088444 -4.43319,6.372527 1.44608,-2.146645 2.96023,-4.245845 4.43319,-6.372527 z m -32.512177,2.369767 c 0.302029,4.815352 7.281891,16.183989 -1.735675,17.566949 -5.428055,1.605055 -15.819523,9.338017 -14.040182,-1.861065 -2.422582,-8.617484 7.188341,-10.472685 12.501238,-14.203963 0.934885,-0.864123 2.33702,-0.673882 3.274619,-1.501921 z m -22.539337,5.569452 c -3.267387,3.252023 -6.378048,9.10074 -9.050063,3.228051 -3.791627,-3.772519 7.906592,-1.879257 9.050063,-3.228051 z m 18.667648,1.903159 c -7.710851,3.183723 3.38512,7.459094 0,0 z m -30.870235,1.128756 c -0.826143,1.937131 -0.949855,5.52008 0.736782,7.006301 -1.650266,-2.45704 -2.677508,3.720374 -2.668299,5.280751 -7.777082,7.527257 -3.564738,-10.764573 1.931517,-12.287075 l 0,2.3e-5 z m 27.017352,0.839779 c -7.195068,2.065571 -0.722095,6.738282 0,0 z m -38.828264,1.567306 c -0.07714,6.814632 9.40301,13.773794 0.709019,17.688454 -2.525678,6.051 11.004564,-1.89954 2.369821,2.46373 -8.690424,7.897 -3.446141,-7.74489 -3.862612,-12.96509 0.242636,-2.397177 0.403349,-4.806309 0.783772,-7.187094 z m 33.771687,1.268767 c -5.001379,2.791806 3.822105,6.319639 0,0 z m 20.132557,1.557752 c 3.337338,0.970645 5.086108,9.918415 -0.914508,6.14523 -3.572332,0.354782 -12.29751,5.419515 -3.358122,3.501225 2.567047,-4.57036 4.905256,-1.44785 4.41294,2.09004 -0.507446,4.27681 -6.362528,-2.63834 -10.223739,-0.24817 -6.338254,-3.27204 -10.548124,10.24072 -11.728682,0.76174 2.525329,1.40342 7.513199,-1.90244 1.278499,-1.06961 -6.255427,-2.94131 8.200047,0.77517 9.604212,-2.54934 4.771636,-2.305347 9.141047,-3.97346 10.9294,-8.631115 z M 78.75744,94.58369 c -2.398344,1.141779 1.952284,1.642813 0,0 z m -2.519031,0.307785 c -3.008348,2.807541 3.429411,1.404398 0,0 z m -4.291431,1.819272 c -2.468859,2.027528 2.703763,2.42439 0,0 z m -1.52073,1.259515 c -1.797996,1.57328 1.800373,1.261183 0,0 z M 70.01576,109.48233 c 1.055878,4.83933 6.321461,7.07724 6.452143,10.41475 -3.040513,-1.08339 -4.809325,-7.25855 -6.452143,-10.41475 z m -23.434938,1.39953 c -1.139211,2.97698 1.436867,12.93168 0.121496,11.62433 -1.633702,-3.52817 -1.821425,-8.091 -0.121496,-11.62433 z m 43.11044,4.50608 c 2.401537,2.96308 7.164247,10.58925 5.79472,12.66182 -1.961508,-4.00229 -4.246559,-8.67726 -5.79472,-12.66182 z m -1.865842,0.14927 c 1.733079,3.28046 7.845063,12.91306 5.556695,13.44385 -1.480132,-4.579 -4.56963,-8.93692 -5.556695,-13.44385 z m -3.358508,0.25167 c 0.879078,4.11712 3.009038,11.18776 2.19244,14.25561 -1.250867,-4.56729 -1.937844,-9.6453 -2.19244,-14.25561 z m 7.938923,0.0468 c 3.78288,1.92677 8.121795,17.57128 3.140614,7.0445 -0.577381,-2.47328 -2.814402,-4.73055 -3.140614,-7.0445 z m 2.015106,0.0838 c 4.54729,0.76966 8.185849,16.37054 3.082449,6.05651 -1.309632,-1.85882 -2.727071,-3.73885 -3.082449,-6.05651 z m -11.362812,0.0281 c 0.451826,3.90429 5.657359,17.91229 -1.908645,10.21077 -0.501,-2.11181 -3.414028,-11.90555 1.908645,-10.21077 z m 3.190431,0.0558 c 1.885117,5.33697 8.852423,15.94232 6.707769,18.45685 -6.46711,-3.10908 -4.537252,-12.596 -6.707769,-18.45685 z m 11.30699,0.45706 c 2.80536,0.90915 6.58172,13.34322 2.57486,5.12196 -0.697011,-1.26701 -2.95631,-3.68823 -2.57486,-5.12196 z m -18.593014,0.31735 c 1.512691,3.35554 -0.480953,11.15983 -0.366,3.30996 0.09804,-1.06276 -0.110095,-2.33384 0.366,-3.30996 z m 21.03741,0.30779 c 4.223664,-0.24361 6.316144,2.94455 1.198844,2.7319 -0.73283,-0.50124 -1.555612,-1.95442 -1.198844,-2.7319 z m -22.502021,0.40122 c 1.051613,4.85183 -0.973917,6.01648 -0.0465,0.0842 l 0.04656,-0.0842 -5.5e-5,1e-5 z m -14.283072,3.10656 c 3.532783,0.28246 12.315652,2.42736 12.081385,5.01029 -1.348471,-1.35158 -18.148339,-3.55174 -12.081385,-5.01029 z m 42.139897,0.26121 c 1.25414,6.15455 -6.121763,1.50057 0,0 z m -48.418371,0.0465 c 5.668014,1.17468 -9.972569,3.55183 -2.304933,0.83828 l 1.155935,-0.59472 1.14905,-0.24364 -5.2e-5,8e-5 z m 59.287111,0.71857 c 4.92593,2.93743 0.83731,10.27541 -4.55907,10.80717 -1.93668,-0.1276 -0.81676,-13.05421 4.55907,-10.80717 z m -78.150895,2.18289 c 3.479885,-0.0741 11.94739,7.94954 10.456088,7.21549 -4.279816,-1.426 -12.712853,-10.36017 -14.243638,-4.60331 3.940607,3.25302 12.748576,7.61808 13.407979,10.59145 -6.815751,1.86478 -20.833474,-3.29667 -14.648687,-11.85992 1.416686,-1.04428 3.392209,-0.83065 5.028258,-1.34371 z m 21.709116,1.05412 c 3.113604,0.14753 -1.102356,3.17987 0,0 z m -2.891904,0.009 c 1.757155,4.74911 -7.652252,-0.50452 -1.184595,1.66044 1.143694,-0.0512 0.183855,-1.59522 1.184595,-1.66044 z m 6.175776,0.29853 c 3.824549,0.88605 -1.070703,2.91022 0,0 z m 3.386572,0.90486 c 3.183028,0.5447 -0.713274,2.90101 0,0 z m 3.899459,1.26876 c 1.48901,3.16703 -2.756851,-0.0546 0,0 z m 33.454646,0.51318 c 3.27301,3.32473 -0.20347,3.44848 0,0 z m -30.963675,0.2051 c 1.966844,1.34954 -1.542261,1.6902 0,0 z m -18.873041,0.48512 c 3.156844,4.67126 -6.823491,-0.0391 0,0 z m 28.211489,0.3451 c 4.477604,0.0361 4.877235,8.542 0.95859,2.18315 0.0015,-0.60791 -1.243222,-1.86641 -0.95859,-2.18315 z m -6.147714,0.17733 c 2.637683,1.69693 -2.306819,1.30651 0,0 z m 26.102931,0.12122 c 3.76909,2.93717 -1.67175,3.40987 0,0 z m -35.012391,0.27076 c 3.820306,5.13395 3.861007,12.53929 11.841624,13.03057 5.238422,4.93324 -7.034542,-0.58692 -9.37267,-1.55786 -3.154427,-1.37009 -14.167988,-1.85907 -4.931262,-2.7782 3.759727,1.23221 9.082039,2.85225 4.75172,-2.78893 -0.873316,-1.91476 -1.93969,-3.80371 -2.289412,-5.90558 z m 53.456151,0.0558 c 3.31595,1.98199 -1.08451,3.34638 0,0 z m -42.242608,0.38243 c 3.38335,0.88143 -1.55113,2.76201 0,0 z m -8.069675,0.20538 c 4.829774,1.54723 5.836853,15.68801 2.1178,5.25211 -0.256438,-1.83703 -1.662307,-3.73341 -2.1178,-5.25211 z m 29.862683,0.14003 c 4.35716,3.97119 -3.062216,2.93499 0,0 z m -34.760436,0.12119 c 3.878841,2.08136 -2.273853,2.14139 0,0 z m 32.577549,1.05414 c 4.222437,4.21293 -2.510039,3.11497 0,0 z m -23.341795,0.41048 c 2.625374,2.32115 5.358772,14.52593 1.325919,5.24466 -0.619044,-1.64565 -1.681007,-3.45207 -1.325919,-5.24466 z m 42.895792,0.10271 c 1.32772,2.24292 -7.554,6.53051 -4.9444,3.368 -5.31086,0.9127 -11.29464,7.2621 -15.784694,6.32564 6.953884,-3.15212 13.981334,-6.25172 20.729034,-9.6937 l 6e-5,6e-5 z m -40.190176,0.48519 c 2.903159,0.14337 10.195723,4.99422 3.377018,1.96879 -1.103146,-0.49424 -2.564033,-1.34453 -3.377018,-1.96879 z m 10.168673,0.0745 c 2.549444,2.62882 -1.586814,3.65778 0,0 z m 8.424335,0.16776 c 3.982921,3.87308 -3.116848,2.31841 0,0 z m -30.478556,0.42004 c 7.133205,1.58656 -3.107009,2.70208 0,0 z m 11.932118,0.55021 c 3.476798,1.47726 9.416677,4.16731 11.036511,5.69096 -3.419315,-0.26516 -10.085477,-2.30722 -11.036511,-5.69096 z m 30.170766,0.52243 c 2.17764,0.82077 -4.41405,1.87636 0,0 z m 14.12425,0.23346 c 0.61525,3.01037 -8.50733,6.0919 -1.82917,1.28788 l 1.3249,-1.12875 0.50422,-0.15912 5e-5,-1e-5 z m -31.262206,0.0373 c 5.112757,1.5584 -1.849974,3.35719 0,0 z m 34.592656,0.55974 c 4.79899,-0.48802 2.84361,2.95937 2.52593,3.71511 7.38008,-0.83298 4.75616,8.39583 -0.7442,4.84059 -1.54922,-3.93491 -4.87956,-0.19027 -3.15344,-6.26026 -0.66516,-0.93345 -8.15836,5.07151 -2.96653,-0.0839 1.21827,-1.0931 2.58139,-2.26894 4.33824,-2.21154 z m -20.25346,0.16778 c 2.85823,0.25452 -1.53413,1.93979 0,0 z m -39.6958,0.30779 c 8.357529,0.9629 0.101102,4.36144 -1.063669,0.46636 l 0.39526,-0.30361 0.668417,-0.16299 -8e-6,2.4e-4 z m 38.09119,0.64394 c 1.58421,1.66633 -2.94856,0.98818 0,-9e-5 l 0,9e-5 z m -2.23902,1.09144 c 1.61662,2.18865 -2.974361,0.81118 0,0 z m -21.989136,0.0185 c 4.161878,0.0179 11.113002,6.31702 3.197902,2.76989 -0.771987,-0.75827 -4.06827,-1.27313 -3.197902,-2.76989 z m 15.402576,0.28003 c 4.129778,1.94582 -8.324942,2.16343 -1.57689,0.52214 l 1.42729,-0.51317 0.149564,-0.008 3.6e-5,-9.7e-4 z m 4.123659,0.78366 c 2.293381,1.37843 -1.914536,2.21403 0,0 z m -47.93356,0.92365 c 4.023872,0.65808 -5.168321,3.19466 0,0 z m 45.871582,0.0747 c 1.272996,2.75764 -6.189599,0.76887 0,-9e-5 l 0,9e-5 z m 16.914059,0.36361 c 7.68942,3.94908 14.83837,9.09839 22.64645,12.94387 -7.84686,-3.18746 -14.9078,-8.76028 -22.61869,-12.29993 -3.26482,2.72046 -14.158343,7.11967 -4.82713,2.15483 1.65398,-0.81772 3.1963,-1.98034 4.79937,-2.79877 z m -54.277415,0.33585 c 5.783307,0.72704 15.648395,1.90402 18.339447,6.26773 -6.181789,-0.6577 -12.846691,-4.94383 -19.804653,-4.64399 -0.135914,-0.88198 0.618914,-1.71156 1.465206,-1.62374 z m 20.617675,0 c 9.092773,1.1993 0.01962,5.48846 0,0 z m 9.636984,0.0841 c 2.908186,1.47471 -5.971828,2.87522 -7.211395,5.04702 2.306582,-1.81345 4.938749,-3.22661 7.211395,-5.04702 z m -37.773841,1.27802 c 0.934241,3.7275 -5.661433,2.87512 0,-9e-5 l 0,9e-5 z m 6.65164,1.61388 c 4.760834,0.39761 15.68235,1.80746 16.372516,4.91686 -5.24091,0.23472 -11.511803,-3.55551 -17.100639,-3.41437 -0.735805,-0.71742 -0.0029,-1.6395 0.728123,-1.50249 z m -6.18533,0.90486 c 1.99462,4.63823 -6.404014,3.12026 -7e-6,0 l 7e-6,0 z m 6.707764,2.12705 c 3.021007,-0.42734 15.299874,2.06341 11.815205,3.95726 -2.59517,-2.48343 -12.743188,-1.77545 -11.815205,-3.95726 z m 30.702461,0.29853 c 4.33593,0.80187 5.530625,3.81234 0.569306,0.50385 -3.181024,1.17753 -4.459002,1.40168 -0.569306,-0.50392 l 0,7e-5 z m 11.764042,0 c 4.53835,1.4623 -8.618164,3.90807 -0.7747,0.58808 l 0.37638,-0.37522 0.39832,-0.21289 0,3e-5 z m -23.052516,0.49468 c 1.913732,1.14362 -7.64102,5.76142 -3.843927,2.78025 1.370435,-0.7701 3.09045,-1.27295 3.843927,-2.78025 z m -25.702011,0.0931 c 4.029365,4.72861 -6.255529,3.20265 0,0 z m -7.304538,1.29684 c 3.939867,1.1824 3.015006,2.17253 -0.69571,0.80862 -3.507668,2.62425 -5.847328,4.20885 -1.310439,0.27356 0.734275,-0.17102 1.498428,-0.5037 2.006149,-1.08218 z m 14.292332,0.0465 c 3.687555,-1.50508 12.016139,4.90267 4.347554,1.88466 -0.755901,-0.46681 -5.851523,0.0687 -4.347554,-1.88466 z m 60.387803,0.86754 c 3.7222,0.91892 10.46441,6.45217 2.77101,2.14527 -0.24034,-0.73702 -3.92948,-1.60528 -2.77101,-2.14527 z m -23.957371,0.25196 c 0.366131,2.16269 -5.740755,2.39857 0,0 z m -42.298722,0.54125 c 2.650154,4.4173 -4.017927,2.00682 0,0 z m 7.4541,0.74634 c 4.260931,-0.10256 9.204476,3.77445 1.788708,1.71626 -0.631976,0.29958 -4.355918,-1.38874 -1.788708,-1.71626 z m 68.541683,15.5796 c -3.07284,-0.44396 -4.13267,6.04394 -1.25026,1.80045 4.43688,0.97799 6.59556,-1.27197 2.38826,3.06028 1.34593,1.96852 -6.59627,4.82624 -3.23699,4.28184 6.22269,-0.64042 -0.071,3.23744 0.6905,4.7861 6.3671,-3.80109 -3.90245,7.2674 0.47556,5.85873 0.30454,-6.95136 10.23939,0.494 14.04925,-4.37662 5.15181,-0.51619 8e-4,-9.12988 -0.76731,-8.60268 8.61356,-8.51149 -10.65991,-7.98778 -7.36708,1.20959 1.61726,3.87191 -5.31327,10.96121 -1.8517,4.36756 -0.18923,-4.6504 -0.0164,-10.29575 4.11877,-12.38559 -2.33625,1.41989 -4.82564,0.27996 -7.249,3.4e-4 z m -102.145296,0.26122 c -4.5259,3.42192 -17.122561,-3.56539 -17.035858,5.81215 1.236039,-4.68689 9.765704,-4.27853 2.476529,-0.0281 -6.0012018,7.8809 6.269865,16.01383 12.535192,9.97139 2.58577,-1.93217 3.09137,-6.71657 0.0359,-1.68742 -4.726129,3.97848 -2.26325,-3.92757 -2.864139,-6.63512 -2.165188,-6.61633 5.875736,-1.8023 4.852376,-7.43293 z m 32.679952,0.17732 c -8.08108,2.7942 2.784827,-0.46409 1.175628,5.01926 -3.127181,1.94705 -6.898385,3.59597 -0.988486,5.4734 5.188619,3.17832 -9.867438,8.88421 -1.968796,6.15989 5.840393,-3.29601 0.105561,6.60237 5.796303,4.31023 3.750948,0.70981 -0.902903,-7.77502 4.866743,-3.91867 2.769358,0.8017 6.035153,-2.99438 5.010003,-6.04516 0.767854,-4.27627 -1.036349,-11.81707 -6.210673,-10.22753 -2.774054,3.55093 -2.390433,-3.80077 -2.633705,1.69119 -2.638358,2.89655 -1.066699,-3.60454 -5.047017,-2.46261 z m -26.214894,0.54094 c -4.859654,1.73375 -5.006096,-1.03126 -3.778549,4.53771 -0.22496,3.34708 0.448909,7.0663 -0.334478,10.18217 -1.089405,3.188 5.387668,1.80145 2.750815,-1.19655 -0.184292,-2.36761 -0.478483,-8.55303 2.948026,-6.46119 -0.145301,4.23083 1.908317,10.55903 -3.310521,12.42364 -0.950952,2.34467 8.700187,-4.06253 5.922696,-8.71401 0.965591,-4.31036 -1.987266,-8.33087 -5.225045,-3.76252 -0.646893,-0.69084 -0.64758,-6.10764 1.027056,-7.00925 z m 105.615758,0.1866 c 5.95893,2.03431 -1.43365,10.40632 -1.24071,4.17022 0,3.29632 0,6.59263 0,9.88895 -6.46625,-0.53767 -4.04219,0.16829 -1.33963,-4.2465 0.67761,-3.18261 -1.56122,-8.51639 2.58034,-9.81267 z m -59.940017,0.12149 c -2.558246,5.22669 3.486378,-0.35708 0.09197,0 l -0.09197,0 z m -12.323789,0.90486 c 6.366249,1.09496 4.016011,8.94741 -1.5488,4.87924 0.271634,-1.90217 -0.940618,-4.15727 1.5488,-4.87924 z m 39.247706,0.35437 c -1.49262,2.1019 -4.50596,4.21384 -2.19244,5.56436 1.02317,3.8231 -2.77581,9.4244 2.56192,9.58919 4.72663,-2.65791 -1.37903,-0.84468 -0.13632,-4.90633 -0.13832,-2.96544 -0.54813,-6.20239 2.37901,-6.10237 -1.77926,-1.22722 -2.87116,-0.96884 -2.61217,-4.14485 z m -89.522969,0.27076 c 1.474379,1.56263 0.197544,5.60367 0.625131,8.10929 -1.684135,11.03517 -7.125975,-6.61372 -0.625131,-8.10929 z m 3.078784,0.48512 c 3.786913,0.15654 1.253859,5.64322 1.987044,8.37974 2.535087,6.5217 -9.100697,4.52555 -2.089739,0.29627 0.201132,-2.8861 0.06128,-5.78456 0.102695,-8.67601 z m 45.106739,0.27047 c 0,5.76858 0,11.53716 0,17.30574 -3.0608,0.21918 -0.675634,-5.0076 -1.427294,-7.09755 0.273586,-3.09916 -0.541111,-6.78393 0.39489,-9.52664 0.344123,-0.22719 0.688335,-0.45433 1.032404,-0.68155 z m -20.188382,1.76315 c -5.273779,0.55697 -4.456813,4.80303 -4.356809,8.779 -2.922513,5.32558 7.726965,3.20282 6.606385,1.11571 -2.020146,2.65538 -6.581575,-1.42536 -3.0552,-3.06805 2.937597,-1.6271 5.417987,-3.31231 1.695318,-5.78582 -0.296564,-0.34694 -0.593129,-0.69389 -0.889694,-1.04084 z m 33.715568,0 c -3.399344,1.44665 -0.257041,4.34501 -1.212945,7.39074 -1.261799,3.71686 2.71161,6.7835 3.741227,2.81555 -2.347965,0.60987 -1.337537,-5.92077 -1.031919,-7.87681 1.537296,-0.81649 -1.052769,-1.57111 -1.496363,-2.32948 z m 6.885094,0 c -4.329746,2.3356 0.48986,2.94282 -0.802164,7.33044 -2.890529,4.47732 3.980473,6.69622 4.98368,2.5055 -2.982653,2.65673 -2.753624,-2.82397 -2.567343,-4.74348 -0.542836,-5.44738 2.408533,-0.16262 4.078417,-2.60474 -0.226853,-5.14854 -4.583639,2.4141 -5.69259,-2.48772 l 0,0 z m 11.232351,0 c -6.199209,0.49666 0.600581,5.24882 -4.229408,8.32662 -0.693632,4.74533 3.38219,4.50481 5.535196,1.47875 0.75837,5.008 5.958417,0.41902 2.416037,-1.11948 -0.8721,-4.9059 3.17907,-9.05001 -3.721825,-8.68594 l 0,5e-5 z m 18.424935,0 c -5.27,0.56216 -4.45897,4.79986 -4.35681,8.779 -2.91764,5.31525 7.70403,3.21389 6.61472,1.11481 -2.02368,2.65545 -6.59199,-1.41883 -3.06383,-3.06715 2.93759,-1.62709 5.41797,-3.3123 1.69544,-5.78592 -0.2965,-0.34692 -0.59301,-0.69383 -0.88952,-1.04074 z m 35.37631,0 c -6.19927,0.49663 0.60068,5.24883 -4.22941,8.32662 -0.69359,4.73905 3.37732,4.50994 5.52595,1.47875 0.77338,5.00723 5.96504,0.42039 2.4253,-1.11948 -0.87208,-4.9059 3.17903,-9.04999 -3.72184,-8.68594 l 0,5e-5 z m 8.50823,0 c -4.45079,2.37657 0.21664,2.66743 -0.80246,6.80414 0.48212,3.91793 -4.48051,11.06432 3.22779,8.6265 1.9232,-2.31148 -7.2981,2.12614 -3.54509,-2.92922 4.97186,-1.06521 11.88136,-10.10745 5.57739,-11.90954 -3.16889,2.00006 -1.85312,3.62542 -4.45763,-0.59188 z m -97.825796,0.80246 c 1.931874,6.23054 -5.419138,1.46542 0,0 z m -18.11745,0.55975 c 2.693526,2.14243 3.599739,4.0808 -0.168075,5.48557 0.127671,-1.76489 -0.244988,-3.89768 0.168075,-5.48557 z m 70.258256,0 c 2.69354,2.14243 3.59973,4.08081 -0.16809,5.48557 0.12768,-1.76488 -0.24501,-3.89771 0.16809,-5.48557 z m -19.385929,0.16777 c 3.001899,-0.8359 6.175349,4.55153 2.780984,3.6728 -1.888438,-0.32768 -1.917711,-2.31287 -2.780984,-3.6728 z m 53.801259,0 c 3.00217,-0.83777 6.16084,4.55823 2.77253,3.67105 -1.88331,-0.32936 -1.90927,-2.31579 -2.77253,-3.67105 z m 14.67504,0.47587 c 3.63328,6.32639 -3.90005,10.54163 -1.78194,1.9934 -0.2545,-0.97794 1.31131,-1.32959 1.78194,-1.9934 z m -90.866368,0.34511 c 1.566708,5.3613 -3.631816,2.15517 -5.952178,3.21193 -0.928284,-6.23525 2.26735,0.0346 5.952178,-3.21193 z m 68.905298,0.19584 c 5.87158,3.6029 -6.06016,2.56715 0,0 l 0,0 z m -45.330644,2.40707 c 3.291637,0.21661 4.14791,4.41217 1.072633,5.71003 -1.947334,-1.20769 -2.131628,-3.84165 -1.072633,-5.71003 z m 53.801554,0 c 3.28468,0.21977 4.13281,4.40734 1.07292,5.70947 -1.94645,-1.20752 -2.13248,-3.84147 -1.07292,-5.70947 z m -10.22481,0.36392 c 4.62845,-1.07559 4.72652,3.28978 0,2.11781 0,-0.70594 0,-1.41187 0,-2.11781 z m -70.108977,0.35436 c 5.212291,0.15702 3.366022,8.44453 -1.603688,3.58808 -3.029391,0.25954 -1.202438,-4.64686 1.603688,-3.58808 z m 71.760177,1.92196 c 6.53278,2.48254 -6.39374,3.14787 0,0 l 0,0 z"
   id="Logo" />
</svg>