999
DXF created by Inkscape
  0
SECTION
  2
HEADER
  9
$ACADVER
  1
AC1014
  9
$HANDSEED
  5
FFFF
  9
$MEASUREMENT
 70
     1
  0
ENDSEC
  0
SECTION
  2
TABLES
  0
TABLE
  2
VPORT
  5
8
330
0
100
AcDbSymbolTable
 70
     4
  0
VPORT
  5
2E
330
8
100
AcDbSymbolTableRecord
100
AcDbViewportTableRecord
  2
*ACTIVE
 70
     0
 10
0.0
 20
0.0
 11
1.0
 21
1.0
 12
210.0
 22
148.5
 13
0.0
 23
0.0
 14
10.0
 24
10.0
 15
10.0
 25
10.0
 16
0.0
 26
0.0
 36
1.0
 17
0.0
 27
0.0
 37
0.0
 40
341.0
 41
1.24
 42
50.0
 43
0.0
 44
0.0
 50
0.0
 51
0.0
 71
     0
 72
   100
 73
     1
 74
     3
 75
     0
 76
     0
 77
     0
 78
     0
  0
ENDTAB
  0
TABLE
  2
LTYPE
  5
5
330
0
100
AcDbSymbolTable
 70
     1
  0
LTYPE
  5
14
330
5
100
AcDbSymbolTableRecord
100
AcDbLinetypeTableRecord
  2
BYBLOCK
 70
     0
  3

 72
    65
 73
     0
 40
0.0
  0
LTYPE
  5
15
330
5
100
AcDbSymbolTableRecord
100
AcDbLinetypeTableRecord
  2
BYLAYER
 70
     0
  3

 72
    65
 73
     0
 40
0.0
  0
LTYPE
  5
16
330
5
100
AcDbSymbolTableRecord
100
AcDbLinetypeTableRecord
  2
CONTINUOUS
 70
     0
  3
Solid line
 72
    65
 73
     0
 40
0.0
  0
ENDTAB
  0
TABLE
  2
LAYER
  5
2
330
0
100
AcDbSymbolTable
 70
1
  0
LAYER
  5
10
330
2
100
AcDbSymbolTableRecord
100
AcDbLayerTableRecord
  2
0
 70
     0
 62
     7
  6
CONTINUOUS
  0
ENDTAB
  0
TABLE
  2
STYLE
  5
3
330
0
100
AcDbSymbolTable
 70
     1
  0
STYLE
  5
11
330
3
100
AcDbSymbolTableRecord
100
AcDbTextStyleTableRecord
  2
STANDARD
 70
     0
 40
0.0
 41
1.0
 50
0.0
 71
     0
 42
2.5
  3
txt
  4

  0
ENDTAB
  0
TABLE
  2
VIEW
  5
6
330
0
100
AcDbSymbolTable
 70
     0
  0
ENDTAB
  0
TABLE
  2
UCS
  5
7
330
0
100
AcDbSymbolTable
 70
     0
  0
ENDTAB
  0
TABLE
  2
APPID
  5
9
330
0
100
AcDbSymbolTable
 70
     2
  0
APPID
  5
12
330
9
100
AcDbSymbolTableRecord
100
AcDbRegAppTableRecord
  2
ACAD
 70
     0
  0
ENDTAB
  0
TABLE
  2
DIMSTYLE
  5
A
330
0
100
AcDbSymbolTable
 70
     1
  0
DIMSTYLE
105
27
330
A
100
AcDbSymbolTableRecord
100
AcDbDimStyleTableRecord
  2
ISO-25
 70
     0
  3

  4

  5

  6

  7

 40
1.0
 41
2.5
 42
0.625
 43
3.75
 44
1.25
 45
0.0
 46
0.0
 47
0.0
 48
0.0
140
2.5
141
2.5
142
0.0
143
0.03937007874016
144
1.0
145
0.0
146
1.0
147
0.625
 71
     0
 72
     0
 73
     0
 74
     0
 75
     0
 76
     0
 77
     1
 78
     8
170
     0
171
     3
172
     1
173
     0
174
     0
175
     0
176
     0
177
     0
178
     0
270
     2
271
     2
272
     2
273
     2
274
     3
340
11
275
     0
280
     0
281
     0
282
     0
283
     0
284
     8
285
     0
286
     0
287
     3
288
     0
  0
ENDTAB
  0
TABLE
  2
BLOCK_RECORD
  5
1
330
0
100
AcDbSymbolTable
 70
     1
  0
BLOCK_RECORD
  5
1F
330
1
100
AcDbSymbolTableRecord
100
AcDbBlockTableRecord
  2
*MODEL_SPACE
  0
BLOCK_RECORD
  5
1B
330
1
100
AcDbSymbolTableRecord
100
AcDbBlockTableRecord
  2
*PAPER_SPACE
  0
ENDTAB
  0
ENDSEC
  0
SECTION
  2
BLOCKS
  0
BLOCK
  5
20
330
1F
100
AcDbEntity
  8
0
100
AcDbBlockBegin
  2
*MODEL_SPACE
 70
     0
 10
0.0
 20
0.0
 30
0.0
  3
*MODEL_SPACE
  1

  0
ENDBLK
  5
21
330
1F
100
AcDbEntity
  8
0
100
AcDbBlockEnd
  0
BLOCK
  5
1C
330
1B
100
AcDbEntity
 67
     1
  8
0
100
AcDbBlockBegin
  2
*PAPER_SPACE
  1

  0
ENDBLK
  5
1D
330
1B
100
AcDbEntity
 67
     1
  8
0
100
AcDbBlockEnd
  0
ENDSEC
  0
SECTION
  2
ENTITIES
  0
SPLINE
  5
100
100
AcDbEntity
  8
0
 62
7
100
AcDbSpline
 70
8
 71
3
 72
8
 73
4
 74
0
 40
0
 40
0
 40
0
 40
0
 40
1
 40
1
 40
1
 40
1
 10
18.704229
 20
170.763999
 30
0.0
 10
19.566754
 20
169.063904
 30
0.0
 10
17.758842
 20
167.411220
 30
0.0
 10
16.860595
 20
165.997280
 30
0.0
  0
SPLINE
  5
101
100
AcDbEntity
  8
0
 62
7
100
AcDbSpline
 70
8
 71
3
 72
8
 73
4
 74
0
 40
0
 40
0
 40
0
 40
0
 40
1
 40
1
 40
1
 40
1
 10
16.860595
 20
165.997280
 30
0.0
 10
15.408817
 20
164.873913
 30
0.0
 10
16.338841
 20
162.172789
 30
0.0
 10
13.967441
 20
161.601316
 30
0.0
  0
SPLINE
  5
102
100
AcDbEntity
  8
0
 62
7
100
AcDbSpline
 70
8
 71
3
 72
8
 73
4
 74
0
 40
0
 40
0
 40
0
 40
0
 40
1
 40
1
 40
1
 40
1
 10
13.967441
 20
161.601316
 30
0.0
 10
13.028906
 20
161.080149
 30
0.0
 10
12.368253
 20
159.668104
 30
0.0
 10
13.982385
 20
160.745211
 30
0.0
  0
SPLINE
  5
103
100
AcDbEntity
  8
0
 62
7
100
AcDbSpline
 70
8
 71
3
 72
8
 73
4
 74
0
 40
0
 40
0
 40
0
 40
0
 40
1
 40
1
 40
1
 40
1
 10
13.982385
 20
160.745211
 30
0.0
 10
14.935791
 20
161.196354
 30
0.0
 10
12.979810
 20
156.958758
 30
0.0
 10
14.455603
 20
158.692396
 30
0.0
  0
SPLINE
  5
104
100
AcDbEntity
  8
0
 62
7
100
AcDbSpline
 70
8
 71
3
 72
8
 73
4
 74
0
 40
0
 40
0
 40
0
 40
0
 40
1
 40
1
 40
1
 40
1
 10
14.455603
 20
158.692396
 30
0.0
 10
14.987084
 20
160.894189
 30
0.0
 10
18.042408
 20
161.654232
 30
0.0
 10
17.717425
 20
164.132676
 30
0.0
  0
SPLINE
  5
105
100
AcDbEntity
  8
0
 62
7
100
AcDbSpline
 70
8
 71
3
 72
8
 73
4
 74
0
 40
0
 40
0
 40
0
 40
0
 40
1
 40
1
 40
1
 40
1
 10
17.717425
 20
164.132676
 30
0.0
 10
17.873412
 20
165.586157
 30
0.0
 10
20.056224
 20
167.660189
 30
0.0
 10
19.651910
 20
164.930587
 30
0.0
  0
SPLINE
  5
106
100
AcDbEntity
  8
0
 62
7
100
AcDbSpline
 70
8
 71
3
 72
8
 73
4
 74
0
 40
0
 40
0
 40
0
 40
0
 40
1
 40
1
 40
1
 40
1
 10
19.651910
 20
164.930587
 30
0.0
 10
20.422857
 20
162.778780
 30
0.0
 10
20.245095
 20
160.674745
 30
0.0
 10
18.619817
 20
158.932800
 30
0.0
  0
SPLINE
  5
107
100
AcDbEntity
  8
0
 62
7
100
AcDbSpline
 70
8
 71
3
 72
8
 73
4
 74
0
 40
0
 40
0
 40
0
 40
0
 40
1
 40
1
 40
1
 40
1
 10
18.619817
 20
158.932800
 30
0.0
 10
18.371668
 20
157.639344
 30
0.0
 10
15.989148
 20
156.060792
 30
0.0
 10
16.326609
 20
155.424475
 30
0.0
  0
SPLINE
  5
108
100
AcDbEntity
  8
0
 62
7
100
AcDbSpline
 70
8
 71
3
 72
8
 73
4
 74
0
 40
0
 40
0
 40
0
 40
0
 40
1
 40
1
 40
1
 40
1
 10
16.326609
 20
155.424475
 30
0.0
 10
17.102030
 20
155.416954
 30
0.0
 10
16.302606
 20
152.270423
 30
0.0
 10
17.709886
 20
151.499002
 30
0.0
  0
SPLINE
  5
109
100
AcDbEntity
  8
0
 62
7
100
AcDbSpline
 70
8
 71
3
 72
8
 73
4
 74
0
 40
0
 40
0
 40
0
 40
0
 40
1
 40
1
 40
1
 40
1
 10
17.709886
 20
151.499002
 30
0.0
 10
18.488541
 20
149.333729
 30
0.0
 10
15.639239
 20
152.304117
 30
0.0
 10
15.403228
 20
153.062773
 30
0.0
  0
SPLINE
  5
10a
100
AcDbEntity
  8
0
 62
7
100
AcDbSpline
 70
8
 71
3
 72
8
 73
4
 74
0
 40
0
 40
0
 40
0
 40
0
 40
1
 40
1
 40
1
 40
1
 10
15.403228
 20
153.062773
 30
0.0
 10
14.118723
 20
154.290116
 30
0.0
 10
14.629433
 20
157.234465
 30
0.0
 10
14.881016
 20
157.806603
 30
0.0
  0
SPLINE
  5
10b
100
AcDbEntity
  8
0
 62
7
100
AcDbSpline
 70
8
 71
3
 72
8
 73
4
 74
0
 40
0
 40
0
 40
0
 40
0
 40
1
 40
1
 40
1
 40
1
 10
14.881016
 20
157.806603
 30
0.0
 10
14.132678
 20
156.397688
 30
0.0
 10
11.441983
 20
154.090651
 30
0.0
 10
11.498123
 20
157.225152
 30
0.0
  0
SPLINE
  5
10c
100
AcDbEntity
  8
0
 62
7
100
AcDbSpline
 70
8
 71
3
 72
8
 73
4
 74
0
 40
0
 40
0
 40
0
 40
0
 40
1
 40
1
 40
1
 40
1
 10
11.498123
 20
157.225152
 30
0.0
 10
11.023768
 20
158.450338
 30
0.0
 10
10.515041
 20
161.238881
 30
0.0
 10
9.946245
 20
161.456358
 30
0.0
  0
SPLINE
  5
10d
100
AcDbEntity
  8
0
 62
7
100
AcDbSpline
 70
8
 71
3
 72
8
 73
4
 74
0
 40
0
 40
0
 40
0
 40
0
 40
1
 40
1
 40
1
 40
1
 10
9.946245
 20
161.456358
 30
0.0
 10
9.677460
 20
159.057798
 30
0.0
 10
7.994110
 20
156.863404
 30
0.0
 10
8.336268
 20
154.246375
 30
0.0
  0
SPLINE
  5
10e
100
AcDbEntity
  8
0
 62
7
100
AcDbSpline
 70
8
 71
3
 72
8
 73
4
 74
0
 40
0
 40
0
 40
0
 40
0
 40
1
 40
1
 40
1
 40
1
 10
8.336268
 20
154.246375
 30
0.0
 10
8.271503
 20
153.524051
 30
0.0
 10
7.679574
 20
151.504248
 30
0.0
 10
8.563149
 20
153.255766
 30
0.0
  0
SPLINE
  5
10f
100
AcDbEntity
  8
0
 62
7
100
AcDbSpline
 70
8
 71
3
 72
8
 73
4
 74
0
 40
0
 40
0
 40
0
 40
0
 40
1
 40
1
 40
1
 40
1
 10
8.563149
 20
153.255766
 30
0.0
 10
9.212235
 20
154.756168
 30
0.0
 10
9.107682
 20
158.701980
 30
0.0
 10
10.685943
 20
158.692934
 30
0.0
  0
SPLINE
  5
110
100
AcDbEntity
  8
0
 62
7
100
AcDbSpline
 70
8
 71
3
 72
8
 73
4
 74
0
 40
0
 40
0
 40
0
 40
0
 40
1
 40
1
 40
1
 40
1
 10
10.685943
 20
158.692934
 30
0.0
 10
10.898411
 20
155.976937
 30
0.0
 10
10.168436
 20
153.252627
 30
0.0
 10
10.043208
 20
150.531040
 30
0.0
  0
SPLINE
  5
111
100
AcDbEntity
  8
0
 62
7
100
AcDbSpline
 70
8
 71
3
 72
8
 73
4
 74
0
 40
0
 40
0
 40
0
 40
0
 40
1
 40
1
 40
1
 40
1
 10
10.043208
 20
150.531040
 30
0.0
 10
9.732676
 20
147.596716
 30
0.0
 10
9.479730
 20
144.649486
 30
0.0
 10
9.143097
 20
141.722232
 30
0.0
  0
SPLINE
  5
112
100
AcDbEntity
  8
0
 62
7
100
AcDbSpline
 70
8
 71
3
 72
8
 73
4
 74
0
 40
0
 40
0
 40
0
 40
0
 40
1
 40
1
 40
1
 40
1
 10
9.143097
 20
141.722232
 30
0.0
 10
7.792406
 20
142.131201
 30
0.0
 10
5.767040
 20
144.864830
 30
0.0
 10
4.965511
 20
144.408395
 30
0.0
  0
SPLINE
  5
113
100
AcDbEntity
  8
0
 62
7
100
AcDbSpline
 70
8
 71
3
 72
8
 73
4
 74
0
 40
0
 40
0
 40
0
 40
0
 40
1
 40
1
 40
1
 40
1
 10
4.965511
 20
144.408395
 30
0.0
 10
5.561078
 20
142.986893
 30
0.0
 10
9.835490
 20
141.813624
 30
0.0
 10
7.823461
 20
140.351380
 30
0.0
  0
SPLINE
  5
114
100
AcDbEntity
  8
0
 62
7
100
AcDbSpline
 70
8
 71
3
 72
8
 73
4
 74
0
 40
0
 40
0
 40
0
 40
0
 40
1
 40
1
 40
1
 40
1
 10
7.823461
 20
140.351380
 30
0.0
 10
5.963806
 20
139.442204
 30
0.0
 10
7.519880
 20
136.644939
 30
0.0
 10
8.908794
 20
135.683216
 30
0.0
  0
SPLINE
  5
115
100
AcDbEntity
  8
0
 62
7
100
AcDbSpline
 70
8
 71
3
 72
8
 73
4
 74
0
 40
0
 40
0
 40
0
 40
0
 40
1
 40
1
 40
1
 40
1
 10
8.908794
 20
135.683216
 30
0.0
 10
10.211520
 20
134.551231
 30
0.0
 10
12.290952
 20
134.687510
 30
0.0
 10
13.625772
 20
134.525018
 30
0.0
  0
SPLINE
  5
116
100
AcDbEntity
  8
0
 62
7
100
AcDbSpline
 70
8
 71
3
 72
8
 73
4
 74
0
 40
0
 40
0
 40
0
 40
0
 40
1
 40
1
 40
1
 40
1
 10
13.625772
 20
134.525018
 30
0.0
 10
12.829661
 20
133.349467
 30
0.0
 10
14.016323
 20
131.609823
 30
0.0
 10
11.976888
 20
131.695393
 30
0.0
  0
SPLINE
  5
117
100
AcDbEntity
  8
0
 62
7
100
AcDbSpline
 70
8
 71
3
 72
8
 73
4
 74
0
 40
0
 40
0
 40
0
 40
0
 40
1
 40
1
 40
1
 40
1
 10
11.976888
 20
131.695393
 30
0.0
 10
11.119345
 20
131.341763
 30
0.0
 10
9.660017
 20
128.877929
 30
0.0
 10
11.440491
 20
130.175629
 30
0.0
  0
SPLINE
  5
118
100
AcDbEntity
  8
0
 62
7
100
AcDbSpline
 70
8
 71
3
 72
8
 73
4
 74
0
 40
0
 40
0
 40
0
 40
0
 40
1
 40
1
 40
1
 40
1
 10
11.440491
 20
130.175629
 30
0.0
 10
11.667059
 20
128.253386
 30
0.0
 10
9.264918
 20
130.209315
 30
0.0
 10
8.846289
 20
130.182713
 30
0.0
  0
SPLINE
  5
119
100
AcDbEntity
  8
0
 62
7
100
AcDbSpline
 70
8
 71
3
 72
8
 73
4
 74
0
 40
0
 40
0
 40
0
 40
0
 40
1
 40
1
 40
1
 40
1
 10
8.846289
 20
130.182713
 30
0.0
 10
8.630910
 20
129.041742
 30
0.0
 10
6.876812
 20
128.621756
 30
0.0
 10
7.098038
 20
129.669359
 30
0.0
  0
SPLINE
  5
11a
100
AcDbEntity
  8
0
 62
7
100
AcDbSpline
 70
8
 71
3
 72
8
 73
4
 74
0
 40
0
 40
0
 40
0
 40
0
 40
1
 40
1
 40
1
 40
1
 10
7.098038
 20
129.669359
 30
0.0
 10
5.260702
 20
129.134224
 30
0.0
 10
7.083721
 20
127.537145
 30
0.0
 10
8.372851
 20
128.083728
 30
0.0
  0
SPLINE
  5
11b
100
AcDbEntity
  8
0
 62
7
100
AcDbSpline
 70
8
 71
3
 72
8
 73
4
 74
0
 40
0
 40
0
 40
0
 40
0
 40
1
 40
1
 40
1
 40
1
 10
8.372851
 20
128.083728
 30
0.0
 10
20.198834
 20
128.077801
 30
0.0
 10
32.024817
 20
128.071874
 30
0.0
 10
43.850800
 20
128.065948
 30
0.0
  0
SPLINE
  5
11c
100
AcDbEntity
  8
0
 62
7
100
AcDbSpline
 70
8
 71
3
 72
8
 73
4
 74
0
 40
0
 40
0
 40
0
 40
0
 40
1
 40
1
 40
1
 40
1
 10
43.850800
 20
128.065948
 30
0.0
 10
47.180404
 20
128.836479
 30
0.0
 10
42.400333
 20
133.421574
 30
0.0
 10
42.099938
 20
130.146069
 30
0.0
  0
SPLINE
  5
11d
100
AcDbEntity
  8
0
 62
7
100
AcDbSpline
 70
8
 71
3
 72
8
 73
4
 74
0
 40
0
 40
0
 40
0
 40
0
 40
1
 40
1
 40
1
 40
1
 10
42.099938
 20
130.146069
 30
0.0
 10
42.583441
 20
128.189186
 30
0.0
 10
44.355080
 20
131.310355
 30
0.0
 10
42.877043
 20
130.061668
 30
0.0
  0
SPLINE
  5
11e
100
AcDbEntity
  8
0
 62
7
100
AcDbSpline
 70
8
 71
3
 72
8
 73
4
 74
0
 40
0
 40
0
 40
0
 40
0
 40
1
 40
1
 40
1
 40
1
 10
42.877043
 20
130.061668
 30
0.0
 10
42.381066
 20
131.806826
 30
0.0
 10
45.484198
 20
129.338369
 30
0.0
 10
43.250502
 20
129.185077
 30
0.0
  0
SPLINE
  5
11f
100
AcDbEntity
  8
0
 62
7
100
AcDbSpline
 70
8
 71
3
 72
8
 73
4
 74
0
 40
0
 40
0
 40
0
 40
0
 40
1
 40
1
 40
1
 40
1
 10
43.250502
 20
129.185077
 30
0.0
 10
41.212237
 20
129.607637
 30
0.0
 10
38.582521
 20
130.598113
 30
0.0
 10
37.355405
 20
132.065519
 30
0.0
  0
SPLINE
  5
120
100
AcDbEntity
  8
0
 62
7
100
AcDbSpline
 70
8
 71
3
 72
8
 73
4
 74
0
 40
0
 40
0
 40
0
 40
0
 40
1
 40
1
 40
1
 40
1
 10
37.355405
 20
132.065519
 30
0.0
 10
39.228494
 20
134.035205
 30
0.0
 10
36.256445
 20
135.187961
 30
0.0
 10
35.294082
 20
136.380567
 30
0.0
  0
SPLINE
  5
121
100
AcDbEntity
  8
0
 62
7
100
AcDbSpline
 70
8
 71
3
 72
8
 73
4
 74
0
 40
0
 40
0
 40
0
 40
0
 40
1
 40
1
 40
1
 40
1
 10
35.294082
 20
136.380567
 30
0.0
 10
33.389034
 20
136.880831
 30
0.0
 10
33.371691
 20
140.535637
 30
0.0
 10
36.035005
 20
139.284038
 30
0.0
  0
SPLINE
  5
122
100
AcDbEntity
  8
0
 62
7
100
AcDbSpline
 70
8
 71
3
 72
8
 73
4
 74
0
 40
0
 40
0
 40
0
 40
0
 40
1
 40
1
 40
1
 40
1
 10
36.035005
 20
139.284038
 30
0.0
 10
38.151243
 20
139.273765
 30
0.0
 10
40.106388
 20
138.560807
 30
0.0
 10
41.889378
 20
137.494696
 30
0.0
  0
SPLINE
  5
123
100
AcDbEntity
  8
0
 62
7
100
AcDbSpline
 70
8
 71
3
 72
8
 73
4
 74
0
 40
0
 40
0
 40
0
 40
0
 40
1
 40
1
 40
1
 40
1
 10
41.889378
 20
137.494696
 30
0.0
 10
40.556823
 20
138.789901
 30
0.0
 10
38.654276
 20
139.780368
 30
0.0
 10
37.492711
 20
141.408703
 30
0.0
  0
SPLINE
  5
124
100
AcDbEntity
  8
0
 62
7
100
AcDbSpline
 70
8
 71
3
 72
8
 73
4
 74
0
 40
0
 40
0
 40
0
 40
0
 40
1
 40
1
 40
1
 40
1
 10
37.492711
 20
141.408703
 30
0.0
 10
35.055694
 20
144.336925
 30
0.0
 10
35.078834
 20
148.613746
 30
0.0
 10
36.190324
 20
152.090574
 30
0.0
  0
SPLINE
  5
125
100
AcDbEntity
  8
0
 62
7
100
AcDbSpline
 70
8
 71
3
 72
8
 73
4
 74
0
 40
0
 40
0
 40
0
 40
0
 40
1
 40
1
 40
1
 40
1
 10
36.190324
 20
152.090574
 30
0.0
 10
37.112634
 20
155.227541
 30
0.0
 10
38.643789
 20
158.189703
 30
0.0
 10
40.656691
 20
160.736998
 30
0.0
  0
SPLINE
  5
126
100
AcDbEntity
  8
0
 62
7
100
AcDbSpline
 70
8
 71
3
 72
8
 73
4
 74
0
 40
0
 40
0
 40
0
 40
0
 40
1
 40
1
 40
1
 40
1
 10
40.656691
 20
160.736998
 30
0.0
 10
38.936902
 20
159.753419
 30
0.0
 10
38.067079
 20
157.604948
 30
0.0
 10
36.309294
 20
156.511074
 30
0.0
  0
SPLINE
  5
127
100
AcDbEntity
  8
0
 62
7
100
AcDbSpline
 70
8
 71
3
 72
8
 73
4
 74
0
 40
0
 40
0
 40
0
 40
0
 40
1
 40
1
 40
1
 40
1
 10
36.309294
 20
156.511074
 30
0.0
 10
35.441777
 20
155.733286
 30
0.0
 10
33.521958
 20
152.792089
 30
0.0
 10
33.522655
 20
155.352331
 30
0.0
  0
SPLINE
  5
128
100
AcDbEntity
  8
0
 62
7
100
AcDbSpline
 70
8
 71
3
 72
8
 73
4
 74
0
 40
0
 40
0
 40
0
 40
0
 40
1
 40
1
 40
1
 40
1
 10
33.522655
 20
155.352331
 30
0.0
 10
32.889407
 20
156.983026
 30
0.0
 10
34.123870
 20
159.443404
 30
0.0
 10
33.566537
 20
160.956715
 30
0.0
  0
SPLINE
  5
129
100
AcDbEntity
  8
0
 62
7
100
AcDbSpline
 70
8
 71
3
 72
8
 73
4
 74
0
 40
0
 40
0
 40
0
 40
0
 40
1
 40
1
 40
1
 40
1
 10
33.566537
 20
160.956715
 30
0.0
 10
32.723607
 20
158.953212
 30
0.0
 10
33.565691
 20
156.253033
 30
0.0
 10
31.962296
 20
154.763035
 30
0.0
  0
SPLINE
  5
12a
100
AcDbEntity
  8
0
 62
7
100
AcDbSpline
 70
8
 71
3
 72
8
 73
4
 74
0
 40
0
 40
0
 40
0
 40
0
 40
1
 40
1
 40
1
 40
1
 10
31.962296
 20
154.763035
 30
0.0
 10
33.390690
 20
152.492065
 30
0.0
 10
31.023453
 20
150.827235
 30
0.0
 10
29.940538
 20
148.893548
 30
0.0
  0
SPLINE
  5
12b
100
AcDbEntity
  8
0
 62
7
100
AcDbSpline
 70
8
 71
3
 72
8
 73
4
 74
0
 40
0
 40
0
 40
0
 40
0
 40
1
 40
1
 40
1
 40
1
 10
29.940538
 20
148.893548
 30
0.0
 10
29.016350
 20
147.404820
 30
0.0
 10
27.088482
 20
146.073157
 30
0.0
 10
28.358801
 20
144.243958
 30
0.0
  0
SPLINE
  5
12c
100
AcDbEntity
  8
0
 62
7
100
AcDbSpline
 70
8
 71
3
 72
8
 73
4
 74
0
 40
0
 40
0
 40
0
 40
0
 40
1
 40
1
 40
1
 40
1
 10
28.358801
 20
144.243958
 30
0.0
 10
28.774500
 20
142.571018
 30
0.0
 10
30.377573
 20
141.430999
 30
0.0
 10
31.217910
 20
140.211779
 30
0.0
  0
SPLINE
  5
12d
100
AcDbEntity
  8
0
 62
7
100
AcDbSpline
 70
8
 71
3
 72
8
 73
4
 74
0
 40
0
 40
0
 40
0
 40
0
 40
1
 40
1
 40
1
 40
1
 10
31.217910
 20
140.211779
 30
0.0
 10
29.651878
 20
141.541195
 30
0.0
 10
27.959428
 20
143.616861
 30
0.0
 10
27.924036
 20
145.577749
 30
0.0
  0
SPLINE
  5
12e
100
AcDbEntity
  8
0
 62
7
100
AcDbSpline
 70
8
 71
3
 72
8
 73
4
 74
0
 40
0
 40
0
 40
0
 40
0
 40
1
 40
1
 40
1
 40
1
 10
27.924036
 20
145.577749
 30
0.0
 10
27.400685
 20
146.756929
 30
0.0
 10
27.277641
 20
148.867127
 30
0.0
 10
27.375825
 20
150.424864
 30
0.0
  0
SPLINE
  5
12f
100
AcDbEntity
  8
0
 62
7
100
AcDbSpline
 70
8
 71
3
 72
8
 73
4
 74
0
 40
0
 40
0
 40
0
 40
0
 40
1
 40
1
 40
1
 40
1
 10
27.375825
 20
150.424864
 30
0.0
 10
27.206179
 20
154.557258
 30
0.0
 10
29.194354
 20
158.325713
 30
0.0
 10
31.010259
 20
161.903794
 30
0.0
  0
SPLINE
  5
130
100
AcDbEntity
  8
0
 62
7
100
AcDbSpline
 70
8
 71
3
 72
8
 73
4
 74
0
 40
0
 40
0
 40
0
 40
0
 40
1
 40
1
 40
1
 40
1
 10
31.010259
 20
161.903794
 30
0.0
 10
31.970740
 20
162.328109
 30
0.0
 10
32.776067
 20
164.070106
 30
0.0
 10
31.309897
 20
162.712099
 30
0.0
  0
SPLINE
  5
131
100
AcDbEntity
  8
0
 62
7
100
AcDbSpline
 70
8
 71
3
 72
8
 73
4
 74
0
 40
0
 40
0
 40
0
 40
0
 40
1
 40
1
 40
1
 40
1
 10
31.309897
 20
162.712099
 30
0.0
 10
29.967524
 20
160.654962
 30
0.0
 10
26.621223
 20
159.736539
 30
0.0
 10
25.412513
 20
162.441138
 30
0.0
  0
SPLINE
  5
132
100
AcDbEntity
  8
0
 62
7
100
AcDbSpline
 70
8
 71
3
 72
8
 73
4
 74
0
 40
0
 40
0
 40
0
 40
0
 40
1
 40
1
 40
1
 40
1
 10
25.412513
 20
162.441138
 30
0.0
 10
24.288435
 20
164.257068
 30
0.0
 10
27.193212
 20
166.381063
 30
0.0
 10
27.020752
 20
167.088669
 30
0.0
  0
SPLINE
  5
133
100
AcDbEntity
  8
0
 62
7
100
AcDbSpline
 70
8
 71
3
 72
8
 73
4
 74
0
 40
0
 40
0
 40
0
 40
0
 40
1
 40
1
 40
1
 40
1
 10
27.020752
 20
167.088669
 30
0.0
 10
25.648974
 20
165.569916
 30
0.0
 10
24.153530
 20
164.179244
 30
0.0
 10
22.368568
 20
163.144743
 30
0.0
  0
SPLINE
  5
134
100
AcDbEntity
  8
0
 62
7
100
AcDbSpline
 70
8
 71
3
 72
8
 73
4
 74
0
 40
0
 40
0
 40
0
 40
0
 40
1
 40
1
 40
1
 40
1
 10
22.368568
 20
163.144743
 30
0.0
 10
21.442799
 20
162.256430
 30
0.0
 10
19.991746
 20
161.631108
 30
0.0
 10
20.341401
 20
163.617070
 30
0.0
  0
SPLINE
  5
135
100
AcDbEntity
  8
0
 62
7
100
AcDbSpline
 70
8
 71
3
 72
8
 73
4
 74
0
 40
0
 40
0
 40
0
 40
0
 40
1
 40
1
 40
1
 40
1
 10
20.341401
 20
163.617070
 30
0.0
 10
20.092956
 20
165.958519
 30
0.0
 10
19.214989
 20
168.273217
 30
0.0
 10
19.213935
 20
170.597208
 30
0.0
  0
SPLINE
  5
136
100
AcDbEntity
  8
0
 62
7
100
AcDbSpline
 70
8
 71
3
 72
8
 73
4
 74
0
 40
0
 40
0
 40
0
 40
0
 40
1
 40
1
 40
1
 40
1
 10
19.213935
 20
170.597208
 30
0.0
 10
19.534340
 20
170.918753
 30
0.0
 10
18.844187
 20
170.699651
 30
0.0
 10
18.704229
 20
170.763999
 30
0.0
  0
SPLINE
  5
137
100
AcDbEntity
  8
0
 62
7
100
AcDbSpline
 70
8
 71
3
 72
8
 73
4
 74
0
 40
0
 40
0
 40
0
 40
0
 40
1
 40
1
 40
1
 40
1
 10
23.582983
 20
163.692054
 30
0.0
 10
22.851688
 20
162.995881
 30
0.0
 10
21.497611
 20
160.966467
 30
0.0
 10
20.738024
 20
161.051354
 30
0.0
  0
SPLINE
  5
138
100
AcDbEntity
  8
0
 62
7
100
AcDbSpline
 70
8
 71
3
 72
8
 73
4
 74
0
 40
0
 40
0
 40
0
 40
0
 40
1
 40
1
 40
1
 40
1
 10
20.738024
 20
161.051354
 30
0.0
 10
20.540265
 20
162.520117
 30
0.0
 10
22.812411
 20
162.702798
 30
0.0
 10
23.582983
 20
163.692054
 30
0.0
  0
LWPOLYLINE
  5
139
100
AcDbEntity
  8
0
 62
7
100
AcDbPolyline
 90
2
 70
0
 10
18.704229
 20
170.763999
 30
0.0
 10
18.704229
 20
170.763999
 30
0.0
  0
SPLINE
  5
13a
100
AcDbEntity
  8
0
 62
7
100
AcDbSpline
 70
8
 71
3
 72
8
 73
4
 74
0
 40
0
 40
0
 40
0
 40
0
 40
1
 40
1
 40
1
 40
1
 10
20.205028
 20
161.111806
 30
0.0
 10
21.207930
 20
160.206271
 30
0.0
 10
17.766694
 20
157.458032
 30
0.0
 10
19.361652
 20
159.795770
 30
0.0
  0
SPLINE
  5
13b
100
AcDbEntity
  8
0
 62
7
100
AcDbSpline
 70
8
 71
3
 72
8
 73
4
 74
0
 40
0
 40
0
 40
0
 40
0
 40
1
 40
1
 40
1
 40
1
 10
19.361652
 20
159.795770
 30
0.0
 10
19.615124
 20
160.253223
 30
0.0
 10
19.924072
 20
160.673270
 30
0.0
 10
20.205028
 20
161.111806
 30
0.0
  0
LWPOLYLINE
  5
13c
100
AcDbEntity
  8
0
 62
7
100
AcDbPolyline
 90
2
 70
0
 10
23.582983
 20
163.692054
 30
0.0
 10
23.582983
 20
163.692054
 30
0.0
  0
SPLINE
  5
13d
100
AcDbEntity
  8
0
 62
7
100
AcDbSpline
 70
8
 71
3
 72
8
 73
4
 74
0
 40
0
 40
0
 40
0
 40
0
 40
1
 40
1
 40
1
 40
1
 10
28.359117
 20
160.263968
 30
0.0
 10
27.004844
 20
158.833526
 30
0.0
 10
25.080405
 20
157.240349
 30
0.0
 10
23.476961
 20
155.789167
 30
0.0
  0
SPLINE
  5
13e
100
AcDbEntity
  8
0
 62
7
100
AcDbSpline
 70
8
 71
3
 72
8
 73
4
 74
0
 40
0
 40
0
 40
0
 40
0
 40
1
 40
1
 40
1
 40
1
 10
23.476961
 20
155.789167
 30
0.0
 10
22.759912
 20
155.047378
 30
0.0
 10
21.465346
 20
153.829429
 30
0.0
 10
22.153747
 20
155.799392
 30
0.0
  0
SPLINE
  5
13f
100
AcDbEntity
  8
0
 62
7
100
AcDbSpline
 70
8
 71
3
 72
8
 73
4
 74
0
 40
0
 40
0
 40
0
 40
0
 40
1
 40
1
 40
1
 40
1
 10
22.153747
 20
155.799392
 30
0.0
 10
21.507572
 20
158.263666
 30
0.0
 10
25.039297
 20
159.071961
 30
0.0
 10
26.765673
 20
159.951927
 30
0.0
  0
SPLINE
  5
140
100
AcDbEntity
  8
0
 62
7
100
AcDbSpline
 70
8
 71
3
 72
8
 73
4
 74
0
 40
0
 40
0
 40
0
 40
0
 40
1
 40
1
 40
1
 40
1
 10
26.765673
 20
159.951927
 30
0.0
 10
27.297531
 20
160.051675
 30
0.0
 10
27.822219
 20
160.193172
 30
0.0
 10
28.359117
 20
160.263969
 30
0.0
  0
LWPOLYLINE
  5
141
100
AcDbEntity
  8
0
 62
7
100
AcDbPolyline
 90
2
 70
0
 10
20.205028
 20
161.111806
 30
0.0
 10
20.205028
 20
161.111806
 30
0.0
  0
SPLINE
  5
142
100
AcDbEntity
  8
0
 62
7
100
AcDbSpline
 70
8
 71
3
 72
8
 73
4
 74
0
 40
0
 40
0
 40
0
 40
0
 40
1
 40
1
 40
1
 40
1
 10
10.963484
 20
157.533665
 30
0.0
 10
12.141792
 20
155.493458
 30
0.0
 10
11.684255
 20
153.066778
 30
0.0
 10
10.517138
 20
151.127430
 30
0.0
  0
SPLINE
  5
143
100
AcDbEntity
  8
0
 62
7
100
AcDbSpline
 70
8
 71
3
 72
8
 73
4
 74
0
 40
0
 40
0
 40
0
 40
0
 40
1
 40
1
 40
1
 40
1
 10
10.517138
 20
151.127430
 30
0.0
 10
9.987592
 20
152.902472
 30
0.0
 10
10.902866
 20
155.398423
 30
0.0
 10
10.896365
 20
157.439673
 30
0.0
  0
LWPOLYLINE
  5
144
100
AcDbEntity
  8
0
 62
7
100
AcDbPolyline
 90
2
 70
0
 10
28.359117
 20
160.263969
 30
0.0
 10
28.359117
 20
160.263968
 30
0.0
  0
SPLINE
  5
145
100
AcDbEntity
  8
0
 62
7
100
AcDbSpline
 70
8
 71
3
 72
8
 73
4
 74
0
 40
0
 40
0
 40
0
 40
0
 40
1
 40
1
 40
1
 40
1
 10
13.475320
 20
155.948697
 30
0.0
 10
13.491485
 20
155.307511
 30
0.0
 10
11.871297
 20
153.553611
 30
0.0
 10
12.424684
 20
155.250999
 30
0.0
  0
SPLINE
  5
146
100
AcDbEntity
  8
0
 62
7
100
AcDbSpline
 70
8
 71
3
 72
8
 73
4
 74
0
 40
0
 40
0
 40
0
 40
0
 40
1
 40
1
 40
1
 40
1
 10
12.424684
 20
155.250999
 30
0.0
 10
12.712610
 20
155.573903
 30
0.0
 10
13.130203
 20
155.706714
 30
0.0
 10
13.475320
 20
155.948697
 30
0.0
  0
LWPOLYLINE
  5
147
100
AcDbEntity
  8
0
 62
7
100
AcDbPolyline
 90
4
 70
0
 10
10.896365
 20
157.439673
 30
0.0
 10
10.963484
 20
157.533663
 30
0.0
 10
10.963484
 20
157.533665
 30
0.0
 10
10.963484
 20
157.533665
 30
0.0
  0
SPLINE
  5
148
100
AcDbEntity
  8
0
 62
7
100
AcDbSpline
 70
8
 71
3
 72
8
 73
4
 74
0
 40
0
 40
0
 40
0
 40
0
 40
1
 40
1
 40
1
 40
1
 10
36.049814
 20
155.845992
 30
0.0
 10
35.367824
 20
155.118438
 30
0.0
 10
34.057175
 20
152.710408
 30
0.0
 10
33.287835
 20
152.986610
 30
0.0
  0
SPLINE
  5
149
100
AcDbEntity
  8
0
 62
7
100
AcDbSpline
 70
8
 71
3
 72
8
 73
4
 74
0
 40
0
 40
0
 40
0
 40
0
 40
1
 40
1
 40
1
 40
1
 10
33.287835
 20
152.986610
 30
0.0
 10
33.622406
 20
154.219408
 30
0.0
 10
35.251822
 20
154.862916
 30
0.0
 10
36.049814
 20
155.845992
 30
0.0
  0
LWPOLYLINE
  5
14a
100
AcDbEntity
  8
0
 62
7
100
AcDbPolyline
 90
2
 70
0
 10
13.475320
 20
155.948697
 30
0.0
 10
13.475320
 20
155.948697
 30
0.0
  0
SPLINE
  5
14b
100
AcDbEntity
  8
0
 62
7
100
AcDbSpline
 70
8
 71
3
 72
8
 73
4
 74
0
 40
0
 40
0
 40
0
 40
0
 40
1
 40
1
 40
1
 40
1
 10
20.436725
 20
155.448404
 30
0.0
 10
22.998658
 20
154.102891
 30
0.0
 10
19.016199
 20
151.917789
 30
0.0
 10
18.319762
 20
151.444944
 30
0.0
  0
SPLINE
  5
14c
100
AcDbEntity
  8
0
 62
7
100
AcDbSpline
 70
8
 71
3
 72
8
 73
4
 74
0
 40
0
 40
0
 40
0
 40
0
 40
1
 40
1
 40
1
 40
1
 10
18.319762
 20
151.444944
 30
0.0
 10
18.444291
 20
153.020745
 30
0.0
 10
19.615817
 20
154.198916
 30
0.0
 10
20.436725
 20
155.448404
 30
0.0
  0
LWPOLYLINE
  5
14d
100
AcDbEntity
  8
0
 62
7
100
AcDbPolyline
 90
2
 70
0
 10
36.049814
 20
155.845992
 30
0.0
 10
36.049814
 20
155.845992
 30
0.0
  0
SPLINE
  5
14e
100
AcDbEntity
  8
0
 62
7
100
AcDbSpline
 70
8
 71
3
 72
8
 73
4
 74
0
 40
0
 40
0
 40
0
 40
0
 40
1
 40
1
 40
1
 40
1
 10
11.924474
 20
154.229346
 30
0.0
 10
12.588035
 20
153.389739
 30
0.0
 10
10.830094
 20
152.336690
 30
0.0
 10
11.779795
 20
154.008359
 30
0.0
  0
LWPOLYLINE
  5
14f
100
AcDbEntity
  8
0
 62
7
100
AcDbPolyline
 90
2
 70
0
 10
20.436725
 20
155.448404
 30
0.0
 10
20.436725
 20
155.448404
 30
0.0
  0
SPLINE
  5
150
100
AcDbEntity
  8
0
 62
7
100
AcDbSpline
 70
8
 71
3
 72
8
 73
4
 74
0
 40
0
 40
0
 40
0
 40
0
 40
1
 40
1
 40
1
 40
1
 10
32.395343
 20
152.075671
 30
0.0
 10
32.843103
 20
151.089144
 30
0.0
 10
29.191280
 20
147.817377
 30
0.0
 10
31.144199
 20
150.277202
 30
0.0
  0
SPLINE
  5
151
100
AcDbEntity
  8
0
 62
7
100
AcDbSpline
 70
8
 71
3
 72
8
 73
4
 74
0
 40
0
 40
0
 40
0
 40
0
 40
1
 40
1
 40
1
 40
1
 10
31.144199
 20
150.277202
 30
0.0
 10
31.552315
 20
150.883033
 30
0.0
 10
31.979641
 20
151.475474
 30
0.0
 10
32.395343
 20
152.075671
 30
0.0
  0
LWPOLYLINE
  5
152
100
AcDbEntity
  8
0
 62
7
100
AcDbPolyline
 90
5
 70
0
 10
11.779795
 20
154.008359
 30
0.0
 10
11.890268
 20
154.213592
 30
0.0
 10
11.924474
 20
154.229346
 30
0.0
 10
11.924474
 20
154.229346
 30
0.0
 10
11.924474
 20
154.229346
 30
0.0
  0
SPLINE
  5
153
100
AcDbEntity
  8
0
 62
7
100
AcDbSpline
 70
8
 71
3
 72
8
 73
4
 74
0
 40
0
 40
0
 40
0
 40
0
 40
1
 40
1
 40
1
 40
1
 10
23.219685
 20
151.406870
 30
0.0
 10
23.304924
 20
150.047871
 30
0.0
 10
25.274796
 20
146.839389
 30
0.0
 10
22.729839
 20
146.449087
 30
0.0
  0
SPLINE
  5
154
100
AcDbEntity
  8
0
 62
7
100
AcDbSpline
 70
8
 71
3
 72
8
 73
4
 74
0
 40
0
 40
0
 40
0
 40
0
 40
1
 40
1
 40
1
 40
1
 10
22.729839
 20
146.449087
 30
0.0
 10
21.197921
 20
145.996105
 30
0.0
 10
18.265218
 20
143.813691
 30
0.0
 10
18.767387
 20
146.974321
 30
0.0
  0
SPLINE
  5
155
100
AcDbEntity
  8
0
 62
7
100
AcDbSpline
 70
8
 71
3
 72
8
 73
4
 74
0
 40
0
 40
0
 40
0
 40
0
 40
1
 40
1
 40
1
 40
1
 10
18.767387
 20
146.974321
 30
0.0
 10
18.083681
 20
149.406366
 30
0.0
 10
20.796097
 20
149.929945
 30
0.0
 10
22.295514
 20
150.982995
 30
0.0
  0
SPLINE
  5
156
100
AcDbEntity
  8
0
 62
7
100
AcDbSpline
 70
8
 71
3
 72
8
 73
4
 74
0
 40
0
 40
0
 40
0
 40
0
 40
1
 40
1
 40
1
 40
1
 10
22.295514
 20
150.982995
 30
0.0
 10
22.559360
 20
151.226869
 30
0.0
 10
22.955073
 20
151.173179
 30
0.0
 10
23.219685
 20
151.406870
 30
0.0
  0
LWPOLYLINE
  5
157
100
AcDbEntity
  8
0
 62
7
100
AcDbPolyline
 90
2
 70
0
 10
32.395343
 20
152.075671
 30
0.0
 10
32.395343
 20
152.075671
 30
0.0
  0
SPLINE
  5
158
100
AcDbEntity
  8
0
 62
7
100
AcDbSpline
 70
8
 71
3
 72
8
 73
4
 74
0
 40
0
 40
0
 40
0
 40
0
 40
1
 40
1
 40
1
 40
1
 10
16.858583
 20
149.835047
 30
0.0
 10
15.936454
 20
148.917254
 30
0.0
 10
15.058556
 20
147.266616
 30
0.0
 10
14.304454
 20
148.924019
 30
0.0
  0
SPLINE
  5
159
100
AcDbEntity
  8
0
 62
7
100
AcDbSpline
 70
8
 71
3
 72
8
 73
4
 74
0
 40
0
 40
0
 40
0
 40
0
 40
1
 40
1
 40
1
 40
1
 10
14.304454
 20
148.924019
 30
0.0
 10
13.234373
 20
149.988708
 30
0.0
 10
16.535870
 20
149.454387
 30
0.0
 10
16.858583
 20
149.835047
 30
0.0
  0
LWPOLYLINE
  5
15a
100
AcDbEntity
  8
0
 62
7
100
AcDbPolyline
 90
2
 70
0
 10
23.219685
 20
151.406870
 30
0.0
 10
23.219685
 20
151.406870
 30
0.0
  0
SPLINE
  5
15b
100
AcDbEntity
  8
0
 62
7
100
AcDbSpline
 70
8
 71
3
 72
8
 73
4
 74
0
 40
0
 40
0
 40
0
 40
0
 40
1
 40
1
 40
1
 40
1
 10
22.127008
 20
149.297933
 30
0.0
 10
19.950834
 20
148.399416
 30
0.0
 10
23.082364
 20
147.192811
 30
0.0
 10
22.127008
 20
149.297933
 30
0.0
  0
LWPOLYLINE
  5
15c
100
AcDbEntity
  8
0
 62
7
100
AcDbPolyline
 90
2
 70
0
 10
16.858583
 20
149.835047
 30
0.0
 10
16.858583
 20
149.835047
 30
0.0
  0
SPLINE
  5
15d
100
AcDbEntity
  8
0
 62
7
100
AcDbSpline
 70
8
 71
3
 72
8
 73
4
 74
0
 40
0
 40
0
 40
0
 40
0
 40
1
 40
1
 40
1
 40
1
 10
13.414742
 20
148.979373
 30
0.0
 10
13.181586
 20
148.432672
 30
0.0
 10
13.146671
 20
147.421484
 30
0.0
 10
13.622678
 20
147.002039
 30
0.0
  0
SPLINE
  5
15e
100
AcDbEntity
  8
0
 62
7
100
AcDbSpline
 70
8
 71
3
 72
8
 73
4
 74
0
 40
0
 40
0
 40
0
 40
0
 40
1
 40
1
 40
1
 40
1
 10
13.622678
 20
147.002039
 30
0.0
 10
13.156936
 20
147.695471
 30
0.0
 10
12.867026
 20
145.952067
 30
0.0
 10
12.869625
 20
145.511694
 30
0.0
  0
SPLINE
  5
15f
100
AcDbEntity
  8
0
 62
7
100
AcDbSpline
 70
8
 71
3
 72
8
 73
4
 74
0
 40
0
 40
0
 40
0
 40
0
 40
1
 40
1
 40
1
 40
1
 10
12.869625
 20
145.511694
 30
0.0
 10
10.674759
 20
143.387335
 30
0.0
 10
11.863576
 20
148.549696
 30
0.0
 10
13.414742
 20
148.979380
 30
0.0
  0
LWPOLYLINE
  5
160
100
AcDbEntity
  8
0
 62
7
100
AcDbPolyline
 90
2
 70
0
 10
22.127008
 20
149.297933
 30
0.0
 10
22.127008
 20
149.297933
 30
0.0
  0
SPLINE
  5
161
100
AcDbEntity
  8
0
 62
7
100
AcDbSpline
 70
8
 71
3
 72
8
 73
4
 74
0
 40
0
 40
0
 40
0
 40
0
 40
1
 40
1
 40
1
 40
1
 10
21.039639
 20
148.742369
 30
0.0
 10
19.009031
 20
148.159419
 30
0.0
 10
20.835847
 20
146.840676
 30
0.0
 10
21.039639
 20
148.742369
 30
0.0
  0
LWPOLYLINE
  5
162
100
AcDbEntity
  8
0
 62
7
100
AcDbPolyline
 90
3
 70
0
 10
13.414742
 20
148.979380
 30
0.0
 10
13.414742
 20
148.979373
 30
0.0
 10
13.414742
 20
148.979373
 30
0.0
  0
SPLINE
  5
163
100
AcDbEntity
  8
0
 62
7
100
AcDbSpline
 70
8
 71
3
 72
8
 73
4
 74
0
 40
0
 40
0
 40
0
 40
0
 40
1
 40
1
 40
1
 40
1
 10
10.081440
 20
148.300040
 30
0.0
 10
10.059669
 20
146.376800
 30
0.0
 10
12.735178
 20
144.412770
 30
0.0
 10
10.281541
 20
143.307966
 30
0.0
  0
SPLINE
  5
164
100
AcDbEntity
  8
0
 62
7
100
AcDbSpline
 70
8
 71
3
 72
8
 73
4
 74
0
 40
0
 40
0
 40
0
 40
0
 40
1
 40
1
 40
1
 40
1
 10
10.281541
 20
143.307966
 30
0.0
 10
9.568738
 20
141.600239
 30
0.0
 10
13.387273
 20
143.844058
 30
0.0
 10
10.950357
 20
142.612646
 30
0.0
  0
SPLINE
  5
165
100
AcDbEntity
  8
0
 62
7
100
AcDbSpline
 70
8
 71
3
 72
8
 73
4
 74
0
 40
0
 40
0
 40
0
 40
0
 40
1
 40
1
 40
1
 40
1
 10
10.950357
 20
142.612646
 30
0.0
 10
8.497726
 20
140.383937
 30
0.0
 10
9.977779
 20
144.798426
 30
0.0
 10
9.860242
 20
146.271683
 30
0.0
  0
SPLINE
  5
166
100
AcDbEntity
  8
0
 62
7
100
AcDbSpline
 70
8
 71
3
 72
8
 73
4
 74
0
 40
0
 40
0
 40
0
 40
0
 40
1
 40
1
 40
1
 40
1
 10
9.860242
 20
146.271683
 30
0.0
 10
9.928719
 20
146.948219
 30
0.0
 10
9.974076
 20
147.628130
 30
0.0
 10
10.081440
 20
148.300040
 30
0.0
  0
LWPOLYLINE
  5
167
100
AcDbEntity
  8
0
 62
7
100
AcDbPolyline
 90
2
 70
0
 10
21.039639
 20
148.742369
 30
0.0
 10
21.039639
 20
148.742369
 30
0.0
  0
SPLINE
  5
168
100
AcDbEntity
  8
0
 62
7
100
AcDbSpline
 70
8
 71
3
 72
8
 73
4
 74
0
 40
0
 40
0
 40
0
 40
0
 40
1
 40
1
 40
1
 40
1
 10
19.612560
 20
147.941966
 30
0.0
 10
18.201060
 20
147.154056
 30
0.0
 10
20.691243
 20
146.158424
 30
0.0
 10
19.612560
 20
147.941966
 30
0.0
  0
LWPOLYLINE
  5
169
100
AcDbEntity
  8
0
 62
7
100
AcDbPolyline
 90
2
 70
0
 10
10.081440
 20
148.300040
 30
0.0
 10
10.081440
 20
148.300040
 30
0.0
  0
SPLINE
  5
16a
100
AcDbEntity
  8
0
 62
7
100
AcDbSpline
 70
8
 71
3
 72
8
 73
4
 74
0
 40
0
 40
0
 40
0
 40
0
 40
1
 40
1
 40
1
 40
1
 10
25.294415
 20
147.502334
 30
0.0
 10
26.236286
 20
147.228396
 30
0.0
 10
26.729828
 20
144.703137
 30
0.0
 10
25.036321
 20
145.768013
 30
0.0
  0
SPLINE
  5
16b
100
AcDbEntity
  8
0
 62
7
100
AcDbSpline
 70
8
 71
3
 72
8
 73
4
 74
0
 40
0
 40
0
 40
0
 40
0
 40
1
 40
1
 40
1
 40
1
 10
25.036321
 20
145.768013
 30
0.0
 10
24.028129
 20
145.667886
 30
0.0
 10
21.565690
 20
144.238506
 30
0.0
 10
24.088584
 20
144.779890
 30
0.0
  0
SPLINE
  5
16c
100
AcDbEntity
  8
0
 62
7
100
AcDbSpline
 70
8
 71
3
 72
8
 73
4
 74
0
 40
0
 40
0
 40
0
 40
0
 40
1
 40
1
 40
1
 40
1
 10
24.088584
 20
144.779890
 30
0.0
 10
24.813062
 20
146.069747
 30
0.0
 10
25.472956
 20
145.188505
 30
0.0
 10
25.334014
 20
144.190034
 30
0.0
  0
SPLINE
  5
16d
100
AcDbEntity
  8
0
 62
7
100
AcDbSpline
 70
8
 71
3
 72
8
 73
4
 74
0
 40
0
 40
0
 40
0
 40
0
 40
1
 40
1
 40
1
 40
1
 10
25.334014
 20
144.190034
 30
0.0
 10
25.190801
 20
142.983023
 30
0.0
 10
23.538367
 20
144.934632
 30
0.0
 10
22.448648
 20
144.260073
 30
0.0
  0
SPLINE
  5
16e
100
AcDbEntity
  8
0
 62
7
100
AcDbSpline
 70
8
 71
3
 72
8
 73
4
 74
0
 40
0
 40
0
 40
0
 40
0
 40
1
 40
1
 40
1
 40
1
 10
22.448648
 20
144.260073
 30
0.0
 10
20.659851
 20
145.183516
 30
0.0
 10
19.471733
 20
141.369915
 30
0.0
 10
19.138553
 20
144.045093
 30
0.0
  0
SPLINE
  5
16f
100
AcDbEntity
  8
0
 62
7
100
AcDbSpline
 70
8
 71
3
 72
8
 73
4
 74
0
 40
0
 40
0
 40
0
 40
0
 40
1
 40
1
 40
1
 40
1
 10
19.138553
 20
144.045093
 30
0.0
 10
19.851257
 20
143.649017
 30
0.0
 10
21.258945
 20
144.582004
 30
0.0
 10
19.499374
 20
144.346961
 30
0.0
  0
SPLINE
  5
170
100
AcDbEntity
  8
0
 62
7
100
AcDbSpline
 70
8
 71
3
 72
8
 73
4
 74
0
 40
0
 40
0
 40
0
 40
0
 40
1
 40
1
 40
1
 40
1
 10
19.499374
 20
144.346961
 30
0.0
 10
17.733953
 20
145.177064
 30
0.0
 10
21.813609
 20
144.128191
 30
0.0
 10
22.209896
 20
145.066441
 30
0.0
  0
SPLINE
  5
171
100
AcDbEntity
  8
0
 62
7
100
AcDbSpline
 70
8
 71
3
 72
8
 73
4
 74
0
 40
0
 40
0
 40
0
 40
0
 40
1
 40
1
 40
1
 40
1
 10
22.209896
 20
145.066441
 30
0.0
 10
23.556557
 20
145.717062
 30
0.0
 10
24.789702
 20
146.187840
 30
0.0
 10
25.294415
 20
147.502334
 30
0.0
  0
LWPOLYLINE
  5
172
100
AcDbEntity
  8
0
 62
7
100
AcDbPolyline
 90
2
 70
0
 10
19.612560
 20
147.941966
 30
0.0
 10
19.612560
 20
147.941966
 30
0.0
  0
SPLINE
  5
173
100
AcDbEntity
  8
0
 62
7
100
AcDbSpline
 70
8
 71
3
 72
8
 73
4
 74
0
 40
0
 40
0
 40
0
 40
0
 40
1
 40
1
 40
1
 40
1
 10
22.227100
 20
146.873047
 30
0.0
 10
21.550234
 20
146.550812
 30
0.0
 10
22.778078
 20
146.409409
 30
0.0
 10
22.227100
 20
146.873047
 30
0.0
  0
LWPOLYLINE
  5
174
100
AcDbEntity
  8
0
 62
7
100
AcDbPolyline
 90
2
 70
0
 10
25.294415
 20
147.502334
 30
0.0
 10
25.294415
 20
147.502334
 30
0.0
  0
SPLINE
  5
175
100
AcDbEntity
  8
0
 62
7
100
AcDbSpline
 70
8
 71
3
 72
8
 73
4
 74
0
 40
0
 40
0
 40
0
 40
0
 40
1
 40
1
 40
1
 40
1
 10
21.516173
 20
146.786184
 30
0.0
 10
20.667151
 20
145.993833
 30
0.0
 10
22.484029
 20
146.389831
 30
0.0
 10
21.516173
 20
146.786184
 30
0.0
  0
LWPOLYLINE
  5
176
100
AcDbEntity
  8
0
 62
7
100
AcDbPolyline
 90
2
 70
0
 10
22.227100
 20
146.873047
 30
0.0
 10
22.227100
 20
146.873047
 30
0.0
  0
SPLINE
  5
177
100
AcDbEntity
  8
0
 62
7
100
AcDbSpline
 70
8
 71
3
 72
8
 73
4
 74
0
 40
0
 40
0
 40
0
 40
0
 40
1
 40
1
 40
1
 40
1
 10
20.305036
 20
146.272745
 30
0.0
 10
19.608269
 20
145.700531
 30
0.0
 10
21.068098
 20
145.588528
 30
0.0
 10
20.305036
 20
146.272745
 30
0.0
  0
LWPOLYLINE
  5
178
100
AcDbEntity
  8
0
 62
7
100
AcDbPolyline
 90
2
 70
0
 10
21.516173
 20
146.786184
 30
0.0
 10
21.516173
 20
146.786184
 30
0.0
  0
SPLINE
  5
179
100
AcDbEntity
  8
0
 62
7
100
AcDbSpline
 70
8
 71
3
 72
8
 73
4
 74
0
 40
0
 40
0
 40
0
 40
0
 40
1
 40
1
 40
1
 40
1
 10
19.875852
 20
145.917282
 30
0.0
 10
19.368418
 20
145.473267
 30
0.0
 10
20.383957
 20
145.561348
 30
0.0
 10
19.875852
 20
145.917282
 30
0.0
  0
LWPOLYLINE
  5
17a
100
AcDbEntity
  8
0
 62
7
100
AcDbPolyline
 90
2
 70
0
 10
20.305036
 20
146.272745
 30
0.0
 10
20.305036
 20
146.272745
 30
0.0
  0
SPLINE
  5
17b
100
AcDbEntity
  8
0
 62
7
100
AcDbSpline
 70
8
 71
3
 72
8
 73
4
 74
0
 40
0
 40
0
 40
0
 40
0
 40
1
 40
1
 40
1
 40
1
 10
19.760003
 20
142.668320
 30
0.0
 10
20.057996
 20
141.302554
 30
0.0
 10
21.544060
 20
140.670966
 30
0.0
 10
21.580942
 20
139.729046
 30
0.0
  0
SPLINE
  5
17c
100
AcDbEntity
  8
0
 62
7
100
AcDbSpline
 70
8
 71
3
 72
8
 73
4
 74
0
 40
0
 40
0
 40
0
 40
0
 40
1
 40
1
 40
1
 40
1
 10
21.580942
 20
139.729046
 30
0.0
 10
20.722841
 20
140.034803
 30
0.0
 10
20.223643
 20
141.777570
 30
0.0
 10
19.760003
 20
142.668320
 30
0.0
  0
LWPOLYLINE
  5
17d
100
AcDbEntity
  8
0
 62
7
100
AcDbPolyline
 90
2
 70
0
 10
19.875852
 20
145.917282
 30
0.0
 10
19.875852
 20
145.917282
 30
0.0
  0
SPLINE
  5
17e
100
AcDbEntity
  8
0
 62
7
100
AcDbSpline
 70
8
 71
3
 72
8
 73
4
 74
0
 40
0
 40
0
 40
0
 40
0
 40
1
 40
1
 40
1
 40
1
 10
13.146143
 20
142.273342
 30
0.0
 10
12.824632
 20
141.433172
 30
0.0
 10
13.551659
 20
138.623734
 30
0.0
 10
13.180432
 20
138.992697
 30
0.0
  0
SPLINE
  5
17f
100
AcDbEntity
  8
0
 62
7
100
AcDbSpline
 70
8
 71
3
 72
8
 73
4
 74
0
 40
0
 40
0
 40
0
 40
0
 40
1
 40
1
 40
1
 40
1
 10
13.180432
 20
138.992697
 30
0.0
 10
12.719365
 20
139.988425
 30
0.0
 10
12.666385
 20
141.276157
 30
0.0
 10
13.146143
 20
142.273342
 30
0.0
  0
LWPOLYLINE
  5
180
100
AcDbEntity
  8
0
 62
7
100
AcDbPolyline
 90
2
 70
0
 10
19.760003
 20
142.668320
 30
0.0
 10
19.760003
 20
142.668320
 30
0.0
  0
SPLINE
  5
181
100
AcDbEntity
  8
0
 62
7
100
AcDbSpline
 70
8
 71
3
 72
8
 73
4
 74
0
 40
0
 40
0
 40
0
 40
0
 40
1
 40
1
 40
1
 40
1
 10
25.312867
 20
141.001626
 30
0.0
 10
25.990634
 20
140.165379
 30
0.0
 10
27.334777
 20
138.013104
 30
0.0
 10
26.948266
 20
137.428179
 30
0.0
  0
SPLINE
  5
182
100
AcDbEntity
  8
0
 62
7
100
AcDbSpline
 70
8
 71
3
 72
8
 73
4
 74
0
 40
0
 40
0
 40
0
 40
0
 40
1
 40
1
 40
1
 40
1
 10
26.948266
 20
137.428179
 30
0.0
 10
26.394685
 20
138.557714
 30
0.0
 10
25.749793
 20
139.877094
 30
0.0
 10
25.312867
 20
141.001626
 30
0.0
  0
LWPOLYLINE
  5
183
100
AcDbEntity
  8
0
 62
7
100
AcDbPolyline
 90
2
 70
0
 10
13.146143
 20
142.273342
 30
0.0
 10
13.146143
 20
142.273342
 30
0.0
  0
SPLINE
  5
184
100
AcDbEntity
  8
0
 62
7
100
AcDbSpline
 70
8
 71
3
 72
8
 73
4
 74
0
 40
0
 40
0
 40
0
 40
0
 40
1
 40
1
 40
1
 40
1
 10
24.786285
 20
140.959499
 30
0.0
 10
25.275399
 20
140.033680
 30
0.0
 10
27.000336
 20
137.315146
 30
0.0
 10
26.354508
 20
137.165345
 30
0.0
  0
SPLINE
  5
185
100
AcDbEntity
  8
0
 62
7
100
AcDbSpline
 70
8
 71
3
 72
8
 73
4
 74
0
 40
0
 40
0
 40
0
 40
0
 40
1
 40
1
 40
1
 40
1
 10
26.354508
 20
137.165345
 30
0.0
 10
25.936782
 20
138.457641
 30
0.0
 10
25.064857
 20
139.687543
 30
0.0
 10
24.786285
 20
140.959499
 30
0.0
  0
LWPOLYLINE
  5
186
100
AcDbEntity
  8
0
 62
7
100
AcDbPolyline
 90
2
 70
0
 10
25.312867
 20
141.001626
 30
0.0
 10
25.312867
 20
141.001626
 30
0.0
  0
SPLINE
  5
187
100
AcDbEntity
  8
0
 62
7
100
AcDbSpline
 70
8
 71
3
 72
8
 73
4
 74
0
 40
0
 40
0
 40
0
 40
0
 40
1
 40
1
 40
1
 40
1
 10
23.838440
 20
140.888472
 30
0.0
 10
24.086535
 20
139.726529
 30
0.0
 10
24.687657
 20
137.731037
 30
0.0
 10
24.457195
 20
136.865222
 30
0.0
  0
SPLINE
  5
188
100
AcDbEntity
  8
0
 62
7
100
AcDbSpline
 70
8
 71
3
 72
8
 73
4
 74
0
 40
0
 40
0
 40
0
 40
0
 40
1
 40
1
 40
1
 40
1
 10
24.457195
 20
136.865222
 30
0.0
 10
24.104172
 20
138.154212
 30
0.0
 10
23.910292
 20
139.587340
 30
0.0
 10
23.838440
 20
140.888472
 30
0.0
  0
LWPOLYLINE
  5
189
100
AcDbEntity
  8
0
 62
7
100
AcDbPolyline
 90
2
 70
0
 10
24.786285
 20
140.959499
 30
0.0
 10
24.786285
 20
140.959499
 30
0.0
  0
SPLINE
  5
18a
100
AcDbEntity
  8
0
 62
7
100
AcDbSpline
 70
8
 71
3
 72
8
 73
4
 74
0
 40
0
 40
0
 40
0
 40
0
 40
1
 40
1
 40
1
 40
1
 10
26.078980
 20
140.875264
 30
0.0
 10
27.146593
 20
140.331486
 30
0.0
 10
28.371131
 20
135.916258
 30
0.0
 10
26.965331
 20
138.887149
 30
0.0
  0
SPLINE
  5
18b
100
AcDbEntity
  8
0
 62
7
100
AcDbSpline
 70
8
 71
3
 72
8
 73
4
 74
0
 40
0
 40
0
 40
0
 40
0
 40
1
 40
1
 40
1
 40
1
 10
26.965331
 20
138.887149
 30
0.0
 10
26.802381
 20
139.585164
 30
0.0
 10
26.171044
 20
140.222216
 30
0.0
 10
26.078980
 20
140.875264
 30
0.0
  0
LWPOLYLINE
  5
18c
100
AcDbEntity
  8
0
 62
7
100
AcDbPolyline
 90
2
 70
0
 10
23.838440
 20
140.888472
 30
0.0
 10
23.838440
 20
140.888472
 30
0.0
  0
SPLINE
  5
18d
100
AcDbEntity
  8
0
 62
7
100
AcDbSpline
 70
8
 71
3
 72
8
 73
4
 74
0
 40
0
 40
0
 40
0
 40
0
 40
1
 40
1
 40
1
 40
1
 10
26.647688
 20
140.851613
 30
0.0
 10
27.931034
 20
140.634398
 30
0.0
 10
28.957916
 20
136.231483
 30
0.0
 10
27.517623
 20
139.142332
 30
0.0
  0
SPLINE
  5
18e
100
AcDbEntity
  8
0
 62
7
100
AcDbSpline
 70
8
 71
3
 72
8
 73
4
 74
0
 40
0
 40
0
 40
0
 40
0
 40
1
 40
1
 40
1
 40
1
 10
27.517623
 20
139.142332
 30
0.0
 10
27.148016
 20
139.666932
 30
0.0
 10
26.747983
 20
140.197518
 30
0.0
 10
26.647688
 20
140.851613
 30
0.0
  0
LWPOLYLINE
  5
18f
100
AcDbEntity
  8
0
 62
7
100
AcDbPolyline
 90
2
 70
0
 10
26.078980
 20
140.875264
 30
0.0
 10
26.078980
 20
140.875264
 30
0.0
  0
SPLINE
  5
190
100
AcDbEntity
  8
0
 62
7
100
AcDbSpline
 70
8
 71
3
 72
8
 73
4
 74
0
 40
0
 40
0
 40
0
 40
0
 40
1
 40
1
 40
1
 40
1
 10
23.440850
 20
140.843683
 30
0.0
 10
23.568365
 20
139.741806
 30
0.0
 10
25.037482
 20
135.788437
 30
0.0
 10
22.902188
 20
137.961977
 30
0.0
  0
SPLINE
  5
191
100
AcDbEntity
  8
0
 62
7
100
AcDbSpline
 70
8
 71
3
 72
8
 73
4
 74
0
 40
0
 40
0
 40
0
 40
0
 40
1
 40
1
 40
1
 40
1
 10
22.902188
 20
137.961977
 30
0.0
 10
22.760794
 20
138.557976
 30
0.0
 10
21.938673
 20
141.321988
 30
0.0
 10
23.440850
 20
140.843683
 30
0.0
  0
LWPOLYLINE
  5
192
100
AcDbEntity
  8
0
 62
7
100
AcDbPolyline
 90
2
 70
0
 10
26.647688
 20
140.851613
 30
0.0
 10
26.647688
 20
140.851613
 30
0.0
  0
SPLINE
  5
193
100
AcDbEntity
  8
0
 62
7
100
AcDbSpline
 70
8
 71
3
 72
8
 73
4
 74
0
 40
0
 40
0
 40
0
 40
0
 40
1
 40
1
 40
1
 40
1
 10
24.341260
 20
140.827935
 30
0.0
 10
24.873282
 20
139.321723
 30
0.0
 10
26.839611
 20
136.328658
 30
0.0
 10
26.234342
 20
135.619002
 30
0.0
  0
SPLINE
  5
194
100
AcDbEntity
  8
0
 62
7
100
AcDbSpline
 70
8
 71
3
 72
8
 73
4
 74
0
 40
0
 40
0
 40
0
 40
0
 40
1
 40
1
 40
1
 40
1
 10
26.234342
 20
135.619002
 30
0.0
 10
24.409180
 20
136.496453
 30
0.0
 10
24.953828
 20
139.173873
 30
0.0
 10
24.341260
 20
140.827935
 30
0.0
  0
LWPOLYLINE
  5
195
100
AcDbEntity
  8
0
 62
7
100
AcDbPolyline
 90
2
 70
0
 10
23.440850
 20
140.843683
 30
0.0
 10
23.440850
 20
140.843683
 30
0.0
  0
SPLINE
  5
196
100
AcDbEntity
  8
0
 62
7
100
AcDbSpline
 70
8
 71
3
 72
8
 73
4
 74
0
 40
0
 40
0
 40
0
 40
0
 40
1
 40
1
 40
1
 40
1
 10
27.532344
 20
140.698942
 30
0.0
 10
28.324079
 20
140.442360
 30
0.0
 10
29.389852
 20
136.933189
 30
0.0
 10
28.259027
 20
139.253412
 30
0.0
  0
SPLINE
  5
197
100
AcDbEntity
  8
0
 62
7
100
AcDbSpline
 70
8
 71
3
 72
8
 73
4
 74
0
 40
0
 40
0
 40
0
 40
0
 40
1
 40
1
 40
1
 40
1
 10
28.259027
 20
139.253412
 30
0.0
 10
28.062315
 20
139.610990
 30
0.0
 10
27.424690
 20
140.294312
 30
0.0
 10
27.532344
 20
140.698942
 30
0.0
  0
LWPOLYLINE
  5
198
100
AcDbEntity
  8
0
 62
7
100
AcDbPolyline
 90
2
 70
0
 10
24.341260
 20
140.827935
 30
0.0
 10
24.341260
 20
140.827935
 30
0.0
  0
SPLINE
  5
199
100
AcDbEntity
  8
0
 62
7
100
AcDbSpline
 70
8
 71
3
 72
8
 73
4
 74
0
 40
0
 40
0
 40
0
 40
0
 40
1
 40
1
 40
1
 40
1
 10
22.284982
 20
140.609379
 30
0.0
 10
22.711897
 20
139.662371
 30
0.0
 10
22.149247
 20
137.459827
 30
0.0
 10
22.181689
 20
139.675235
 30
0.0
  0
SPLINE
  5
19a
100
AcDbEntity
  8
0
 62
7
100
AcDbSpline
 70
8
 71
3
 72
8
 73
4
 74
0
 40
0
 40
0
 40
0
 40
0
 40
1
 40
1
 40
1
 40
1
 10
22.181689
 20
139.675235
 30
0.0
 10
22.209358
 20
139.975169
 30
0.0
 10
22.150618
 20
140.333897
 30
0.0
 10
22.284982
 20
140.609379
 30
0.0
  0
LWPOLYLINE
  5
19b
100
AcDbEntity
  8
0
 62
7
100
AcDbPolyline
 90
2
 70
0
 10
27.532344
 20
140.698942
 30
0.0
 10
27.532344
 20
140.698942
 30
0.0
  0
SPLINE
  5
19c
100
AcDbEntity
  8
0
 62
7
100
AcDbSpline
 70
8
 71
3
 72
8
 73
4
 74
0
 40
0
 40
0
 40
0
 40
0
 40
1
 40
1
 40
1
 40
1
 10
28.222207
 20
140.522514
 30
0.0
 10
29.414219
 20
140.591266
 30
0.0
 10
30.004763
 20
139.691497
 30
0.0
 10
28.560547
 20
139.751511
 30
0.0
  0
SPLINE
  5
19d
100
AcDbEntity
  8
0
 62
7
100
AcDbSpline
 70
8
 71
3
 72
8
 73
4
 74
0
 40
0
 40
0
 40
0
 40
0
 40
1
 40
1
 40
1
 40
1
 10
28.560547
 20
139.751511
 30
0.0
 10
28.353726
 20
139.892972
 30
0.0
 10
28.121519
 20
140.303092
 30
0.0
 10
28.222207
 20
140.522514
 30
0.0
  0
LWPOLYLINE
  5
19e
100
AcDbEntity
  8
0
 62
7
100
AcDbPolyline
 90
2
 70
0
 10
22.284982
 20
140.609379
 30
0.0
 10
22.284982
 20
140.609379
 30
0.0
  0
SPLINE
  5
19f
100
AcDbEntity
  8
0
 62
7
100
AcDbSpline
 70
8
 71
3
 72
8
 73
4
 74
0
 40
0
 40
0
 40
0
 40
0
 40
1
 40
1
 40
1
 40
1
 10
21.871637
 20
140.409281
 30
0.0
 10
22.168425
 20
139.039987
 30
0.0
 10
21.596776
 20
138.711297
 30
0.0
 10
21.858513
 20
140.385518
 30
0.0
  0
LWPOLYLINE
  5
1a0
100
AcDbEntity
  8
0
 62
7
100
AcDbPolyline
 90
2
 70
0
 10
28.222207
 20
140.522514
 30
0.0
 10
28.222207
 20
140.522514
 30
0.0
  0
SPLINE
  5
1a1
100
AcDbEntity
  8
0
 62
7
100
AcDbSpline
 70
8
 71
3
 72
8
 73
4
 74
0
 40
0
 40
0
 40
0
 40
0
 40
1
 40
1
 40
1
 40
1
 10
17.840636
 20
139.532541
 30
0.0
 10
18.837666
 20
139.452824
 30
0.0
 10
21.316387
 20
138.847486
 30
0.0
 10
21.250272
 20
138.118525
 30
0.0
  0
SPLINE
  5
1a2
100
AcDbEntity
  8
0
 62
7
100
AcDbSpline
 70
8
 71
3
 72
8
 73
4
 74
0
 40
0
 40
0
 40
0
 40
0
 40
1
 40
1
 40
1
 40
1
 10
21.250272
 20
138.118525
 30
0.0
 10
20.869703
 20
138.499971
 30
0.0
 10
16.128407
 20
139.120905
 30
0.0
 10
17.840636
 20
139.532541
 30
0.0
  0
LWPOLYLINE
  5
1a3
100
AcDbEntity
  8
0
 62
7
100
AcDbPolyline
 90
4
 70
0
 10
21.858513
 20
140.385518
 30
0.0
 10
21.871654
 20
140.409281
 30
0.0
 10
21.871638
 20
140.409278
 30
0.0
 10
21.871637
 20
140.409281
 30
0.0
  0
SPLINE
  5
1a4
100
AcDbEntity
  8
0
 62
7
100
AcDbSpline
 70
8
 71
3
 72
8
 73
4
 74
0
 40
0
 40
0
 40
0
 40
0
 40
1
 40
1
 40
1
 40
1
 10
29.733452
 20
139.458821
 30
0.0
 10
30.087398
 20
137.721871
 30
0.0
 10
28.005754
 20
139.035327
 30
0.0
 10
29.733452
 20
139.458821
 30
0.0
  0
LWPOLYLINE
  5
1a5
100
AcDbEntity
  8
0
 62
7
100
AcDbPolyline
 90
2
 70
0
 10
17.840636
 20
139.532541
 30
0.0
 10
17.840636
 20
139.532541
 30
0.0
  0
SPLINE
  5
1a6
100
AcDbEntity
  8
0
 62
7
100
AcDbSpline
 70
8
 71
3
 72
8
 73
4
 74
0
 40
0
 40
0
 40
0
 40
0
 40
1
 40
1
 40
1
 40
1
 10
16.068711
 20
139.445698
 30
0.0
 10
17.668351
 20
139.114177
 30
0.0
 10
13.254231
 20
138.443293
 30
0.0
 10
15.418208
 20
139.209117
 30
0.0
  0
LWPOLYLINE
  5
1a7
100
AcDbEntity
  8
0
 62
7
100
AcDbPolyline
 90
2
 70
0
 10
29.733452
 20
139.458821
 30
0.0
 10
29.733452
 20
139.458821
 30
0.0
  0
SPLINE
  5
1a8
100
AcDbEntity
  8
0
 62
7
100
AcDbSpline
 70
8
 71
3
 72
8
 73
4
 74
0
 40
0
 40
0
 40
0
 40
0
 40
1
 40
1
 40
1
 40
1
 10
32.800852
 20
139.242902
 30
0.0
 10
34.191059
 20
138.413894
 30
0.0
 10
33.037159
 20
136.342953
 30
0.0
 10
31.514181
 20
136.192878
 30
0.0
  0
SPLINE
  5
1a9
100
AcDbEntity
  8
0
 62
7
100
AcDbSpline
 70
8
 71
3
 72
8
 73
4
 74
0
 40
0
 40
0
 40
0
 40
0
 40
1
 40
1
 40
1
 40
1
 10
31.514181
 20
136.192878
 30
0.0
 10
30.967607
 20
136.228890
 30
0.0
 10
31.283673
 20
139.877066
 30
0.0
 10
32.800852
 20
139.242902
 30
0.0
  0
LWPOLYLINE
  5
1aa
100
AcDbEntity
  8
0
 62
7
100
AcDbPolyline
 90
5
 70
0
 10
15.418208
 20
139.209117
 30
0.0
 10
15.744439
 20
139.376960
 30
0.0
 10
16.068726
 20
139.445721
 30
0.0
 10
16.068711
 20
139.445698
 30
0.0
 10
16.068711
 20
139.445698
 30
0.0
  0
SPLINE
  5
1ab
100
AcDbEntity
  8
0
 62
7
100
AcDbSpline
 70
8
 71
3
 72
8
 73
4
 74
0
 40
0
 40
0
 40
0
 40
0
 40
1
 40
1
 40
1
 40
1
 10
10.744932
 20
138.626842
 30
0.0
 10
11.727033
 20
138.647754
 30
0.0
 10
14.116751
 20
136.383305
 30
0.0
 10
13.695873
 20
136.590470
 30
0.0
  0
SPLINE
  5
1ac
100
AcDbEntity
  8
0
 62
7
100
AcDbSpline
 70
8
 71
3
 72
8
 73
4
 74
0
 40
0
 40
0
 40
0
 40
0
 40
1
 40
1
 40
1
 40
1
 10
13.695873
 20
136.590470
 30
0.0
 10
12.488014
 20
136.992919
 30
0.0
 10
10.108023
 20
139.514340
 30
0.0
 10
9.676002
 20
137.889626
 30
0.0
  0
SPLINE
  5
1ad
100
AcDbEntity
  8
0
 62
7
100
AcDbSpline
 70
8
 71
3
 72
8
 73
4
 74
0
 40
0
 40
0
 40
0
 40
0
 40
1
 40
1
 40
1
 40
1
 10
9.676002
 20
137.889626
 30
0.0
 10
10.788128
 20
136.971552
 30
0.0
 10
13.273933
 20
135.739635
 30
0.0
 10
13.460031
 20
134.900484
 30
0.0
  0
SPLINE
  5
1ae
100
AcDbEntity
  8
0
 62
7
100
AcDbSpline
 70
8
 71
3
 72
8
 73
4
 74
0
 40
0
 40
0
 40
0
 40
0
 40
1
 40
1
 40
1
 40
1
 10
13.460031
 20
134.900484
 30
0.0
 10
11.536475
 20
134.374201
 30
0.0
 10
7.580362
 20
135.830877
 30
0.0
 10
9.325846
 20
138.247617
 30
0.0
  0
SPLINE
  5
1af
100
AcDbEntity
  8
0
 62
7
100
AcDbSpline
 70
8
 71
3
 72
8
 73
4
 74
0
 40
0
 40
0
 40
0
 40
0
 40
1
 40
1
 40
1
 40
1
 10
9.325846
 20
138.247617
 30
0.0
 10
9.725666
 20
138.542336
 30
0.0
 10
10.283203
 20
138.482045
 30
0.0
 10
10.744932
 20
138.626842
 30
0.0
  0
LWPOLYLINE
  5
1b0
100
AcDbEntity
  8
0
 62
7
100
AcDbPolyline
 90
2
 70
0
 10
32.800852
 20
139.242902
 30
0.0
 10
32.800852
 20
139.242902
 30
0.0
  0
SPLINE
  5
1b1
100
AcDbEntity
  8
0
 62
7
100
AcDbSpline
 70
8
 71
3
 72
8
 73
4
 74
0
 40
0
 40
0
 40
0
 40
0
 40
1
 40
1
 40
1
 40
1
 10
16.871727
 20
138.329345
 30
0.0
 10
17.750456
 20
138.287709
 30
0.0
 10
16.560618
 20
137.431915
 30
0.0
 10
16.871727
 20
138.329345
 30
0.0
  0
LWPOLYLINE
  5
1b2
100
AcDbEntity
  8
0
 62
7
100
AcDbPolyline
 90
2
 70
0
 10
10.744932
 20
138.626842
 30
0.0
 10
10.744932
 20
138.626842
 30
0.0
  0
SPLINE
  5
1b3
100
AcDbEntity
  8
0
 62
7
100
AcDbSpline
 70
8
 71
3
 72
8
 73
4
 74
0
 40
0
 40
0
 40
0
 40
0
 40
1
 40
1
 40
1
 40
1
 10
16.055568
 20
138.326805
 30
0.0
 10
16.551476
 20
136.986501
 30
0.0
 10
13.895932
 20
138.469192
 30
0.0
 10
15.721249
 20
137.858192
 30
0.0
  0
SPLINE
  5
1b4
100
AcDbEntity
  8
0
 62
7
100
AcDbSpline
 70
8
 71
3
 72
8
 73
4
 74
0
 40
0
 40
0
 40
0
 40
0
 40
1
 40
1
 40
1
 40
1
 10
15.721249
 20
137.858192
 30
0.0
 10
16.044025
 20
137.872642
 30
0.0
 10
15.773137
 20
138.308399
 30
0.0
 10
16.055568
 20
138.326805
 30
0.0
  0
LWPOLYLINE
  5
1b5
100
AcDbEntity
  8
0
 62
7
100
AcDbPolyline
 90
2
 70
0
 10
16.871727
 20
138.329345
 30
0.0
 10
16.871727
 20
138.329345
 30
0.0
  0
SPLINE
  5
1b6
100
AcDbEntity
  8
0
 62
7
100
AcDbSpline
 70
8
 71
3
 72
8
 73
4
 74
0
 40
0
 40
0
 40
0
 40
0
 40
1
 40
1
 40
1
 40
1
 10
17.798509
 20
138.242554
 30
0.0
 10
18.877882
 20
137.992491
 30
0.0
 10
17.496333
 20
137.421225
 30
0.0
 10
17.798509
 20
138.242554
 30
0.0
  0
LWPOLYLINE
  5
1b7
100
AcDbEntity
  8
0
 62
7
100
AcDbPolyline
 90
2
 70
0
 10
16.055568
 20
138.326805
 30
0.0
 10
16.055568
 20
138.326805
 30
0.0
  0
SPLINE
  5
1b8
100
AcDbEntity
  8
0
 62
7
100
AcDbSpline
 70
8
 71
3
 72
8
 73
4
 74
0
 40
0
 40
0
 40
0
 40
0
 40
1
 40
1
 40
1
 40
1
 10
18.754275
 20
137.987182
 30
0.0
 10
19.652596
 20
137.833456
 30
0.0
 10
18.552973
 20
137.168453
 30
0.0
 10
18.754275
 20
137.987182
 30
0.0
  0
LWPOLYLINE
  5
1b9
100
AcDbEntity
  8
0
 62
7
100
AcDbPolyline
 90
2
 70
0
 10
17.798509
 20
138.242554
 30
0.0
 10
17.798509
 20
138.242554
 30
0.0
  0
SPLINE
  5
1ba
100
AcDbEntity
  8
0
 62
7
100
AcDbSpline
 70
8
 71
3
 72
8
 73
4
 74
0
 40
0
 40
0
 40
0
 40
0
 40
1
 40
1
 40
1
 40
1
 10
19.854789
 20
137.629110
 30
0.0
 10
20.275021
 20
136.735304
 30
0.0
 10
19.076744
 20
137.644519
 30
0.0
 10
19.854789
 20
137.629110
 30
0.0
  0
LWPOLYLINE
  5
1bb
100
AcDbEntity
  8
0
 62
7
100
AcDbPolyline
 90
2
 70
0
 10
18.754275
 20
137.987182
 30
0.0
 10
18.754275
 20
137.987182
 30
0.0
  0
SPLINE
  5
1bc
100
AcDbEntity
  8
0
 62
7
100
AcDbSpline
 70
8
 71
3
 72
8
 73
4
 74
0
 40
0
 40
0
 40
0
 40
0
 40
1
 40
1
 40
1
 40
1
 10
29.296433
 20
137.484279
 30
0.0
 10
30.220150
 20
136.545966
 30
0.0
 10
29.239010
 20
136.511041
 30
0.0
 10
29.296433
 20
137.484279
 30
0.0
  0
LWPOLYLINE
  5
1bd
100
AcDbEntity
  8
0
 62
7
100
AcDbPolyline
 90
2
 70
0
 10
19.854789
 20
137.629110
 30
0.0
 10
19.854789
 20
137.629110
 30
0.0
  0
SPLINE
  5
1be
100
AcDbEntity
  8
0
 62
7
100
AcDbSpline
 70
8
 71
3
 72
8
 73
4
 74
0
 40
0
 40
0
 40
0
 40
0
 40
1
 40
1
 40
1
 40
1
 10
20.557796
 20
137.426395
 30
0.0
 10
21.112883
 20
137.045525
 30
0.0
 10
20.122536
 20
136.949383
 30
0.0
 10
20.557796
 20
137.426395
 30
0.0
  0
LWPOLYLINE
  5
1bf
100
AcDbEntity
  8
0
 62
7
100
AcDbPolyline
 90
2
 70
0
 10
29.296433
 20
137.484279
 30
0.0
 10
29.296433
 20
137.484279
 30
0.0
  0
SPLINE
  5
1c0
100
AcDbEntity
  8
0
 62
7
100
AcDbSpline
 70
8
 71
3
 72
8
 73
4
 74
0
 40
0
 40
0
 40
0
 40
0
 40
1
 40
1
 40
1
 40
1
 10
15.231405
 20
137.289484
 30
0.0
 10
16.122336
 20
135.971150
 30
0.0
 10
13.305664
 20
137.300518
 30
0.0
 10
15.231405
 20
137.289484
 30
0.0
  0
LWPOLYLINE
  5
1c1
100
AcDbEntity
  8
0
 62
7
100
AcDbPolyline
 90
2
 70
0
 10
20.557796
 20
137.426395
 30
0.0
 10
20.557796
 20
137.426395
 30
0.0
  0
SPLINE
  5
1c2
100
AcDbEntity
  8
0
 62
7
100
AcDbSpline
 70
8
 71
3
 72
8
 73
4
 74
0
 40
0
 40
0
 40
0
 40
0
 40
1
 40
1
 40
1
 40
1
 10
23.193314
 20
137.192089
 30
0.0
 10
24.456993
 20
137.181900
 30
0.0
 10
24.569778
 20
134.781346
 30
0.0
 10
23.463849
 20
136.575955
 30
0.0
  0
SPLINE
  5
1c3
100
AcDbEntity
  8
0
 62
7
100
AcDbSpline
 70
8
 71
3
 72
8
 73
4
 74
0
 40
0
 40
0
 40
0
 40
0
 40
1
 40
1
 40
1
 40
1
 10
23.463849
 20
136.575955
 30
0.0
 10
23.464272
 20
136.747521
 30
0.0
 10
23.112984
 20
137.102698
 30
0.0
 10
23.193314
 20
137.192089
 30
0.0
  0
LWPOLYLINE
  5
1c4
100
AcDbEntity
  8
0
 62
7
100
AcDbPolyline
 90
2
 70
0
 10
15.231405
 20
137.289484
 30
0.0
 10
15.231405
 20
137.289484
 30
0.0
  0
SPLINE
  5
1c5
100
AcDbEntity
  8
0
 62
7
100
AcDbSpline
 70
8
 71
3
 72
8
 73
4
 74
0
 40
0
 40
0
 40
0
 40
0
 40
1
 40
1
 40
1
 40
1
 10
21.458292
 20
137.142042
 30
0.0
 10
22.202705
 20
136.663131
 30
0.0
 10
20.807257
 20
136.773316
 30
0.0
 10
21.458292
 20
137.142042
 30
0.0
  0
LWPOLYLINE
  5
1c6
100
AcDbEntity
  8
0
 62
7
100
AcDbPolyline
 90
2
 70
0
 10
23.193314
 20
137.192089
 30
0.0
 10
23.193314
 20
137.192089
 30
0.0
  0
SPLINE
  5
1c7
100
AcDbEntity
  8
0
 62
7
100
AcDbSpline
 70
8
 71
3
 72
8
 73
4
 74
0
 40
0
 40
0
 40
0
 40
0
 40
1
 40
1
 40
1
 40
1
 10
28.825119
 20
137.107831
 30
0.0
 10
29.888840
 20
136.278897
 30
0.0
 10
28.353314
 20
136.145490
 30
0.0
 10
28.825119
 20
137.107831
 30
0.0
  0
LWPOLYLINE
  5
1c8
100
AcDbEntity
  8
0
 62
7
100
AcDbPolyline
 90
2
 70
0
 10
21.458292
 20
137.142042
 30
0.0
 10
21.458292
 20
137.142042
 30
0.0
  0
SPLINE
  5
1c9
100
AcDbEntity
  8
0
 62
7
100
AcDbSpline
 70
8
 71
3
 72
8
 73
4
 74
0
 40
0
 40
0
 40
0
 40
0
 40
1
 40
1
 40
1
 40
1
 10
18.943845
 20
137.031417
 30
0.0
 10
20.022020
 20
135.582502
 30
0.0
 10
20.033507
 20
133.492550
 30
0.0
 10
22.285814
 20
133.353900
 30
0.0
  0
SPLINE
  5
1ca
100
AcDbEntity
  8
0
 62
7
100
AcDbSpline
 70
8
 71
3
 72
8
 73
4
 74
0
 40
0
 40
0
 40
0
 40
0
 40
1
 40
1
 40
1
 40
1
 10
22.285814
 20
133.353900
 30
0.0
 10
23.764213
 20
131.961630
 30
0.0
 10
20.300510
 20
133.519542
 30
0.0
 10
19.640638
 20
133.793563
 30
0.0
  0
SPLINE
  5
1cb
100
AcDbEntity
  8
0
 62
7
100
AcDbSpline
 70
8
 71
3
 72
8
 73
4
 74
0
 40
0
 40
0
 40
0
 40
0
 40
1
 40
1
 40
1
 40
1
 10
19.640638
 20
133.793563
 30
0.0
 10
18.750389
 20
134.180233
 30
0.0
 10
15.642117
 20
134.318234
 30
0.0
 10
18.248927
 20
134.577633
 30
0.0
  0
SPLINE
  5
1cc
100
AcDbEntity
  8
0
 62
7
100
AcDbSpline
 70
8
 71
3
 72
8
 73
4
 74
0
 40
0
 40
0
 40
0
 40
0
 40
1
 40
1
 40
1
 40
1
 10
18.248927
 20
134.577633
 30
0.0
 10
19.310005
 20
134.229876
 30
0.0
 10
20.812080
 20
133.772664
 30
0.0
 10
19.589968
 20
135.364731
 30
0.0
  0
SPLINE
  5
1cd
100
AcDbEntity
  8
0
 62
7
100
AcDbSpline
 70
8
 71
3
 72
8
 73
4
 74
0
 40
0
 40
0
 40
0
 40
0
 40
1
 40
1
 40
1
 40
1
 10
19.589968
 20
135.364731
 30
0.0
 10
19.343498
 20
135.905119
 30
0.0
 10
19.042544
 20
136.438222
 30
0.0
 10
18.943845
 20
137.031417
 30
0.0
  0
LWPOLYLINE
  5
1ce
100
AcDbEntity
  8
0
 62
7
100
AcDbPolyline
 90
2
 70
0
 10
28.825119
 20
137.107831
 30
0.0
 10
28.825119
 20
137.107831
 30
0.0
  0
SPLINE
  5
1cf
100
AcDbEntity
  8
0
 62
7
100
AcDbSpline
 70
8
 71
3
 72
8
 73
4
 74
0
 40
0
 40
0
 40
0
 40
0
 40
1
 40
1
 40
1
 40
1
 10
34.030358
 20
137.015669
 30
0.0
 10
34.966193
 20
136.456307
 30
0.0
 10
33.724286
 20
136.071246
 30
0.0
 10
34.030358
 20
137.015669
 30
0.0
  0
LWPOLYLINE
  5
1d0
100
AcDbEntity
  8
0
 62
7
100
AcDbPolyline
 90
2
 70
0
 10
18.943845
 20
137.031417
 30
0.0
 10
18.943845
 20
137.031417
 30
0.0
  0
SPLINE
  5
1d1
100
AcDbEntity
  8
0
 62
7
100
AcDbSpline
 70
8
 71
3
 72
8
 73
4
 74
0
 40
0
 40
0
 40
0
 40
0
 40
1
 40
1
 40
1
 40
1
 10
22.108556
 20
136.907738
 30
0.0
 10
23.063412
 20
136.658979
 30
0.0
 10
21.670792
 20
136.128238
 30
0.0
 10
22.108556
 20
136.907738
 30
0.0
  0
LWPOLYLINE
  5
1d2
100
AcDbEntity
  8
0
 62
7
100
AcDbPolyline
 90
2
 70
0
 10
34.030358
 20
137.015669
 30
0.0
 10
34.030358
 20
137.015669
 30
0.0
  0
SPLINE
  5
1d3
100
AcDbEntity
  8
0
 62
7
100
AcDbSpline
 70
8
 71
3
 72
8
 73
4
 74
0
 40
0
 40
0
 40
0
 40
0
 40
1
 40
1
 40
1
 40
1
 10
19.831114
 20
136.849776
 30
0.0
 10
21.194184
 20
136.413113
 30
0.0
 10
21.478404
 20
132.422271
 30
0.0
 10
20.428804
 20
135.367514
 30
0.0
  0
SPLINE
  5
1d4
100
AcDbEntity
  8
0
 62
7
100
AcDbSpline
 70
8
 71
3
 72
8
 73
4
 74
0
 40
0
 40
0
 40
0
 40
0
 40
1
 40
1
 40
1
 40
1
 10
20.428804
 20
135.367514
 30
0.0
 10
20.356432
 20
135.885964
 30
0.0
 10
19.959664
 20
136.421165
 30
0.0
 10
19.831114
 20
136.849776
 30
0.0
  0
LWPOLYLINE
  5
1d5
100
AcDbEntity
  8
0
 62
7
100
AcDbPolyline
 90
2
 70
0
 10
22.108556
 20
136.907738
 30
0.0
 10
22.108556
 20
136.907738
 30
0.0
  0
SPLINE
  5
1d6
100
AcDbEntity
  8
0
 62
7
100
AcDbSpline
 70
8
 71
3
 72
8
 73
4
 74
0
 40
0
 40
0
 40
0
 40
0
 40
1
 40
1
 40
1
 40
1
 10
28.259027
 20
136.810256
 30
0.0
 10
29.488714
 20
135.689498
 30
0.0
 10
27.394801
 20
135.981937
 30
0.0
 10
28.259027
 20
136.810256
 30
0.0
  0
LWPOLYLINE
  5
1d7
100
AcDbEntity
  8
0
 62
7
100
AcDbPolyline
 90
2
 70
0
 10
19.831114
 20
136.849776
 30
0.0
 10
19.831114
 20
136.849776
 30
0.0
  0
SPLINE
  5
1d8
100
AcDbEntity
  8
0
 62
7
100
AcDbSpline
 70
8
 71
3
 72
8
 73
4
 74
0
 40
0
 40
0
 40
0
 40
0
 40
1
 40
1
 40
1
 40
1
 10
18.448859
 20
136.776054
 30
0.0
 10
19.543554
 20
136.188648
 30
0.0
 10
17.807127
 20
136.171706
 30
0.0
 10
18.448859
 20
136.776054
 30
0.0
  0
LWPOLYLINE
  5
1d9
100
AcDbEntity
  8
0
 62
7
100
AcDbPolyline
 90
2
 70
0
 10
28.259027
 20
136.810256
 30
0.0
 10
28.259027
 20
136.810256
 30
0.0
  0
SPLINE
  5
1da
100
AcDbEntity
  8
0
 62
7
100
AcDbSpline
 70
8
 71
3
 72
8
 73
4
 74
0
 40
0
 40
0
 40
0
 40
0
 40
1
 40
1
 40
1
 40
1
 10
27.642968
 20
136.478552
 30
0.0
 10
28.834633
 20
135.289569
 30
0.0
 10
26.934579
 20
135.599438
 30
0.0
 10
27.642968
 20
136.478552
 30
0.0
  0
LWPOLYLINE
  5
1db
100
AcDbEntity
  8
0
 62
7
100
AcDbPolyline
 90
2
 70
0
 10
18.448859
 20
136.776054
 30
0.0
 10
18.448859
 20
136.776054
 30
0.0
  0
SPLINE
  5
1dc
100
AcDbEntity
  8
0
 62
7
100
AcDbSpline
 70
8
 71
3
 72
8
 73
4
 74
0
 40
0
 40
0
 40
0
 40
0
 40
1
 40
1
 40
1
 40
1
 10
21.055394
 20
136.362705
 30
0.0
 10
21.796333
 20
135.707625
 30
0.0
 10
22.567759
 20
132.263165
 30
0.0
 10
21.429598
 20
134.882546
 30
0.0
  0
SPLINE
  5
1dd
100
AcDbEntity
  8
0
 62
7
100
AcDbSpline
 70
8
 71
3
 72
8
 73
4
 74
0
 40
0
 40
0
 40
0
 40
0
 40
1
 40
1
 40
1
 40
1
 10
21.429598
 20
134.882546
 30
0.0
 10
21.254890
 20
135.346985
 30
0.0
 10
20.955181
 20
135.856797
 30
0.0
 10
21.055394
 20
136.362705
 30
0.0
  0
LWPOLYLINE
  5
1de
100
AcDbEntity
  8
0
 62
7
100
AcDbPolyline
 90
2
 70
0
 10
27.642968
 20
136.478552
 30
0.0
 10
27.642968
 20
136.478552
 30
0.0
  0
SPLINE
  5
1df
100
AcDbEntity
  8
0
 62
7
100
AcDbSpline
 70
8
 71
3
 72
8
 73
4
 74
0
 40
0
 40
0
 40
0
 40
0
 40
1
 40
1
 40
1
 40
1
 10
33.161540
 20
136.333718
 30
0.0
 10
33.536252
 20
135.700716
 30
0.0
 10
31.029633
 20
134.490663
 30
0.0
 10
31.766121
 20
135.383194
 30
0.0
  0
SPLINE
  5
1e0
100
AcDbEntity
  8
0
 62
7
100
AcDbSpline
 70
8
 71
3
 72
8
 73
4
 74
0
 40
0
 40
0
 40
0
 40
0
 40
1
 40
1
 40
1
 40
1
 10
31.766121
 20
135.383194
 30
0.0
 10
30.267278
 20
135.125610
 30
0.0
 10
28.578522
 20
133.333668
 30
0.0
 10
27.311329
 20
133.597958
 30
0.0
  0
SPLINE
  5
1e1
100
AcDbEntity
  8
0
 62
7
100
AcDbSpline
 70
8
 71
3
 72
8
 73
4
 74
0
 40
0
 40
0
 40
0
 40
0
 40
1
 40
1
 40
1
 40
1
 10
27.311329
 20
133.597958
 30
0.0
 10
29.273870
 20
134.487556
 30
0.0
 10
31.257172
 20
135.362332
 30
0.0
 10
33.161523
 20
136.333735
 30
0.0
  0
LWPOLYLINE
  5
1e2
100
AcDbEntity
  8
0
 62
7
100
AcDbPolyline
 90
2
 70
0
 10
21.055394
 20
136.362705
 30
0.0
 10
21.055394
 20
136.362705
 30
0.0
  0
SPLINE
  5
1e3
100
AcDbEntity
  8
0
 62
7
100
AcDbSpline
 70
8
 71
3
 72
8
 73
4
 74
0
 40
0
 40
0
 40
0
 40
0
 40
1
 40
1
 40
1
 40
1
 10
21.818979
 20
136.196787
 30
0.0
 10
22.638315
 20
136.156325
 30
0.0
 10
24.696439
 20
134.787307
 30
0.0
 10
22.772049
 20
135.641151
 30
0.0
  0
SPLINE
  5
1e4
100
AcDbEntity
  8
0
 62
7
100
AcDbSpline
 70
8
 71
3
 72
8
 73
4
 74
0
 40
0
 40
0
 40
0
 40
0
 40
1
 40
1
 40
1
 40
1
 10
22.772049
 20
135.641151
 30
0.0
 10
22.460717
 20
135.780636
 30
0.0
 10
22.048422
 20
136.020607
 30
0.0
 10
21.818979
 20
136.196787
 30
0.0
  0
LWPOLYLINE
  5
1e5
100
AcDbEntity
  8
0
 62
7
100
AcDbPolyline
 90
3
 70
0
 10
33.161523
 20
136.333735
 30
0.0
 10
33.161540
 20
136.333718
 30
0.0
 10
33.161540
 20
136.333718
 30
0.0
  0
SPLINE
  5
1e6
100
AcDbEntity
  8
0
 62
7
100
AcDbSpline
 70
8
 71
3
 72
8
 73
4
 74
0
 40
0
 40
0
 40
0
 40
0
 40
1
 40
1
 40
1
 40
1
 10
24.688805
 20
136.175761
 30
0.0
 10
25.408315
 20
135.433850
 30
0.0
 10
24.240971
 20
135.143454
 30
0.0
 10
24.688805
 20
136.175761
 30
0.0
  0
LWPOLYLINE
  5
1e7
100
AcDbEntity
  8
0
 62
7
100
AcDbPolyline
 90
2
 70
0
 10
21.818979
 20
136.196787
 30
0.0
 10
21.818979
 20
136.196787
 30
0.0
  0
SPLINE
  5
1e8
100
AcDbEntity
  8
0
 62
7
100
AcDbSpline
 70
8
 71
3
 72
8
 73
4
 74
0
 40
0
 40
0
 40
0
 40
0
 40
1
 40
1
 40
1
 40
1
 10
27.066339
 20
136.128416
 30
0.0
 10
28.190408
 20
135.035346
 30
0.0
 10
26.186696
 20
135.474109
 30
0.0
 10
27.066339
 20
136.128416
 30
0.0
  0
LWPOLYLINE
  5
1e9
100
AcDbEntity
  8
0
 62
7
100
AcDbPolyline
 90
2
 70
0
 10
24.688805
 20
136.175761
 30
0.0
 10
24.688805
 20
136.175761
 30
0.0
  0
SPLINE
  5
1ea
100
AcDbEntity
  8
0
 62
7
100
AcDbSpline
 70
8
 71
3
 72
8
 73
4
 74
0
 40
0
 40
0
 40
0
 40
0
 40
1
 40
1
 40
1
 40
1
 10
18.464614
 20
136.009871
 30
0.0
 10
20.477763
 20
135.562109
 30
0.0
 10
17.587747
 20
135.247284
 30
0.0
 10
18.464614
 20
136.009871
 30
0.0
  0
LWPOLYLINE
  5
1eb
100
AcDbEntity
  8
0
 62
7
100
AcDbPolyline
 90
2
 70
0
 10
27.066339
 20
136.128416
 30
0.0
 10
27.066339
 20
136.128416
 30
0.0
  0
SPLINE
  5
1ec
100
AcDbEntity
  8
0
 62
7
100
AcDbSpline
 70
8
 71
3
 72
8
 73
4
 74
0
 40
0
 40
0
 40
0
 40
0
 40
1
 40
1
 40
1
 40
1
 10
21.832122
 20
135.854590
 30
0.0
 10
22.813352
 20
135.437674
 30
0.0
 10
24.489718
 20
134.678482
 30
0.0
 10
24.946871
 20
134.248474
 30
0.0
  0
SPLINE
  5
1ed
100
AcDbEntity
  8
0
 62
7
100
AcDbSpline
 70
8
 71
3
 72
8
 73
4
 74
0
 40
0
 40
0
 40
0
 40
0
 40
1
 40
1
 40
1
 40
1
 10
24.946871
 20
134.248474
 30
0.0
 10
23.981864
 20
134.323308
 30
0.0
 10
22.100525
 20
134.899623
 30
0.0
 10
21.832122
 20
135.854590
 30
0.0
  0
LWPOLYLINE
  5
1ee
100
AcDbEntity
  8
0
 62
7
100
AcDbPolyline
 90
2
 70
0
 10
18.464614
 20
136.009871
 30
0.0
 10
18.464614
 20
136.009871
 30
0.0
  0
SPLINE
  5
1ef
100
AcDbEntity
  8
0
 62
7
100
AcDbSpline
 70
8
 71
3
 72
8
 73
4
 74
0
 40
0
 40
0
 40
0
 40
0
 40
1
 40
1
 40
1
 40
1
 10
30.346983
 20
135.707148
 30
0.0
 10
30.961561
 20
135.475509
 30
0.0
 10
29.101240
 20
135.177598
 30
0.0
 10
30.346983
 20
135.707148
 30
0.0
  0
LWPOLYLINE
  5
1f0
100
AcDbEntity
  8
0
 62
7
100
AcDbPolyline
 90
2
 70
0
 10
21.832122
 20
135.854590
 30
0.0
 10
21.832122
 20
135.854590
 30
0.0
  0
SPLINE
  5
1f1
100
AcDbEntity
  8
0
 62
7
100
AcDbSpline
 70
8
 71
3
 72
8
 73
4
 74
0
 40
0
 40
0
 40
0
 40
0
 40
1
 40
1
 40
1
 40
1
 10
34.333160
 20
135.641261
 30
0.0
 10
34.506797
 20
134.791667
 30
0.0
 10
31.932203
 20
133.921991
 30
0.0
 10
33.816928
 20
135.277792
 30
0.0
  0
LWPOLYLINE
  5
1f2
100
AcDbEntity
  8
0
 62
7
100
AcDbPolyline
 90
2
 70
0
 10
30.346983
 20
135.707148
 30
0.0
 10
30.346983
 20
135.707148
 30
0.0
  0
SPLINE
  5
1f3
100
AcDbEntity
  8
0
 62
7
100
AcDbSpline
 70
8
 71
3
 72
8
 73
4
 74
0
 40
0
 40
0
 40
0
 40
0
 40
1
 40
1
 40
1
 40
1
 10
25.510271
 20
135.630734
 30
0.0
 10
26.953205
 20
135.190919
 30
0.0
 10
24.988167
 20
134.683260
 30
0.0
 10
25.510271
 20
135.630734
 30
0.0
  0
LWPOLYLINE
  5
1f4
100
AcDbEntity
  8
0
 62
7
100
AcDbPolyline
 90
5
 70
0
 10
33.816928
 20
135.277792
 30
0.0
 10
34.190844
 20
135.596351
 30
0.0
 10
34.333146
 20
135.641258
 30
0.0
 10
34.333160
 20
135.641261
 30
0.0
 10
34.333160
 20
135.641261
 30
0.0
  0
SPLINE
  5
1f5
100
AcDbEntity
  8
0
 62
7
100
AcDbSpline
 70
8
 71
3
 72
8
 73
4
 74
0
 40
0
 40
0
 40
0
 40
0
 40
1
 40
1
 40
1
 40
1
 10
35.273087
 20
135.472763
 30
0.0
 10
36.627469
 20
135.610493
 30
0.0
 10
36.075617
 20
134.637563
 30
0.0
 10
35.985961
 20
134.424276
 30
0.0
  0
SPLINE
  5
1f6
100
AcDbEntity
  8
0
 62
7
100
AcDbSpline
 70
8
 71
3
 72
8
 73
4
 74
0
 40
0
 40
0
 40
0
 40
0
 40
1
 40
1
 40
1
 40
1
 10
35.985961
 20
134.424276
 30
0.0
 10
38.068783
 20
134.659362
 30
0.0
 10
37.328255
 20
132.054786
 30
0.0
 10
35.775931
 20
133.058154
 30
0.0
  0
SPLINE
  5
1f7
100
AcDbEntity
  8
0
 62
7
100
AcDbSpline
 70
8
 71
3
 72
8
 73
4
 74
0
 40
0
 40
0
 40
0
 40
0
 40
1
 40
1
 40
1
 40
1
 10
35.775931
 20
133.058154
 30
0.0
 10
35.338707
 20
134.168673
 30
0.0
 10
34.398811
 20
133.111852
 30
0.0
 10
34.885960
 20
134.824938
 30
0.0
  0
SPLINE
  5
1f8
100
AcDbEntity
  8
0
 62
7
100
AcDbSpline
 70
8
 71
3
 72
8
 73
4
 74
0
 40
0
 40
0
 40
0
 40
0
 40
1
 40
1
 40
1
 40
1
 10
34.885960
 20
134.824938
 30
0.0
 10
34.698237
 20
135.088379
 30
0.0
 10
32.583490
 20
133.393646
 30
0.0
 10
34.048740
 20
134.848617
 30
0.0
  0
SPLINE
  5
1f9
100
AcDbEntity
  8
0
 62
7
100
AcDbSpline
 70
8
 71
3
 72
8
 73
4
 74
0
 40
0
 40
0
 40
0
 40
0
 40
1
 40
1
 40
1
 40
1
 10
34.048740
 20
134.848617
 30
0.0
 10
34.392562
 20
135.157114
 30
0.0
 10
34.777265
 20
135.488962
 30
0.0
 10
35.273087
 20
135.472763
 30
0.0
  0
LWPOLYLINE
  5
1fa
100
AcDbEntity
  8
0
 62
7
100
AcDbPolyline
 90
2
 70
0
 10
25.510271
 20
135.630734
 30
0.0
 10
25.510271
 20
135.630734
 30
0.0
  0
SPLINE
  5
1fb
100
AcDbEntity
  8
0
 62
7
100
AcDbSpline
 70
8
 71
3
 72
8
 73
4
 74
0
 40
0
 40
0
 40
0
 40
0
 40
1
 40
1
 40
1
 40
1
 10
29.557111
 20
135.425411
 30
0.0
 10
30.363767
 20
135.353580
 30
0.0
 10
29.124145
 20
134.877960
 30
0.0
 10
29.557111
 20
135.425411
 30
0.0
  0
LWPOLYLINE
  5
1fc
100
AcDbEntity
  8
0
 62
7
100
AcDbPolyline
 90
2
 70
0
 10
35.273087
 20
135.472763
 30
0.0
 10
35.273087
 20
135.472763
 30
0.0
  0
SPLINE
  5
1fd
100
AcDbEntity
  8
0
 62
7
100
AcDbSpline
 70
8
 71
3
 72
8
 73
4
 74
0
 40
0
 40
0
 40
0
 40
0
 40
1
 40
1
 40
1
 40
1
 10
18.354074
 20
135.338546
 30
0.0
 10
20.712754
 20
135.066794
 30
0.0
 10
18.382607
 20
134.107651
 30
0.0
 10
18.053883
 20
135.206929
 30
0.0
  0
LWPOLYLINE
  5
1fe
100
AcDbEntity
  8
0
 62
7
100
AcDbPolyline
 90
2
 70
0
 10
29.557111
 20
135.425411
 30
0.0
 10
29.557111
 20
135.425411
 30
0.0
  0
SPLINE
  5
1ff
100
AcDbEntity
  8
0
 62
7
100
AcDbSpline
 70
8
 71
3
 72
8
 73
4
 74
0
 40
0
 40
0
 40
0
 40
0
 40
1
 40
1
 40
1
 40
1
 10
29.104254
 20
135.156812
 30
0.0
 10
29.551353
 20
134.686537
 30
0.0
 10
28.272105
 20
134.877926
 30
0.0
 10
29.104254
 20
135.156837
 30
0.0
  0
LWPOLYLINE
  5
200
100
AcDbEntity
  8
0
 62
7
100
AcDbPolyline
 90
5
 70
0
 10
18.053883
 20
135.206929
 30
0.0
 10
18.165434
 20
135.292615
 30
0.0
 10
18.354076
 20
135.338614
 30
0.0
 10
18.354074
 20
135.338546
 30
0.0
 10
18.354074
 20
135.338546
 30
0.0
  0
SPLINE
  5
201
100
AcDbEntity
  8
0
 62
7
100
AcDbSpline
 70
8
 71
3
 72
8
 73
4
 74
0
 40
0
 40
0
 40
0
 40
0
 40
1
 40
1
 40
1
 40
1
 10
28.472353
 20
134.848783
 30
0.0
 10
28.928599
 20
134.231098
 30
0.0
 10
27.632922
 20
134.619850
 30
0.0
 10
28.472353
 20
134.848783
 30
0.0
  0
LWPOLYLINE
  5
202
100
AcDbEntity
  8
0
 62
7
100
AcDbPolyline
 90
3
 70
0
 10
29.104254
 20
135.156837
 30
0.0
 10
29.104254
 20
135.156812
 30
0.0
 10
29.104254
 20
135.156812
 30
0.0
  0
SPLINE
  5
203
100
AcDbEntity
  8
0
 62
7
100
AcDbSpline
 70
8
 71
3
 72
8
 73
4
 74
0
 40
0
 40
0
 40
0
 40
0
 40
1
 40
1
 40
1
 40
1
 10
22.266530
 20
134.843562
 30
0.0
 10
23.441105
 20
134.838511
 30
0.0
 10
25.402866
 20
133.060759
 30
0.0
 10
23.169049
 20
134.061838
 30
0.0
  0
SPLINE
  5
204
100
AcDbEntity
  8
0
 62
7
100
AcDbSpline
 70
8
 71
3
 72
8
 73
4
 74
0
 40
0
 40
0
 40
0
 40
0
 40
1
 40
1
 40
1
 40
1
 10
23.169049
 20
134.061838
 30
0.0
 10
22.951177
 20
134.275838
 30
0.0
 10
22.020893
 20
134.421143
 30
0.0
 10
22.266530
 20
134.843562
 30
0.0
  0
LWPOLYLINE
  5
205
100
AcDbEntity
  8
0
 62
7
100
AcDbPolyline
 90
2
 70
0
 10
28.472353
 20
134.848783
 30
0.0
 10
28.472353
 20
134.848783
 30
0.0
  0
SPLINE
  5
206
100
AcDbEntity
  8
0
 62
7
100
AcDbSpline
 70
8
 71
3
 72
8
 73
4
 74
0
 40
0
 40
0
 40
0
 40
0
 40
1
 40
1
 40
1
 40
1
 10
26.613479
 20
134.764532
 30
0.0
 10
27.778994
 20
134.215378
 30
0.0
 10
24.263996
 20
134.153964
 30
0.0
 10
26.168446
 20
134.617172
 30
0.0
  0
LWPOLYLINE
  5
207
100
AcDbEntity
  8
0
 62
7
100
AcDbPolyline
 90
2
 70
0
 10
22.266530
 20
134.843562
 30
0.0
 10
22.266530
 20
134.843562
 30
0.0
  0
SPLINE
  5
208
100
AcDbEntity
  8
0
 62
7
100
AcDbSpline
 70
8
 71
3
 72
8
 73
4
 74
0
 40
0
 40
0
 40
0
 40
0
 40
1
 40
1
 40
1
 40
1
 10
27.777268
 20
134.543365
 30
0.0
 10
28.424511
 20
134.154342
 30
0.0
 10
27.236943
 20
133.918517
 30
0.0
 10
27.777268
 20
134.543365
 30
0.0
  0
LWPOLYLINE
  5
209
100
AcDbEntity
  8
0
 62
7
100
AcDbPolyline
 90
5
 70
0
 10
26.168446
 20
134.617172
 30
0.0
 10
26.571259
 20
134.762000
 30
0.0
 10
26.613469
 20
134.764258
 30
0.0
 10
26.613479
 20
134.764532
 30
0.0
 10
26.613479
 20
134.764532
 30
0.0
  0
SPLINE
  5
20a
100
AcDbEntity
  8
0
 62
7
100
AcDbSpline
 70
8
 71
3
 72
8
 73
4
 74
0
 40
0
 40
0
 40
0
 40
0
 40
1
 40
1
 40
1
 40
1
 10
14.249352
 20
134.282691
 30
0.0
 10
15.384978
 20
134.096966
 30
0.0
 10
12.790737
 20
133.381087
 30
0.0
 10
14.249352
 20
134.282691
 30
0.0
  0
LWPOLYLINE
  5
20b
100
AcDbEntity
  8
0
 62
7
100
AcDbPolyline
 90
2
 70
0
 10
27.777268
 20
134.543365
 30
0.0
 10
27.777268
 20
134.543365
 30
0.0
  0
SPLINE
  5
20c
100
AcDbEntity
  8
0
 62
7
100
AcDbSpline
 70
8
 71
3
 72
8
 73
4
 74
0
 40
0
 40
0
 40
0
 40
0
 40
1
 40
1
 40
1
 40
1
 10
27.195332
 20
134.261609
 30
0.0
 10
27.554599
 20
133.483342
 30
0.0
 10
25.448489
 20
134.044617
 30
0.0
 10
27.195332
 20
134.261634
 30
0.0
  0
LWPOLYLINE
  5
20d
100
AcDbEntity
  8
0
 62
7
100
AcDbPolyline
 90
2
 70
0
 10
14.249352
 20
134.282691
 30
0.0
 10
14.249352
 20
134.282691
 30
0.0
  0
SPLINE
  5
20e
100
AcDbEntity
  8
0
 62
7
100
AcDbSpline
 70
8
 71
3
 72
8
 73
4
 74
0
 40
0
 40
0
 40
0
 40
0
 40
1
 40
1
 40
1
 40
1
 10
31.968855
 20
134.158990
 30
0.0
 10
34.138980
 20
133.044472
 30
0.0
 10
36.156573
 20
131.591222
 30
0.0
 10
38.360186
 20
130.505942
 30
0.0
  0
SPLINE
  5
20f
100
AcDbEntity
  8
0
 62
7
100
AcDbSpline
 70
8
 71
3
 72
8
 73
4
 74
0
 40
0
 40
0
 40
0
 40
0
 40
1
 40
1
 40
1
 40
1
 10
38.360186
 20
130.505942
 30
0.0
 10
36.145628
 20
131.405514
 30
0.0
 10
34.152874
 20
132.978288
 30
0.0
 10
31.976689
 20
133.977256
 30
0.0
  0
SPLINE
  5
210
100
AcDbEntity
  8
0
 62
7
100
AcDbSpline
 70
8
 71
3
 72
8
 73
4
 74
0
 40
0
 40
0
 40
0
 40
0
 40
1
 40
1
 40
1
 40
1
 10
31.976689
 20
133.977256
 30
0.0
 10
31.055285
 20
133.209482
 30
0.0
 10
27.980890
 20
131.967927
 30
0.0
 10
30.614366
 20
133.369115
 30
0.0
  0
SPLINE
  5
211
100
AcDbEntity
  8
0
 62
7
100
AcDbSpline
 70
8
 71
3
 72
8
 73
4
 74
0
 40
0
 40
0
 40
0
 40
0
 40
1
 40
1
 40
1
 40
1
 10
30.614366
 20
133.369115
 30
0.0
 10
31.081156
 20
133.599894
 30
0.0
 10
31.516433
 20
133.928011
 30
0.0
 10
31.968855
 20
134.158990
 30
0.0
  0
LWPOLYLINE
  5
212
100
AcDbEntity
  8
0
 62
7
100
AcDbPolyline
 90
3
 70
0
 10
27.195332
 20
134.261634
 30
0.0
 10
27.195332
 20
134.261609
 30
0.0
 10
27.195332
 20
134.261609
 30
0.0
  0
SPLINE
  5
213
100
AcDbEntity
  8
0
 62
7
100
AcDbSpline
 70
8
 71
3
 72
8
 73
4
 74
0
 40
0
 40
0
 40
0
 40
0
 40
1
 40
1
 40
1
 40
1
 10
16.650562
 20
134.064206
 30
0.0
 10
18.282740
 20
133.859019
 30
0.0
 10
21.066887
 20
133.526849
 30
0.0
 10
21.826362
 20
132.295313
 30
0.0
  0
SPLINE
  5
214
100
AcDbEntity
  8
0
 62
7
100
AcDbSpline
 70
8
 71
3
 72
8
 73
4
 74
0
 40
0
 40
0
 40
0
 40
0
 40
1
 40
1
 40
1
 40
1
 10
21.826362
 20
132.295313
 30
0.0
 10
20.081723
 20
132.480931
 30
0.0
 10
18.200740
 20
133.690572
 30
0.0
 10
16.237048
 20
133.605950
 30
0.0
  0
SPLINE
  5
215
100
AcDbEntity
  8
0
 62
7
100
AcDbSpline
 70
8
 71
3
 72
8
 73
4
 74
0
 40
0
 40
0
 40
0
 40
0
 40
1
 40
1
 40
1
 40
1
 10
16.237048
 20
133.605950
 30
0.0
 10
16.198691
 20
133.854865
 30
0.0
 10
16.411720
 20
134.088990
 30
0.0
 10
16.650562
 20
134.064206
 30
0.0
  0
LWPOLYLINE
  5
216
100
AcDbEntity
  8
0
 62
7
100
AcDbPolyline
 90
2
 70
0
 10
31.968855
 20
134.158990
 30
0.0
 10
31.968855
 20
134.158990
 30
0.0
  0
SPLINE
  5
217
100
AcDbEntity
  8
0
 62
7
100
AcDbSpline
 70
8
 71
3
 72
8
 73
4
 74
0
 40
0
 40
0
 40
0
 40
0
 40
1
 40
1
 40
1
 40
1
 10
22.469328
 20
134.064206
 30
0.0
 10
25.035511
 20
133.725737
 30
0.0
 10
22.474865
 20
132.515240
 30
0.0
 10
22.469328
 20
134.064206
 30
0.0
  0
LWPOLYLINE
  5
218
100
AcDbEntity
  8
0
 62
7
100
AcDbPolyline
 90
2
 70
0
 10
16.650562
 20
134.064206
 30
0.0
 10
16.650562
 20
134.064206
 30
0.0
  0
SPLINE
  5
219
100
AcDbEntity
  8
0
 62
7
100
AcDbSpline
 70
8
 71
3
 72
8
 73
4
 74
0
 40
0
 40
0
 40
0
 40
0
 40
1
 40
1
 40
1
 40
1
 10
25.189099
 20
134.040471
 30
0.0
 10
26.009854
 20
133.624275
 30
0.0
 10
23.503717
 20
133.229020
 30
0.0
 10
23.153883
 20
132.616090
 30
0.0
  0
SPLINE
  5
21a
100
AcDbEntity
  8
0
 62
7
100
AcDbSpline
 70
8
 71
3
 72
8
 73
4
 74
0
 40
0
 40
0
 40
0
 40
0
 40
1
 40
1
 40
1
 40
1
 10
23.153883
 20
132.616090
 30
0.0
 10
23.804852
 20
133.127885
 30
0.0
 10
24.547708
 20
133.526711
 30
0.0
 10
25.189099
 20
134.040471
 30
0.0
  0
LWPOLYLINE
  5
21b
100
AcDbEntity
  8
0
 62
7
100
AcDbPolyline
 90
2
 70
0
 10
22.469328
 20
134.064206
 30
0.0
 10
22.469328
 20
134.064206
 30
0.0
  0
SPLINE
  5
21c
100
AcDbEntity
  8
0
 62
7
100
AcDbSpline
 70
8
 71
3
 72
8
 73
4
 74
0
 40
0
 40
0
 40
0
 40
0
 40
1
 40
1
 40
1
 40
1
 10
14.528482
 20
133.679785
 30
0.0
 10
14.792146
 20
132.627802
 30
0.0
 10
12.930700
 20
132.868362
 30
0.0
 10
14.528482
 20
133.679811
 30
0.0
  0
LWPOLYLINE
  5
21d
100
AcDbEntity
  8
0
 62
7
100
AcDbPolyline
 90
2
 70
0
 10
25.189099
 20
134.040471
 30
0.0
 10
25.189099
 20
134.040471
 30
0.0
  0
SPLINE
  5
21e
100
AcDbEntity
  8
0
 62
7
100
AcDbSpline
 70
8
 71
3
 72
8
 73
4
 74
0
 40
0
 40
0
 40
0
 40
0
 40
1
 40
1
 40
1
 40
1
 10
16.405723
 20
133.224312
 30
0.0
 10
17.749336
 20
133.112098
 30
0.0
 10
20.831630
 20
132.714207
 30
0.0
 10
21.026410
 20
131.836665
 30
0.0
  0
SPLINE
  5
21f
100
AcDbEntity
  8
0
 62
7
100
AcDbSpline
 70
8
 71
3
 72
8
 73
4
 74
0
 40
0
 40
0
 40
0
 40
0
 40
1
 40
1
 40
1
 40
1
 10
21.026410
 20
131.836665
 30
0.0
 10
19.547309
 20
131.770422
 30
0.0
 10
17.777524
 20
132.840109
 30
0.0
 10
16.200230
 20
132.800276
 30
0.0
  0
SPLINE
  5
220
100
AcDbEntity
  8
0
 62
7
100
AcDbSpline
 70
8
 71
3
 72
8
 73
4
 74
0
 40
0
 40
0
 40
0
 40
0
 40
1
 40
1
 40
1
 40
1
 10
16.200230
 20
132.800276
 30
0.0
 10
15.992570
 20
133.002748
 30
0.0
 10
16.199412
 20
133.262980
 30
0.0
 10
16.405723
 20
133.224312
 30
0.0
  0
LWPOLYLINE
  5
221
100
AcDbEntity
  8
0
 62
7
100
AcDbPolyline
 90
3
 70
0
 10
14.528482
 20
133.679811
 30
0.0
 10
14.528482
 20
133.679785
 30
0.0
 10
14.528482
 20
133.679785
 30
0.0
  0
SPLINE
  5
222
100
AcDbEntity
  8
0
 62
7
100
AcDbSpline
 70
8
 71
3
 72
8
 73
4
 74
0
 40
0
 40
0
 40
0
 40
0
 40
1
 40
1
 40
1
 40
1
 10
14.660085
 20
132.968941
 30
0.0
 10
15.223011
 20
131.659929
 30
0.0
 10
12.852730
 20
132.088334
 30
0.0
 10
14.660083
 20
132.968941
 30
0.0
  0
LWPOLYLINE
  5
223
100
AcDbEntity
  8
0
 62
7
100
AcDbPolyline
 90
2
 70
0
 10
16.405723
 20
133.224312
 30
0.0
 10
16.405723
 20
133.224312
 30
0.0
  0
SPLINE
  5
224
100
AcDbEntity
  8
0
 62
7
100
AcDbSpline
 70
8
 71
3
 72
8
 73
4
 74
0
 40
0
 40
0
 40
0
 40
0
 40
1
 40
1
 40
1
 40
1
 10
16.553165
 20
132.368640
 30
0.0
 10
17.405760
 20
132.489245
 30
0.0
 10
20.871129
 20
131.786300
 30
0.0
 10
19.887678
 20
131.251813
 30
0.0
  0
SPLINE
  5
225
100
AcDbEntity
  8
0
 62
7
100
AcDbSpline
 70
8
 71
3
 72
8
 73
4
 74
0
 40
0
 40
0
 40
0
 40
0
 40
1
 40
1
 40
1
 40
1
 10
19.887678
 20
131.251813
 30
0.0
 10
19.155264
 20
131.952692
 30
0.0
 10
16.291268
 20
131.752885
 30
0.0
 10
16.553165
 20
132.368640
 30
0.0
  0
LWPOLYLINE
  5
226
100
AcDbEntity
  8
0
 62
7
100
AcDbPolyline
 90
3
 70
0
 10
14.660083
 20
132.968941
 30
0.0
 10
14.660085
 20
132.968941
 30
0.0
 10
14.660085
 20
132.968941
 30
0.0
  0
SPLINE
  5
227
100
AcDbEntity
  8
0
 62
7
100
AcDbSpline
 70
8
 71
3
 72
8
 73
4
 74
0
 40
0
 40
0
 40
0
 40
0
 40
1
 40
1
 40
1
 40
1
 10
25.218082
 20
132.284388
 30
0.0
 10
26.441778
 20
132.058083
 30
0.0
 10
26.778947
 20
131.208461
 30
0.0
 10
25.378753
 20
132.142190
 30
0.0
  0
SPLINE
  5
228
100
AcDbEntity
  8
0
 62
7
100
AcDbSpline
 70
8
 71
3
 72
8
 73
4
 74
0
 40
0
 40
0
 40
0
 40
0
 40
1
 40
1
 40
1
 40
1
 10
25.378753
 20
132.142190
 30
0.0
 10
24.480997
 20
131.809865
 30
0.0
 10
24.120323
 20
131.746605
 30
0.0
 10
25.218082
 20
132.284408
 30
0.0
  0
LWPOLYLINE
  5
229
100
AcDbEntity
  8
0
 62
7
100
AcDbPolyline
 90
2
 70
0
 10
16.553165
 20
132.368640
 30
0.0
 10
16.553165
 20
132.368640
 30
0.0
  0
SPLINE
  5
22a
100
AcDbEntity
  8
0
 62
7
100
AcDbSpline
 70
8
 71
3
 72
8
 73
4
 74
0
 40
0
 40
0
 40
0
 40
0
 40
1
 40
1
 40
1
 40
1
 10
28.538156
 20
132.284388
 30
0.0
 10
29.818979
 20
131.871695
 30
0.0
 10
26.105918
 20
131.181444
 30
0.0
 10
28.319518
 20
132.118419
 30
0.0
  0
LWPOLYLINE
  5
22b
100
AcDbEntity
  8
0
 62
7
100
AcDbPolyline
 90
3
 70
0
 10
25.218082
 20
132.284408
 30
0.0
 10
25.218082
 20
132.284388
 30
0.0
 10
25.218082
 20
132.284388
 30
0.0
  0
SPLINE
  5
22c
100
AcDbEntity
  8
0
 62
7
100
AcDbSpline
 70
8
 71
3
 72
8
 73
4
 74
0
 40
0
 40
0
 40
0
 40
0
 40
1
 40
1
 40
1
 40
1
 10
22.032224
 20
132.144778
 30
0.0
 10
22.572321
 20
131.822023
 30
0.0
 10
19.875758
 20
130.518778
 30
0.0
 10
20.947382
 20
131.360130
 30
0.0
  0
SPLINE
  5
22d
100
AcDbEntity
  8
0
 62
7
100
AcDbSpline
 70
8
 71
3
 72
8
 73
4
 74
0
 40
0
 40
0
 40
0
 40
0
 40
1
 40
1
 40
1
 40
1
 10
20.947382
 20
131.360130
 30
0.0
 10
21.334149
 20
131.577469
 30
0.0
 10
21.819576
 20
131.719385
 30
0.0
 10
22.032224
 20
132.144778
 30
0.0
  0
LWPOLYLINE
  5
22e
100
AcDbEntity
  8
0
 62
7
100
AcDbPolyline
 90
5
 70
0
 10
28.319518
 20
132.118419
 30
0.0
 10
28.425741
 20
132.224314
 30
0.0
 10
28.538156
 20
132.284397
 30
0.0
 10
28.538156
 20
132.284388
 30
0.0
 10
28.538156
 20
132.284388
 30
0.0
  0
SPLINE
  5
22f
100
AcDbEntity
  8
0
 62
7
100
AcDbSpline
 70
8
 71
3
 72
8
 73
4
 74
0
 40
0
 40
0
 40
0
 40
0
 40
1
 40
1
 40
1
 40
1
 10
14.778545
 20
132.118504
 30
0.0
 10
15.915721
 20
130.783985
 30
0.0
 10
13.013096
 20
131.214645
 30
0.0
 10
14.778545
 20
132.118504
 30
0.0
  0
LWPOLYLINE
  5
230
100
AcDbEntity
  8
0
 62
7
100
AcDbPolyline
 90
2
 70
0
 10
22.032224
 20
132.144778
 30
0.0
 10
22.032224
 20
132.144778
 30
0.0
  0
SPLINE
  5
231
100
AcDbEntity
  8
0
 62
7
100
AcDbSpline
 70
8
 71
3
 72
8
 73
4
 74
0
 40
0
 40
0
 40
0
 40
0
 40
1
 40
1
 40
1
 40
1
 10
12.717042
 20
131.752507
 30
0.0
 10
13.828960
 20
131.418807
 30
0.0
 10
13.567944
 20
131.139370
 30
0.0
 10
12.520697
 20
131.524296
 30
0.0
  0
SPLINE
  5
232
100
AcDbEntity
  8
0
 62
7
100
AcDbSpline
 70
8
 71
3
 72
8
 73
4
 74
0
 40
0
 40
0
 40
0
 40
0
 40
1
 40
1
 40
1
 40
1
 10
12.520697
 20
131.524296
 30
0.0
 10
11.530755
 20
130.783674
 30
0.0
 10
10.870451
 20
130.336465
 30
0.0
 10
12.150862
 20
131.447091
 30
0.0
  0
SPLINE
  5
233
100
AcDbEntity
  8
0
 62
7
100
AcDbSpline
 70
8
 71
3
 72
8
 73
4
 74
0
 40
0
 40
0
 40
0
 40
0
 40
1
 40
1
 40
1
 40
1
 10
12.150862
 20
131.447091
 30
0.0
 10
12.358091
 20
131.495357
 30
0.0
 10
12.573752
 20
131.589247
 30
0.0
 10
12.717042
 20
131.752507
 30
0.0
  0
LWPOLYLINE
  5
234
100
AcDbEntity
  8
0
 62
7
100
AcDbPolyline
 90
2
 70
0
 10
14.778545
 20
132.118504
 30
0.0
 10
14.778545
 20
132.118504
 30
0.0
  0
SPLINE
  5
235
100
AcDbEntity
  8
0
 62
7
100
AcDbSpline
 70
8
 71
3
 72
8
 73
4
 74
0
 40
0
 40
0
 40
0
 40
0
 40
1
 40
1
 40
1
 40
1
 10
16.750656
 20
131.739383
 30
0.0
 10
17.791366
 20
132.164150
 30
0.0
 10
20.141877
 20
130.355741
 30
0.0
 10
17.977632
 20
131.207490
 30
0.0
  0
SPLINE
  5
236
100
AcDbEntity
  8
0
 62
7
100
AcDbSpline
 70
8
 71
3
 72
8
 73
4
 74
0
 40
0
 40
0
 40
0
 40
0
 40
1
 40
1
 40
1
 40
1
 10
17.977632
 20
131.207490
 30
0.0
 10
17.764300
 20
131.339234
 30
0.0
 10
16.326202
 20
131.188102
 30
0.0
 10
16.750656
 20
131.739383
 30
0.0
  0
LWPOLYLINE
  5
237
100
AcDbEntity
  8
0
 62
7
100
AcDbPolyline
 90
2
 70
0
 10
12.717042
 20
131.752507
 30
0.0
 10
12.717042
 20
131.752507
 30
0.0
  0
SPLINE
  5
238
100
AcDbEntity
  8
0
 62
7
100
AcDbSpline
 70
8
 71
3
 72
8
 73
4
 74
0
 40
0
 40
0
 40
0
 40
0
 40
1
 40
1
 40
1
 40
1
 10
33.793436
 20
131.494544
 30
0.0
 10
34.843923
 20
131.235204
 30
0.0
 10
36.746725
 20
129.673598
 30
0.0
 10
34.575476
 20
130.889101
 30
0.0
  0
SPLINE
  5
239
100
AcDbEntity
  8
0
 62
7
100
AcDbSpline
 70
8
 71
3
 72
8
 73
4
 74
0
 40
0
 40
0
 40
0
 40
0
 40
1
 40
1
 40
1
 40
1
 10
34.575476
 20
130.889101
 30
0.0
 10
34.507647
 20
131.097105
 30
0.0
 10
33.466490
 20
131.342147
 30
0.0
 10
33.793436
 20
131.494544
 30
0.0
  0
LWPOLYLINE
  5
23a
100
AcDbEntity
  8
0
 62
7
100
AcDbPolyline
 90
2
 70
0
 10
16.750656
 20
131.739383
 30
0.0
 10
16.750656
 20
131.739383
 30
0.0
  0
SPLINE
  5
23b
100
AcDbEntity
  8
0
 62
7
100
AcDbSpline
 70
8
 71
3
 72
8
 73
4
 74
0
 40
0
 40
0
 40
0
 40
0
 40
1
 40
1
 40
1
 40
1
 10
27.032133
 20
131.423435
 30
0.0
 10
27.135463
 20
130.813076
 30
0.0
 10
25.411965
 20
130.746506
 30
0.0
 10
27.032133
 20
131.423435
 30
0.0
  0
LWPOLYLINE
  5
23c
100
AcDbEntity
  8
0
 62
7
100
AcDbPolyline
 90
2
 70
0
 10
33.793436
 20
131.494544
 30
0.0
 10
33.793436
 20
131.494544
 30
0.0
  0
SPLINE
  5
23d
100
AcDbEntity
  8
0
 62
7
100
AcDbSpline
 70
8
 71
3
 72
8
 73
4
 74
0
 40
0
 40
0
 40
0
 40
0
 40
1
 40
1
 40
1
 40
1
 10
15.094494
 20
131.270683
 30
0.0
 10
15.842426
 20
130.024022
 30
0.0
 10
13.960546
 20
130.704313
 30
0.0
 10
15.094494
 20
131.270683
 30
0.0
  0
LWPOLYLINE
  5
23e
100
AcDbEntity
  8
0
 62
7
100
AcDbPolyline
 90
2
 70
0
 10
27.032133
 20
131.423435
 30
0.0
 10
27.032133
 20
131.423435
 30
0.0
  0
SPLINE
  5
23f
100
AcDbEntity
  8
0
 62
7
100
AcDbSpline
 70
8
 71
3
 72
8
 73
4
 74
0
 40
0
 40
0
 40
0
 40
0
 40
1
 40
1
 40
1
 40
1
 10
17.198207
 20
131.060049
 30
0.0
 10
18.400736
 20
131.088994
 30
0.0
 10
19.795914
 20
129.994815
 30
0.0
 10
17.703020
 20
130.575682
 30
0.0
  0
SPLINE
  5
240
100
AcDbEntity
  8
0
 62
7
100
AcDbSpline
 70
8
 71
3
 72
8
 73
4
 74
0
 40
0
 40
0
 40
0
 40
0
 40
1
 40
1
 40
1
 40
1
 10
17.703020
 20
130.575682
 30
0.0
 10
17.524662
 20
130.491134
 30
0.0
 10
16.473683
 20
130.967615
 30
0.0
 10
17.198207
 20
131.060049
 30
0.0
  0
LWPOLYLINE
  5
241
100
AcDbEntity
  8
0
 62
7
100
AcDbPolyline
 90
2
 70
0
 10
15.094494
 20
131.270683
 30
0.0
 10
15.094494
 20
131.270683
 30
0.0
  0
SPLINE
  5
242
100
AcDbEntity
  8
0
 62
7
100
AcDbSpline
 70
8
 71
3
 72
8
 73
4
 74
0
 40
0
 40
0
 40
0
 40
0
 40
1
 40
1
 40
1
 40
1
 10
36.542193
 20
126.663140
 30
0.0
 10
35.674969
 20
126.788435
 30
0.0
 10
35.375861
 20
124.957405
 30
0.0
 10
36.189341
 20
126.155013
 30
0.0
  0
SPLINE
  5
243
100
AcDbEntity
  8
0
 62
7
100
AcDbSpline
 70
8
 71
3
 72
8
 73
4
 74
0
 40
0
 40
0
 40
0
 40
0
 40
1
 40
1
 40
1
 40
1
 10
36.189341
 20
126.155013
 30
0.0
 10
37.441528
 20
125.879002
 30
0.0
 10
38.050755
 20
126.513991
 30
0.0
 10
36.863361
 20
125.291334
 30
0.0
  0
SPLINE
  5
244
100
AcDbEntity
  8
0
 62
7
100
AcDbSpline
 70
8
 71
3
 72
8
 73
4
 74
0
 40
0
 40
0
 40
0
 40
0
 40
1
 40
1
 40
1
 40
1
 10
36.863361
 20
125.291334
 30
0.0
 10
37.243213
 20
124.735773
 30
0.0
 10
35.001748
 20
123.929261
 30
0.0
 10
35.949811
 20
124.082903
 30
0.0
  0
SPLINE
  5
245
100
AcDbEntity
  8
0
 62
7
100
AcDbSpline
 70
8
 71
3
 72
8
 73
4
 74
0
 40
0
 40
0
 40
0
 40
0
 40
1
 40
1
 40
1
 40
1
 10
35.949811
 20
124.082903
 30
0.0
 10
37.705992
 20
124.263644
 30
0.0
 10
35.929773
 20
123.169226
 30
0.0
 10
36.144685
 20
122.732159
 30
0.0
  0
SPLINE
  5
246
100
AcDbEntity
  8
0
 62
7
100
AcDbSpline
 70
8
 71
3
 72
8
 73
4
 74
0
 40
0
 40
0
 40
0
 40
0
 40
1
 40
1
 40
1
 40
1
 10
36.144685
 20
122.732159
 30
0.0
 10
37.941623
 20
123.804911
 30
0.0
 10
35.043327
 20
120.681138
 30
0.0
 10
36.278899
 20
121.078696
 30
0.0
  0
SPLINE
  5
247
100
AcDbEntity
  8
0
 62
7
100
AcDbSpline
 70
8
 71
3
 72
8
 73
4
 74
0
 40
0
 40
0
 40
0
 40
0
 40
1
 40
1
 40
1
 40
1
 10
36.278899
 20
121.078696
 30
0.0
 10
36.364847
 20
123.040524
 30
0.0
 10
39.168682
 20
120.939278
 30
0.0
 10
40.243910
 20
122.313875
 30
0.0
  0
SPLINE
  5
248
100
AcDbEntity
  8
0
 62
7
100
AcDbSpline
 70
8
 71
3
 72
8
 73
4
 74
0
 40
0
 40
0
 40
0
 40
0
 40
1
 40
1
 40
1
 40
1
 10
40.243910
 20
122.313875
 30
0.0
 10
41.697865
 20
122.459555
 30
0.0
 10
40.244135
 20
124.890530
 30
0.0
 10
40.027358
 20
124.741742
 30
0.0
  0
SPLINE
  5
249
100
AcDbEntity
  8
0
 62
7
100
AcDbSpline
 70
8
 71
3
 72
8
 73
4
 74
0
 40
0
 40
0
 40
0
 40
0
 40
1
 40
1
 40
1
 40
1
 10
40.027358
 20
124.741742
 30
0.0
 10
42.458296
 20
127.143874
 30
0.0
 10
37.018894
 20
126.996071
 30
0.0
 10
37.948204
 20
124.400369
 30
0.0
  0
SPLINE
  5
24a
100
AcDbEntity
  8
0
 62
7
100
AcDbSpline
 70
8
 71
3
 72
8
 73
4
 74
0
 40
0
 40
0
 40
0
 40
0
 40
1
 40
1
 40
1
 40
1
 10
37.948204
 20
124.400369
 30
0.0
 10
38.404631
 20
123.307630
 30
0.0
 10
36.448681
 20
121.306872
 30
0.0
 10
37.425613
 20
123.167747
 30
0.0
  0
SPLINE
  5
24b
100
AcDbEntity
  8
0
 62
7
100
AcDbSpline
 70
8
 71
3
 72
8
 73
4
 74
0
 40
0
 40
0
 40
0
 40
0
 40
1
 40
1
 40
1
 40
1
 10
37.425613
 20
123.167747
 30
0.0
 10
37.372208
 20
124.480193
 30
0.0
 10
37.420985
 20
126.073436
 30
0.0
 10
38.588021
 20
126.663236
 30
0.0
  0
SPLINE
  5
24c
100
AcDbEntity
  8
0
 62
7
100
AcDbSpline
 70
8
 71
3
 72
8
 73
4
 74
0
 40
0
 40
0
 40
0
 40
0
 40
1
 40
1
 40
1
 40
1
 10
38.588021
 20
126.663236
 30
0.0
 10
37.928680
 20
126.262511
 30
0.0
 10
37.226119
 20
126.584225
 30
0.0
 10
36.542193
 20
126.663140
 30
0.0
  0
LWPOLYLINE
  5
24d
100
AcDbEntity
  8
0
 62
7
100
AcDbPolyline
 90
2
 70
0
 10
17.198207
 20
131.060049
 30
0.0
 10
17.198207
 20
131.060049
 30
0.0
  0
SPLINE
  5
24e
100
AcDbEntity
  8
0
 62
7
100
AcDbSpline
 70
8
 71
3
 72
8
 73
4
 74
0
 40
0
 40
0
 40
0
 40
0
 40
1
 40
1
 40
1
 40
1
 10
7.714520
 20
126.589417
 30
0.0
 10
6.437211
 20
125.623676
 30
0.0
 10
2.882153
 20
127.595650
 30
0.0
 10
2.906622
 20
124.949100
 30
0.0
  0
SPLINE
  5
24f
100
AcDbEntity
  8
0
 62
7
100
AcDbSpline
 70
8
 71
3
 72
8
 73
4
 74
0
 40
0
 40
0
 40
0
 40
0
 40
1
 40
1
 40
1
 40
1
 10
2.906622
 20
124.949100
 30
0.0
 10
3.255460
 20
126.271844
 30
0.0
 10
5.662721
 20
126.156596
 30
0.0
 10
3.605554
 20
124.957030
 30
0.0
  0
SPLINE
  5
250
100
AcDbEntity
  8
0
 62
7
100
AcDbSpline
 70
8
 71
3
 72
8
 73
4
 74
0
 40
0
 40
0
 40
0
 40
0
 40
1
 40
1
 40
1
 40
1
 10
3.605554
 20
124.957030
 30
0.0
 10
1.911881
 20
122.732865
 30
0.0
 10
5.375049
 20
120.437571
 30
0.0
 10
7.143264
 20
122.142882
 30
0.0
  0
SPLINE
  5
251
100
AcDbEntity
  8
0
 62
7
100
AcDbSpline
 70
8
 71
3
 72
8
 73
4
 74
0
 40
0
 40
0
 40
0
 40
0
 40
1
 40
1
 40
1
 40
1
 10
7.143264
 20
122.142882
 30
0.0
 10
7.873025
 20
122.688183
 30
0.0
 10
8.015717
 20
124.038447
 30
0.0
 10
7.153396
 20
122.619110
 30
0.0
  0
SPLINE
  5
252
100
AcDbEntity
  8
0
 62
7
100
AcDbSpline
 70
8
 71
3
 72
8
 73
4
 74
0
 40
0
 40
0
 40
0
 40
0
 40
1
 40
1
 40
1
 40
1
 10
7.153396
 20
122.619110
 30
0.0
 10
5.819577
 20
121.496294
 30
0.0
 10
6.514656
 20
123.727557
 30
0.0
 10
6.345072
 20
124.491688
 30
0.0
  0
SPLINE
  5
253
100
AcDbEntity
  8
0
 62
7
100
AcDbSpline
 70
8
 71
3
 72
8
 73
4
 74
0
 40
0
 40
0
 40
0
 40
0
 40
1
 40
1
 40
1
 40
1
 10
6.345072
 20
124.491688
 30
0.0
 10
5.734008
 20
126.358963
 30
0.0
 10
8.003335
 20
125.000337
 30
0.0
 10
7.714520
 20
126.589426
 30
0.0
  0
LWPOLYLINE
  5
254
100
AcDbEntity
  8
0
 62
7
100
AcDbPolyline
 90
2
 70
0
 10
36.542193
 20
126.663140
 30
0.0
 10
36.542193
 20
126.663140
 30
0.0
  0
SPLINE
  5
255
100
AcDbEntity
  8
0
 62
7
100
AcDbSpline
 70
8
 71
3
 72
8
 73
4
 74
0
 40
0
 40
0
 40
0
 40
0
 40
1
 40
1
 40
1
 40
1
 10
16.937529
 20
126.539374
 30
0.0
 10
14.656868
 20
125.750788
 30
0.0
 10
17.723469
 20
126.670350
 30
0.0
 10
17.269317
 20
125.122827
 30
0.0
  0
SPLINE
  5
256
100
AcDbEntity
  8
0
 62
7
100
AcDbSpline
 70
8
 71
3
 72
8
 73
4
 74
0
 40
0
 40
0
 40
0
 40
0
 40
1
 40
1
 40
1
 40
1
 10
17.269317
 20
125.122827
 30
0.0
 10
16.386757
 20
124.573326
 30
0.0
 10
15.322440
 20
124.107964
 30
0.0
 10
16.990344
 20
123.578112
 30
0.0
  0
SPLINE
  5
257
100
AcDbEntity
  8
0
 62
7
100
AcDbSpline
 70
8
 71
3
 72
8
 73
4
 74
0
 40
0
 40
0
 40
0
 40
0
 40
1
 40
1
 40
1
 40
1
 10
16.990344
 20
123.578112
 30
0.0
 10
18.454688
 20
122.681119
 30
0.0
 10
14.205534
 20
121.070791
 30
0.0
 10
16.434706
 20
121.839654
 30
0.0
  0
SPLINE
  5
258
100
AcDbEntity
  8
0
 62
7
100
AcDbSpline
 70
8
 71
3
 72
8
 73
4
 74
0
 40
0
 40
0
 40
0
 40
0
 40
1
 40
1
 40
1
 40
1
 10
16.434706
 20
121.839654
 30
0.0
 10
18.082995
 20
122.769861
 30
0.0
 10
16.464498
 20
119.976319
 30
0.0
 10
18.070552
 20
120.623211
 30
0.0
  0
SPLINE
  5
259
100
AcDbEntity
  8
0
 62
7
100
AcDbSpline
 70
8
 71
3
 72
8
 73
4
 74
0
 40
0
 40
0
 40
0
 40
0
 40
1
 40
1
 40
1
 40
1
 10
18.070552
 20
120.623211
 30
0.0
 10
19.129153
 20
120.422887
 30
0.0
 10
17.815733
 20
122.817495
 30
0.0
 10
19.444055
 20
121.729147
 30
0.0
  0
SPLINE
  5
25a
100
AcDbEntity
  8
0
 62
7
100
AcDbSpline
 70
8
 71
3
 72
8
 73
4
 74
0
 40
0
 40
0
 40
0
 40
0
 40
1
 40
1
 40
1
 40
1
 10
19.444055
 20
121.729147
 30
0.0
 10
20.225629
 20
121.502890
 30
0.0
 10
21.147309
 20
122.574228
 30
0.0
 10
20.857989
 20
123.435226
 30
0.0
  0
SPLINE
  5
25b
100
AcDbEntity
  8
0
 62
7
100
AcDbSpline
 70
8
 71
3
 72
8
 73
4
 74
0
 40
0
 40
0
 40
0
 40
0
 40
1
 40
1
 40
1
 40
1
 10
20.857989
 20
123.435226
 30
0.0
 10
21.074695
 20
124.642084
 30
0.0
 10
20.565508
 20
126.770265
 30
0.0
 10
19.105199
 20
126.321662
 30
0.0
  0
SPLINE
  5
25c
100
AcDbEntity
  8
0
 62
7
100
AcDbSpline
 70
8
 71
3
 72
8
 73
4
 74
0
 40
0
 40
0
 40
0
 40
0
 40
1
 40
1
 40
1
 40
1
 10
19.105199
 20
126.321662
 30
0.0
 10
18.322300
 20
125.319511
 30
0.0
 10
18.430566
 20
127.394324
 30
0.0
 10
18.361909
 20
125.844371
 30
0.0
  0
SPLINE
  5
25d
100
AcDbEntity
  8
0
 62
7
100
AcDbSpline
 70
8
 71
3
 72
8
 73
4
 74
0
 40
0
 40
0
 40
0
 40
0
 40
1
 40
1
 40
1
 40
1
 10
18.361909
 20
125.844371
 30
0.0
 10
17.617306
 20
125.026900
 30
0.0
 10
18.060863
 20
126.861652
 30
0.0
 10
16.937529
 20
126.539374
 30
0.0
  0
LWPOLYLINE
  5
25e
100
AcDbEntity
  8
0
 62
7
100
AcDbPolyline
 90
2
 70
0
 10
7.714520
 20
126.589426
 30
0.0
 10
7.714520
 20
126.589417
 30
0.0
  0
SPLINE
  5
25f
100
AcDbEntity
  8
0
 62
7
100
AcDbSpline
 70
8
 71
3
 72
8
 73
4
 74
0
 40
0
 40
0
 40
0
 40
0
 40
1
 40
1
 40
1
 40
1
 10
9.539103
 20
126.386709
 30
0.0
 10
8.167601
 20
125.897406
 30
0.0
 10
8.126272
 20
126.677753
 30
0.0
 10
8.472713
 20
125.106066
 30
0.0
  0
SPLINE
  5
260
100
AcDbEntity
  8
0
 62
7
100
AcDbSpline
 70
8
 71
3
 72
8
 73
4
 74
0
 40
0
 40
0
 40
0
 40
0
 40
1
 40
1
 40
1
 40
1
 10
8.472713
 20
125.106066
 30
0.0
 10
8.409224
 20
124.161446
 30
0.0
 10
8.599405
 20
123.111799
 30
0.0
 10
8.378316
 20
122.232431
 30
0.0
  0
SPLINE
  5
261
100
AcDbEntity
  8
0
 62
7
100
AcDbSpline
 70
8
 71
3
 72
8
 73
4
 74
0
 40
0
 40
0
 40
0
 40
0
 40
1
 40
1
 40
1
 40
1
 10
8.378316
 20
122.232431
 30
0.0
 10
8.070861
 20
121.332707
 30
0.0
 10
9.898835
 20
121.724022
 30
0.0
 10
9.154657
 20
122.570124
 30
0.0
  0
SPLINE
  5
262
100
AcDbEntity
  8
0
 62
7
100
AcDbSpline
 70
8
 71
3
 72
8
 73
4
 74
0
 40
0
 40
0
 40
0
 40
0
 40
1
 40
1
 40
1
 40
1
 10
9.154657
 20
122.570124
 30
0.0
 10
9.102645
 20
123.238316
 30
0.0
 10
9.019618
 20
124.983979
 30
0.0
 10
9.986655
 20
124.393616
 30
0.0
  0
SPLINE
  5
263
100
AcDbEntity
  8
0
 62
7
100
AcDbSpline
 70
8
 71
3
 72
8
 73
4
 74
0
 40
0
 40
0
 40
0
 40
0
 40
1
 40
1
 40
1
 40
1
 10
9.986655
 20
124.393616
 30
0.0
 10
9.945648
 20
123.199581
 30
0.0
 10
10.525225
 20
121.413623
 30
0.0
 10
9.052353
 20
120.887388
 30
0.0
  0
SPLINE
  5
264
100
AcDbEntity
  8
0
 62
7
100
AcDbSpline
 70
8
 71
3
 72
8
 73
4
 74
0
 40
0
 40
0
 40
0
 40
0
 40
1
 40
1
 40
1
 40
1
 10
9.052353
 20
120.887388
 30
0.0
 10
8.783973
 20
120.225670
 30
0.0
 10
11.507739
 20
122.033925
 30
0.0
 10
10.723869
 20
123.346676
 30
0.0
  0
SPLINE
  5
265
100
AcDbEntity
  8
0
 62
7
100
AcDbSpline
 70
8
 71
3
 72
8
 73
4
 74
0
 40
0
 40
0
 40
0
 40
0
 40
1
 40
1
 40
1
 40
1
 10
10.723869
 20
123.346676
 30
0.0
 10
10.996380
 20
124.563155
 30
0.0
 10
10.163018
 20
125.697832
 30
0.0
 10
9.249245
 20
124.408542
 30
0.0
  0
SPLINE
  5
266
100
AcDbEntity
  8
0
 62
7
100
AcDbSpline
 70
8
 71
3
 72
8
 73
4
 74
0
 40
0
 40
0
 40
0
 40
0
 40
1
 40
1
 40
1
 40
1
 10
9.249245
 20
124.408542
 30
0.0
 10
9.066678
 20
124.603513
 30
0.0
 10
9.066484
 20
126.132254
 30
0.0
 10
9.539103
 20
126.386709
 30
0.0
  0
LWPOLYLINE
  5
267
100
AcDbEntity
  8
0
 62
7
100
AcDbPolyline
 90
2
 70
0
 10
16.937529
 20
126.539374
 30
0.0
 10
16.937529
 20
126.539374
 30
0.0
  0
SPLINE
  5
268
100
AcDbEntity
  8
0
 62
7
100
AcDbSpline
 70
8
 71
3
 72
8
 73
4
 74
0
 40
0
 40
0
 40
0
 40
0
 40
1
 40
1
 40
1
 40
1
 10
39.346217
 20
126.334046
 30
0.0
 10
41.027960
 20
125.759918
 30
0.0
 10
38.941609
 20
123.397151
 30
0.0
 10
38.996061
 20
125.157117
 30
0.0
  0
SPLINE
  5
269
100
AcDbEntity
  8
0
 62
7
100
AcDbSpline
 70
8
 71
3
 72
8
 73
4
 74
0
 40
0
 40
0
 40
0
 40
0
 40
1
 40
1
 40
1
 40
1
 10
38.996061
 20
125.157117
 30
0.0
 10
38.996061
 20
124.226822
 30
0.0
 10
38.996061
 20
123.296530
 30
0.0
 10
38.996061
 20
122.366236
 30
0.0
  0
SPLINE
  5
26a
100
AcDbEntity
  8
0
 62
7
100
AcDbSpline
 70
8
 71
3
 72
8
 73
4
 74
0
 40
0
 40
0
 40
0
 40
0
 40
1
 40
1
 40
1
 40
1
 10
38.996061
 20
122.366236
 30
0.0
 10
37.171142
 20
122.517978
 30
0.0
 10
37.855265
 20
122.318740
 30
0.0
 10
38.617988
 20
123.564692
 30
0.0
  0
SPLINE
  5
26b
100
AcDbEntity
  8
0
 62
7
100
AcDbSpline
 70
8
 71
3
 72
8
 73
4
 74
0
 40
0
 40
0
 40
0
 40
0
 40
1
 40
1
 40
1
 40
1
 10
38.617988
 20
123.564692
 30
0.0
 10
38.809224
 20
124.462896
 30
0.0
 10
38.177377
 20
125.968207
 30
0.0
 10
39.346217
 20
126.334046
 30
0.0
  0
LWPOLYLINE
  5
26c
100
AcDbEntity
  8
0
 62
7
100
AcDbPolyline
 90
2
 70
0
 10
9.539103
 20
126.386709
 30
0.0
 10
9.539103
 20
126.386709
 30
0.0
  0
SPLINE
  5
26d
100
AcDbEntity
  8
0
 62
7
100
AcDbSpline
 70
8
 71
3
 72
8
 73
4
 74
0
 40
0
 40
0
 40
0
 40
0
 40
1
 40
1
 40
1
 40
1
 10
22.429812
 20
126.299759
 30
0.0
 10
21.707818
 20
124.824671
 30
0.0
 10
23.413746
 20
126.400535
 30
0.0
 10
22.455768
 20
126.299759
 30
0.0
  0
LWPOLYLINE
  5
26e
100
AcDbEntity
  8
0
 62
7
100
AcDbPolyline
 90
2
 70
0
 10
39.346217
 20
126.334046
 30
0.0
 10
39.346217
 20
126.334046
 30
0.0
  0
SPLINE
  5
26f
100
AcDbEntity
  8
0
 62
7
100
AcDbSpline
 70
8
 71
3
 72
8
 73
4
 74
0
 40
0
 40
0
 40
0
 40
0
 40
1
 40
1
 40
1
 40
1
 10
18.951765
 20
126.044387
 30
0.0
 10
20.748462
 20
125.735365
 30
0.0
 10
20.085173
 20
123.519229
 30
0.0
 10
18.514659
 20
124.667357
 30
0.0
  0
SPLINE
  5
270
100
AcDbEntity
  8
0
 62
7
100
AcDbSpline
 70
8
 71
3
 72
8
 73
4
 74
0
 40
0
 40
0
 40
0
 40
0
 40
1
 40
1
 40
1
 40
1
 10
18.514659
 20
124.667357
 30
0.0
 10
18.591321
 20
125.204192
 30
0.0
 10
18.249196
 20
125.840631
 30
0.0
 10
18.951765
 20
126.044387
 30
0.0
  0
LWPOLYLINE
  5
271
100
AcDbEntity
  8
0
 62
7
100
AcDbPolyline
 90
3
 70
0
 10
22.455768
 20
126.299759
 30
0.0
 10
22.429812
 20
126.299759
 30
0.0
 10
22.429812
 20
126.299759
 30
0.0
  0
SPLINE
  5
272
100
AcDbEntity
  8
0
 62
7
100
AcDbSpline
 70
8
 71
3
 72
8
 73
4
 74
0
 40
0
 40
0
 40
0
 40
0
 40
1
 40
1
 40
1
 40
1
 10
30.028340
 20
125.944376
 30
0.0
 10
29.607089
 20
125.351173
 30
0.0
 10
28.756658
 20
124.755137
 30
0.0
 10
29.409585
 20
124.373990
 30
0.0
  0
SPLINE
  5
273
100
AcDbEntity
  8
0
 62
7
100
AcDbSpline
 70
8
 71
3
 72
8
 73
4
 74
0
 40
0
 40
0
 40
0
 40
0
 40
1
 40
1
 40
1
 40
1
 10
29.409585
 20
124.373990
 30
0.0
 10
29.698346
 20
123.295026
 30
0.0
 10
28.626189
 20
121.714215
 30
0.0
 10
30.132615
 20
121.667707
 30
0.0
  0
SPLINE
  5
274
100
AcDbEntity
  8
0
 62
7
100
AcDbSpline
 70
8
 71
3
 72
8
 73
4
 74
0
 40
0
 40
0
 40
0
 40
0
 40
1
 40
1
 40
1
 40
1
 10
30.132615
 20
121.667707
 30
0.0
 10
31.466576
 20
122.417829
 30
0.0
 10
29.743423
 20
121.906095
 30
0.0
 10
30.094143
 20
123.052383
 30
0.0
  0
SPLINE
  5
275
100
AcDbEntity
  8
0
 62
7
100
AcDbSpline
 70
8
 71
3
 72
8
 73
4
 74
0
 40
0
 40
0
 40
0
 40
0
 40
1
 40
1
 40
1
 40
1
 10
30.094143
 20
123.052383
 30
0.0
 10
30.055106
 20
123.889296
 30
0.0
 10
29.939448
 20
124.802835
 30
0.0
 10
30.765552
 20
124.774607
 30
0.0
  0
SPLINE
  5
276
100
AcDbEntity
  8
0
 62
7
100
AcDbSpline
 70
8
 71
3
 72
8
 73
4
 74
0
 40
0
 40
0
 40
0
 40
0
 40
1
 40
1
 40
1
 40
1
 10
30.765552
 20
124.774607
 30
0.0
 10
30.263406
 20
125.120956
 30
0.0
 10
29.955247
 20
125.048035
 30
0.0
 10
30.028340
 20
125.944376
 30
0.0
  0
LWPOLYLINE
  5
277
100
AcDbEntity
  8
0
 62
7
100
AcDbPolyline
 90
2
 70
0
 10
18.951765
 20
126.044387
 30
0.0
 10
18.951765
 20
126.044387
 30
0.0
  0
SPLINE
  5
278
100
AcDbEntity
  8
0
 62
7
100
AcDbSpline
 70
8
 71
3
 72
8
 73
4
 74
0
 40
0
 40
0
 40
0
 40
0
 40
1
 40
1
 40
1
 40
1
 10
4.762969
 20
125.867962
 30
0.0
 10
5.179071
 20
125.426953
 30
0.0
 10
4.818720
 20
124.286481
 30
0.0
 10
4.939395
 20
123.579340
 30
0.0
  0
SPLINE
  5
279
100
AcDbEntity
  8
0
 62
7
100
AcDbSpline
 70
8
 71
3
 72
8
 73
4
 74
0
 40
0
 40
0
 40
0
 40
0
 40
1
 40
1
 40
1
 40
1
 10
4.939395
 20
123.579340
 30
0.0
 10
4.464094
 20
120.464969
 30
0.0
 10
2.928286
 20
125.445878
 30
0.0
 10
4.762969
 20
125.867962
 30
0.0
  0
LWPOLYLINE
  5
27a
100
AcDbEntity
  8
0
 62
7
100
AcDbPolyline
 90
2
 70
0
 10
30.028340
 20
125.944376
 30
0.0
 10
30.028340
 20
125.944376
 30
0.0
  0
SPLINE
  5
27b
100
AcDbEntity
  8
0
 62
7
100
AcDbSpline
 70
8
 71
3
 72
8
 73
4
 74
0
 40
0
 40
0
 40
0
 40
0
 40
1
 40
1
 40
1
 40
1
 10
5.631870
 20
125.731050
 30
0.0
 10
6.700621
 20
125.686871
 30
0.0
 10
5.985737
 20
124.138408
 30
0.0
 10
6.192658
 20
123.366101
 30
0.0
  0
SPLINE
  5
27c
100
AcDbEntity
  8
0
 62
7
100
AcDbSpline
 70
8
 71
3
 72
8
 73
4
 74
0
 40
0
 40
0
 40
0
 40
0
 40
1
 40
1
 40
1
 40
1
 10
6.192658
 20
123.366101
 30
0.0
 10
6.908116
 20
121.525532
 30
0.0
 10
3.624239
 20
122.088890
 30
0.0
 10
5.602887
 20
123.282487
 30
0.0
  0
SPLINE
  5
27d
100
AcDbEntity
  8
0
 62
7
100
AcDbSpline
 70
8
 71
3
 72
8
 73
4
 74
0
 40
0
 40
0
 40
0
 40
0
 40
1
 40
1
 40
1
 40
1
 10
5.602887
 20
123.282487
 30
0.0
 10
5.659651
 20
124.097009
 30
0.0
 10
5.620182
 20
124.915018
 30
0.0
 10
5.631870
 20
125.731050
 30
0.0
  0
LWPOLYLINE
  5
27e
100
AcDbEntity
  8
0
 62
7
100
AcDbPolyline
 90
2
 70
0
 10
4.762969
 20
125.867962
 30
0.0
 10
4.762969
 20
125.867962
 30
0.0
  0
SPLINE
  5
27f
100
AcDbEntity
  8
0
 62
7
100
AcDbSpline
 70
8
 71
3
 72
8
 73
4
 74
0
 40
0
 40
0
 40
0
 40
0
 40
1
 40
1
 40
1
 40
1
 10
18.361994
 20
125.654717
 30
0.0
 10
18.361994
 20
124.026696
 30
0.0
 10
18.361994
 20
122.398674
 30
0.0
 10
18.361994
 20
120.770653
 30
0.0
  0
SPLINE
  5
280
100
AcDbEntity
  8
0
 62
7
100
AcDbSpline
 70
8
 71
3
 72
8
 73
4
 74
0
 40
0
 40
0
 40
0
 40
0
 40
1
 40
1
 40
1
 40
1
 10
18.361994
 20
120.770653
 30
0.0
 10
17.498168
 20
120.708795
 30
0.0
 10
18.171315
 20
122.183909
 30
0.0
 10
17.959180
 20
122.773739
 30
0.0
  0
SPLINE
  5
281
100
AcDbEntity
  8
0
 62
7
100
AcDbSpline
 70
8
 71
3
 72
8
 73
4
 74
0
 40
0
 40
0
 40
0
 40
0
 40
1
 40
1
 40
1
 40
1
 10
17.959180
 20
122.773739
 30
0.0
 10
18.036392
 20
123.648391
 30
0.0
 10
17.806467
 20
124.688315
 30
0.0
 10
18.070627
 20
125.462369
 30
0.0
  0
SPLINE
  5
282
100
AcDbEntity
  8
0
 62
7
100
AcDbSpline
 70
8
 71
3
 72
8
 73
4
 74
0
 40
0
 40
0
 40
0
 40
0
 40
1
 40
1
 40
1
 40
1
 10
18.070627
 20
125.462369
 30
0.0
 10
18.167746
 20
125.526487
 30
0.0
 10
18.264890
 20
125.590591
 30
0.0
 10
18.361994
 20
125.654717
 30
0.0
  0
LWPOLYLINE
  5
283
100
AcDbEntity
  8
0
 62
7
100
AcDbPolyline
 90
2
 70
0
 10
5.631870
 20
125.731050
 30
0.0
 10
5.631870
 20
125.731050
 30
0.0
  0
SPLINE
  5
284
100
AcDbEntity
  8
0
 62
7
100
AcDbSpline
 70
8
 71
3
 72
8
 73
4
 74
0
 40
0
 40
0
 40
0
 40
0
 40
1
 40
1
 40
1
 40
1
 10
12.664384
 20
125.157117
 30
0.0
 10
11.176006
 20
124.999928
 30
0.0
 10
11.406572
 20
123.801595
 30
0.0
 10
11.434796
 20
122.679488
 30
0.0
  0
SPLINE
  5
285
100
AcDbEntity
  8
0
 62
7
100
AcDbSpline
 70
8
 71
3
 72
8
 73
4
 74
0
 40
0
 40
0
 40
0
 40
0
 40
1
 40
1
 40
1
 40
1
 10
11.434796
 20
122.679488
 30
0.0
 10
10.609998
 20
121.176491
 30
0.0
 10
13.615517
 20
121.775581
 30
0.0
 10
13.299264
 20
122.364610
 30
0.0
  0
SPLINE
  5
286
100
AcDbEntity
  8
0
 62
7
100
AcDbSpline
 70
8
 71
3
 72
8
 73
4
 74
0
 40
0
 40
0
 40
0
 40
0
 40
1
 40
1
 40
1
 40
1
 10
13.299264
 20
122.364610
 30
0.0
 10
12.729134
 20
121.615203
 30
0.0
 10
11.441798
 20
122.766878
 30
0.0
 10
12.437019
 20
123.230482
 30
0.0
  0
SPLINE
  5
287
100
AcDbEntity
  8
0
 62
7
100
AcDbSpline
 70
8
 71
3
 72
8
 73
4
 74
0
 40
0
 40
0
 40
0
 40
0
 40
1
 40
1
 40
1
 40
1
 10
12.437019
 20
123.230482
 30
0.0
 10
13.266074
 20
123.689686
 30
0.0
 10
13.966095
 20
124.165289
 30
0.0
 10
12.915476
 20
124.863369
 30
0.0
  0
SPLINE
  5
288
100
AcDbEntity
  8
0
 62
7
100
AcDbSpline
 70
8
 71
3
 72
8
 73
4
 74
0
 40
0
 40
0
 40
0
 40
0
 40
1
 40
1
 40
1
 40
1
 10
12.915476
 20
124.863369
 30
0.0
 10
12.831779
 20
124.961283
 30
0.0
 10
12.748081
 20
125.059200
 30
0.0
 10
12.664384
 20
125.157117
 30
0.0
  0
LWPOLYLINE
  5
289
100
AcDbEntity
  8
0
 62
7
100
AcDbPolyline
 90
2
 70
0
 10
18.361994
 20
125.654717
 30
0.0
 10
18.361994
 20
125.654717
 30
0.0
  0
SPLINE
  5
28a
100
AcDbEntity
  8
0
 62
7
100
AcDbSpline
 70
8
 71
3
 72
8
 73
4
 74
0
 40
0
 40
0
 40
0
 40
0
 40
1
 40
1
 40
1
 40
1
 10
22.179667
 20
125.157117
 30
0.0
 10
21.220296
 20
124.748840
 30
0.0
 10
22.107124
 20
123.930859
 30
0.0
 10
21.837347
 20
123.071286
 30
0.0
  0
SPLINE
  5
28b
100
AcDbEntity
  8
0
 62
7
100
AcDbSpline
 70
8
 71
3
 72
8
 73
4
 74
0
 40
0
 40
0
 40
0
 40
0
 40
1
 40
1
 40
1
 40
1
 10
21.837347
 20
123.071286
 30
0.0
 10
21.481239
 20
122.022306
 30
0.0
 10
22.602623
 20
121.156832
 30
0.0
 10
22.893204
 20
122.276675
 30
0.0
  0
SPLINE
  5
28c
100
AcDbEntity
  8
0
 62
7
100
AcDbSpline
 70
8
 71
3
 72
8
 73
4
 74
0
 40
0
 40
0
 40
0
 40
0
 40
1
 40
1
 40
1
 40
1
 10
22.893204
 20
122.276675
 30
0.0
 10
22.230556
 20
122.104556
 30
0.0
 10
22.515721
 20
123.947648
 30
0.0
 10
22.601974
 20
124.499686
 30
0.0
  0
SPLINE
  5
28d
100
AcDbEntity
  8
0
 62
7
100
AcDbSpline
 70
8
 71
3
 72
8
 73
4
 74
0
 40
0
 40
0
 40
0
 40
0
 40
1
 40
1
 40
1
 40
1
 10
22.601974
 20
124.499686
 30
0.0
 10
23.035833
 20
124.730118
 30
0.0
 10
22.304859
 20
124.943088
 30
0.0
 10
22.179667
 20
125.157117
 30
0.0
  0
LWPOLYLINE
  5
28e
100
AcDbEntity
  8
0
 62
7
100
AcDbPolyline
 90
2
 70
0
 10
12.664384
 20
125.157117
 30
0.0
 10
12.664384
 20
125.157117
 30
0.0
  0
SPLINE
  5
28f
100
AcDbEntity
  8
0
 62
7
100
AcDbSpline
 70
8
 71
3
 72
8
 73
4
 74
0
 40
0
 40
0
 40
0
 40
0
 40
1
 40
1
 40
1
 40
1
 10
24.122793
 20
125.157117
 30
0.0
 10
22.900843
 20
124.497959
 30
0.0
 10
24.261043
 20
124.326588
 30
0.0
 10
23.896405
 20
123.088304
 30
0.0
  0
SPLINE
  5
290
100
AcDbEntity
  8
0
 62
7
100
AcDbSpline
 70
8
 71
3
 72
8
 73
4
 74
0
 40
0
 40
0
 40
0
 40
0
 40
1
 40
1
 40
1
 40
1
 10
23.896405
 20
123.088304
 30
0.0
 10
23.080633
 20
121.824705
 30
0.0
 10
25.019783
 20
121.198482
 30
0.0
 10
25.302910
 20
122.381196
 30
0.0
  0
SPLINE
  5
291
100
AcDbEntity
  8
0
 62
7
100
AcDbSpline
 70
8
 71
3
 72
8
 73
4
 74
0
 40
0
 40
0
 40
0
 40
0
 40
1
 40
1
 40
1
 40
1
 10
25.302910
 20
122.381196
 30
0.0
 10
24.461139
 20
121.631408
 30
0.0
 10
24.525776
 20
123.178183
 30
0.0
 10
24.578349
 20
123.719912
 30
0.0
  0
SPLINE
  5
292
100
AcDbEntity
  8
0
 62
7
100
AcDbSpline
 70
8
 71
3
 72
8
 73
4
 74
0
 40
0
 40
0
 40
0
 40
0
 40
1
 40
1
 40
1
 40
1
 10
24.578349
 20
123.719912
 30
0.0
 10
24.425148
 20
125.257283
 30
0.0
 10
25.258090
 20
123.765807
 30
0.0
 10
25.729369
 20
124.455027
 30
0.0
  0
SPLINE
  5
293
100
AcDbEntity
  8
0
 62
7
100
AcDbSpline
 70
8
 71
3
 72
8
 73
4
 74
0
 40
0
 40
0
 40
0
 40
0
 40
1
 40
1
 40
1
 40
1
 10
25.729369
 20
124.455027
 30
0.0
 10
25.665346
 20
125.908060
 30
0.0
 10
24.435764
 20
123.773715
 30
0.0
 10
24.122793
 20
125.157117
 30
0.0
  0
LWPOLYLINE
  5
294
100
AcDbEntity
  8
0
 62
7
100
AcDbPolyline
 90
2
 70
0
 10
22.179667
 20
125.157117
 30
0.0
 10
22.179667
 20
125.157117
 30
0.0
  0
SPLINE
  5
295
100
AcDbEntity
  8
0
 62
7
100
AcDbSpline
 70
8
 71
3
 72
8
 73
4
 74
0
 40
0
 40
0
 40
0
 40
0
 40
1
 40
1
 40
1
 40
1
 10
27.292812
 20
125.157117
 30
0.0
 10
25.543258
 20
125.016949
 30
0.0
 10
27.462310
 20
123.675783
 30
0.0
 10
26.099179
 20
122.807160
 30
0.0
  0
SPLINE
  5
296
100
AcDbEntity
  8
0
 62
7
100
AcDbSpline
 70
8
 71
3
 72
8
 73
4
 74
0
 40
0
 40
0
 40
0
 40
0
 40
1
 40
1
 40
1
 40
1
 10
26.099179
 20
122.807160
 30
0.0
 10
25.903421
 20
121.467922
 30
0.0
 10
27.053708
 20
121.535802
 30
0.0
 10
27.661335
 20
122.389824
 30
0.0
  0
SPLINE
  5
297
100
AcDbEntity
  8
0
 62
7
100
AcDbSpline
 70
8
 71
3
 72
8
 73
4
 74
0
 40
0
 40
0
 40
0
 40
0
 40
1
 40
1
 40
1
 40
1
 10
27.661335
 20
122.389824
 30
0.0
 10
27.875363
 20
120.976455
 30
0.0
 10
29.342932
 20
122.271567
 30
0.0
 10
28.343194
 20
122.705766
 30
0.0
  0
SPLINE
  5
298
100
AcDbEntity
  8
0
 62
7
100
AcDbSpline
 70
8
 71
3
 72
8
 73
4
 74
0
 40
0
 40
0
 40
0
 40
0
 40
1
 40
1
 40
1
 40
1
 10
28.343194
 20
122.705766
 30
0.0
 10
28.097068
 20
124.090320
 30
0.0
 10
29.240398
 20
125.259880
 30
0.0
 10
27.292812
 20
125.157131
 30
0.0
  0
LWPOLYLINE
  5
299
100
AcDbEntity
  8
0
 62
7
100
AcDbPolyline
 90
3
 70
0
 10
24.122793
 20
125.157117
 30
0.0
 10
24.122793
 20
125.157117
 30
0.0
 10
24.122793
 20
125.157117
 30
0.0
  0
SPLINE
  5
29a
100
AcDbEntity
  8
0
 62
7
100
AcDbSpline
 70
8
 71
3
 72
8
 73
4
 74
0
 40
0
 40
0
 40
0
 40
0
 40
1
 40
1
 40
1
 40
1
 10
32.492738
 20
125.157117
 30
0.0
 10
31.005427
 20
124.998463
 30
0.0
 10
31.234318
 20
123.802490
 30
0.0
 10
31.263150
 20
122.679488
 30
0.0
  0
SPLINE
  5
29b
100
AcDbEntity
  8
0
 62
7
100
AcDbSpline
 70
8
 71
3
 72
8
 73
4
 74
0
 40
0
 40
0
 40
0
 40
0
 40
1
 40
1
 40
1
 40
1
 10
31.263150
 20
122.679488
 30
0.0
 10
30.439727
 20
121.179407
 30
0.0
 10
33.437398
 20
121.772457
 30
0.0
 10
33.129971
 20
122.364864
 30
0.0
  0
SPLINE
  5
29c
100
AcDbEntity
  8
0
 62
7
100
AcDbSpline
 70
8
 71
3
 72
8
 73
4
 74
0
 40
0
 40
0
 40
0
 40
0
 40
1
 40
1
 40
1
 40
1
 10
33.129971
 20
122.364864
 30
0.0
 10
32.558843
 20
121.615437
 30
0.0
 10
31.269565
 20
122.765289
 30
0.0
 10
32.265290
 20
123.230482
 30
0.0
  0
SPLINE
  5
29d
100
AcDbEntity
  8
0
 62
7
100
AcDbSpline
 70
8
 71
3
 72
8
 73
4
 74
0
 40
0
 40
0
 40
0
 40
0
 40
1
 40
1
 40
1
 40
1
 10
32.265290
 20
123.230482
 30
0.0
 10
33.094343
 20
123.689683
 30
0.0
 10
33.794361
 20
124.165287
 30
0.0
 10
32.743781
 20
124.863397
 30
0.0
  0
SPLINE
  5
29e
100
AcDbEntity
  8
0
 62
7
100
AcDbSpline
 70
8
 71
3
 72
8
 73
4
 74
0
 40
0
 40
0
 40
0
 40
0
 40
1
 40
1
 40
1
 40
1
 10
32.743781
 20
124.863397
 30
0.0
 10
32.660102
 20
124.961306
 30
0.0
 10
32.576420
 20
125.059211
 30
0.0
 10
32.492738
 20
125.157117
 30
0.0
  0
LWPOLYLINE
  5
29f
100
AcDbEntity
  8
0
 62
7
100
AcDbPolyline
 90
3
 70
0
 10
27.292812
 20
125.157131
 30
0.0
 10
27.292812
 20
125.157117
 30
0.0
 10
27.292812
 20
125.157117
 30
0.0
  0
SPLINE
  5
2a0
100
AcDbEntity
  8
0
 62
7
100
AcDbSpline
 70
8
 71
3
 72
8
 73
4
 74
0
 40
0
 40
0
 40
0
 40
0
 40
1
 40
1
 40
1
 40
1
 10
42.476719
 20
125.157117
 30
0.0
 10
40.727147
 20
125.016957
 30
0.0
 10
42.646244
 20
123.675781
 30
0.0
 10
41.283086
 20
122.807160
 30
0.0
  0
SPLINE
  5
2a1
100
AcDbEntity
  8
0
 62
7
100
AcDbSpline
 70
8
 71
3
 72
8
 73
4
 74
0
 40
0
 40
0
 40
0
 40
0
 40
1
 40
1
 40
1
 40
1
 10
41.283086
 20
122.807160
 30
0.0
 10
41.087339
 20
121.469695
 30
0.0
 10
42.236240
 20
121.534355
 30
0.0
 10
42.842632
 20
122.389824
 30
0.0
  0
SPLINE
  5
2a2
100
AcDbEntity
  8
0
 62
7
100
AcDbSpline
 70
8
 71
3
 72
8
 73
4
 74
0
 40
0
 40
0
 40
0
 40
0
 40
1
 40
1
 40
1
 40
1
 10
42.842632
 20
122.389824
 30
0.0
 10
43.060897
 20
120.976672
 30
0.0
 10
44.526098
 20
122.271180
 30
0.0
 10
43.527105
 20
122.705766
 30
0.0
  0
SPLINE
  5
2a3
100
AcDbEntity
  8
0
 62
7
100
AcDbSpline
 70
8
 71
3
 72
8
 73
4
 74
0
 40
0
 40
0
 40
0
 40
0
 40
1
 40
1
 40
1
 40
1
 10
43.527105
 20
122.705766
 30
0.0
 10
43.280985
 20
124.090320
 30
0.0
 10
44.424298
 20
125.259874
 30
0.0
 10
42.476719
 20
125.157131
 30
0.0
  0
LWPOLYLINE
  5
2a4
100
AcDbEntity
  8
0
 62
7
100
AcDbPolyline
 90
2
 70
0
 10
32.492738
 20
125.157117
 30
0.0
 10
32.492738
 20
125.157117
 30
0.0
  0
SPLINE
  5
2a5
100
AcDbEntity
  8
0
 62
7
100
AcDbSpline
 70
8
 71
3
 72
8
 73
4
 74
0
 40
0
 40
0
 40
0
 40
0
 40
1
 40
1
 40
1
 40
1
 10
44.877931
 20
125.157117
 30
0.0
 10
43.621819
 20
124.486396
 30
0.0
 10
44.939071
 20
124.404309
 30
0.0
 10
44.651459
 20
123.236838
 30
0.0
  0
SPLINE
  5
2a6
100
AcDbEntity
  8
0
 62
7
100
AcDbSpline
 70
8
 71
3
 72
8
 73
4
 74
0
 40
0
 40
0
 40
0
 40
0
 40
1
 40
1
 40
1
 40
1
 10
44.651459
 20
123.236838
 30
0.0
 10
44.787524
 20
122.131111
 30
0.0
 10
43.386959
 20
120.114241
 30
0.0
 10
45.562413
 20
120.802248
 30
0.0
  0
SPLINE
  5
2a7
100
AcDbEntity
  8
0
 62
7
100
AcDbSpline
 70
8
 71
3
 72
8
 73
4
 74
0
 40
0
 40
0
 40
0
 40
0
 40
1
 40
1
 40
1
 40
1
 10
45.562413
 20
120.802248
 30
0.0
 10
46.105183
 20
121.454599
 30
0.0
 10
43.502727
 20
120.202204
 30
0.0
 10
44.561910
 20
121.628939
 30
0.0
  0
SPLINE
  5
2a8
100
AcDbEntity
  8
0
 62
7
100
AcDbSpline
 70
8
 71
3
 72
8
 73
4
 74
0
 40
0
 40
0
 40
0
 40
0
 40
1
 40
1
 40
1
 40
1
 10
44.561910
 20
121.628939
 30
0.0
 10
45.965079
 20
121.929565
 30
0.0
 10
47.915093
 20
124.481486
 30
0.0
 10
46.135973
 20
124.990075
 30
0.0
  0
SPLINE
  5
2a9
100
AcDbEntity
  8
0
 62
7
100
AcDbSpline
 70
8
 71
3
 72
8
 73
4
 74
0
 40
0
 40
0
 40
0
 40
0
 40
1
 40
1
 40
1
 40
1
 10
46.135973
 20
124.990075
 30
0.0
 10
45.241642
 20
124.425614
 30
0.0
 10
45.612981
 20
123.966901
 30
0.0
 10
44.877931
 20
125.157117
 30
0.0
  0
LWPOLYLINE
  5
2aa
100
AcDbEntity
  8
0
 62
7
100
AcDbPolyline
 90
3
 70
0
 10
42.476719
 20
125.157131
 30
0.0
 10
42.476719
 20
125.157117
 30
0.0
 10
42.476719
 20
125.157117
 30
0.0
  0
SPLINE
  5
2ab
100
AcDbEntity
  8
0
 62
7
100
AcDbSpline
 70
8
 71
3
 72
8
 73
4
 74
0
 40
0
 40
0
 40
0
 40
0
 40
1
 40
1
 40
1
 40
1
 10
17.269317
 20
124.930645
 30
0.0
 10
17.814535
 20
123.172248
 30
0.0
 10
15.739916
 20
124.517071
 30
0.0
 10
17.269317
 20
124.930645
 30
0.0
  0
LWPOLYLINE
  5
2ac
100
AcDbEntity
  8
0
 62
7
100
AcDbPolyline
 90
2
 70
0
 10
44.877931
 20
125.157117
 30
0.0
 10
44.877931
 20
125.157117
 30
0.0
  0
SPLINE
  5
2ad
100
AcDbEntity
  8
0
 62
7
100
AcDbSpline
 70
8
 71
3
 72
8
 73
4
 74
0
 40
0
 40
0
 40
0
 40
0
 40
1
 40
1
 40
1
 40
1
 10
12.156170
 20
124.772671
 30
0.0
 10
12.916343
 20
124.168030
 30
0.0
 10
13.172097
 20
123.620979
 30
0.0
 10
12.108736
 20
123.224521
 30
0.0
  0
SPLINE
  5
2ae
100
AcDbEntity
  8
0
 62
7
100
AcDbSpline
 70
8
 71
3
 72
8
 73
4
 74
0
 40
0
 40
0
 40
0
 40
0
 40
1
 40
1
 40
1
 40
1
 10
12.108736
 20
123.224521
 30
0.0
 10
12.144767
 20
123.722613
 30
0.0
 10
12.039595
 20
124.324533
 30
0.0
 10
12.156170
 20
124.772671
 30
0.0
  0
LWPOLYLINE
  5
2af
100
AcDbEntity
  8
0
 62
7
100
AcDbPolyline
 90
2
 70
0
 10
17.269317
 20
124.930645
 30
0.0
 10
17.269317
 20
124.930645
 30
0.0
  0
SPLINE
  5
2b0
100
AcDbEntity
  8
0
 62
7
100
AcDbSpline
 70
8
 71
3
 72
8
 73
4
 74
0
 40
0
 40
0
 40
0
 40
0
 40
1
 40
1
 40
1
 40
1
 10
31.984611
 20
124.772671
 30
0.0
 10
32.744788
 20
124.168030
 30
0.0
 10
33.000535
 20
123.620976
 30
0.0
 10
31.937173
 20
123.224521
 30
0.0
  0
SPLINE
  5
2b1
100
AcDbEntity
  8
0
 62
7
100
AcDbSpline
 70
8
 71
3
 72
8
 73
4
 74
0
 40
0
 40
0
 40
0
 40
0
 40
1
 40
1
 40
1
 40
1
 10
31.937173
 20
123.224521
 30
0.0
 10
31.973207
 20
123.722610
 30
0.0
 10
31.868025
 20
124.324542
 30
0.0
 10
31.984611
 20
124.772671
 30
0.0
  0
LWPOLYLINE
  5
2b2
100
AcDbEntity
  8
0
 62
7
100
AcDbPolyline
 90
2
 70
0
 10
12.156170
 20
124.772671
 30
0.0
 10
12.156170
 20
124.772671
 30
0.0
  0
SPLINE
  5
2b3
100
AcDbEntity
  8
0
 62
7
100
AcDbSpline
 70
8
 71
3
 72
8
 73
4
 74
0
 40
0
 40
0
 40
0
 40
0
 40
1
 40
1
 40
1
 40
1
 10
26.513471
 20
124.725323
 30
0.0
 10
27.360674
 20
124.961232
 30
0.0
 10
28.256292
 20
123.440780
 30
0.0
 10
27.298327
 20
123.688777
 30
0.0
  0
SPLINE
  5
2b4
100
AcDbEntity
  8
0
 62
7
100
AcDbSpline
 70
8
 71
3
 72
8
 73
4
 74
0
 40
0
 40
0
 40
0
 40
0
 40
1
 40
1
 40
1
 40
1
 10
27.298327
 20
123.688777
 30
0.0
 10
26.765368
 20
123.781256
 30
0.0
 10
26.757106
 20
124.341520
 30
0.0
 10
26.513471
 20
124.725323
 30
0.0
  0
LWPOLYLINE
  5
2b5
100
AcDbEntity
  8
0
 62
7
100
AcDbPolyline
 90
2
 70
0
 10
31.984611
 20
124.772671
 30
0.0
 10
31.984611
 20
124.772671
 30
0.0
  0
SPLINE
  5
2b6
100
AcDbEntity
  8
0
 62
7
100
AcDbSpline
 70
8
 71
3
 72
8
 73
4
 74
0
 40
0
 40
0
 40
0
 40
0
 40
1
 40
1
 40
1
 40
1
 10
41.697382
 20
124.725323
 30
0.0
 10
42.544661
 20
124.961760
 30
0.0
 10
43.436108
 20
123.438889
 30
0.0
 10
42.479852
 20
123.689271
 30
0.0
  0
SPLINE
  5
2b7
100
AcDbEntity
  8
0
 62
7
100
AcDbSpline
 70
8
 71
3
 72
8
 73
4
 74
0
 40
0
 40
0
 40
0
 40
0
 40
1
 40
1
 40
1
 40
1
 10
42.479852
 20
123.689271
 30
0.0
 10
41.948340
 20
123.782224
 30
0.0
 10
41.941013
 20
124.342838
 30
0.0
 10
41.697382
 20
124.725323
 30
0.0
  0
LWPOLYLINE
  5
2b8
100
AcDbEntity
  8
0
 62
7
100
AcDbPolyline
 90
2
 70
0
 10
26.513471
 20
124.725323
 30
0.0
 10
26.513471
 20
124.725323
 30
0.0
  0
SPLINE
  5
2b9
100
AcDbEntity
  8
0
 62
7
100
AcDbSpline
 70
8
 71
3
 72
8
 73
4
 74
0
 40
0
 40
0
 40
0
 40
0
 40
1
 40
1
 40
1
 40
1
 10
45.839005
 20
124.591022
 30
0.0
 10
46.864397
 20
122.805574
 30
0.0
 10
44.738324
 20
121.615939
 30
0.0
 10
45.336102
 20
124.028440
 30
0.0
  0
SPLINE
  5
2ba
100
AcDbEntity
  8
0
 62
7
100
AcDbSpline
 70
8
 71
3
 72
8
 73
4
 74
0
 40
0
 40
0
 40
0
 40
0
 40
1
 40
1
 40
1
 40
1
 10
45.336102
 20
124.028440
 30
0.0
 10
45.264276
 20
124.304436
 30
0.0
 10
45.706182
 20
124.403680
 30
0.0
 10
45.839005
 20
124.591022
 30
0.0
  0
LWPOLYLINE
  5
2bb
100
AcDbEntity
  8
0
 62
7
100
AcDbPolyline
 90
2
 70
0
 10
41.697382
 20
124.725323
 30
0.0
 10
41.697382
 20
124.725323
 30
0.0
  0
SPLINE
  5
2bc
100
AcDbEntity
  8
0
 62
7
100
AcDbSpline
 70
8
 71
3
 72
8
 73
4
 74
0
 40
0
 40
0
 40
0
 40
0
 40
1
 40
1
 40
1
 40
1
 10
20.194496
 20
124.493624
 30
0.0
 10
20.636656
 20
122.980546
 30
0.0
 10
19.169517
 20
123.885387
 30
0.0
 10
18.514659
 20
123.587146
 30
0.0
  0
SPLINE
  5
2bd
100
AcDbEntity
  8
0
 62
7
100
AcDbSpline
 70
8
 71
3
 72
8
 73
4
 74
0
 40
0
 40
0
 40
0
 40
0
 40
1
 40
1
 40
1
 40
1
 10
18.514659
 20
123.587146
 30
0.0
 10
18.252677
 20
125.346872
 30
0.0
 10
19.154556
 20
123.577381
 30
0.0
 10
20.194496
 20
124.493624
 30
0.0
  0
LWPOLYLINE
  5
2be
100
AcDbEntity
  8
0
 62
7
100
AcDbPolyline
 90
2
 70
0
 10
45.839005
 20
124.591022
 30
0.0
 10
45.839005
 20
124.591022
 30
0.0
  0
SPLINE
  5
2bf
100
AcDbEntity
  8
0
 62
7
100
AcDbSpline
 70
8
 71
3
 72
8
 73
4
 74
0
 40
0
 40
0
 40
0
 40
0
 40
1
 40
1
 40
1
 40
1
 10
39.641103
 20
124.438354
 30
0.0
 10
41.298193
 20
123.421535
 30
0.0
 10
37.930791
 20
123.713847
 30
0.0
 10
39.641103
 20
124.438354
 30
0.0
  0
LWPOLYLINE
  5
2c0
100
AcDbEntity
  8
0
 62
7
100
AcDbPolyline
 90
2
 70
0
 10
20.194496
 20
124.493624
 30
0.0
 10
20.194496
 20
124.493624
 30
0.0
  0
SPLINE
  5
2c1
100
AcDbEntity
  8
0
 62
7
100
AcDbSpline
 70
8
 71
3
 72
8
 73
4
 74
0
 40
0
 40
0
 40
0
 40
0
 40
1
 40
1
 40
1
 40
1
 10
26.847788
 20
123.759025
 30
0.0
 10
27.776761
 20
123.697893
 30
0.0
 10
28.018420
 20
122.513812
 30
0.0
 10
27.150508
 20
122.147528
 30
0.0
  0
SPLINE
  5
2c2
100
AcDbEntity
  8
0
 62
7
100
AcDbSpline
 70
8
 71
3
 72
8
 73
4
 74
0
 40
0
 40
0
 40
0
 40
0
 40
1
 40
1
 40
1
 40
1
 10
27.150508
 20
122.147528
 30
0.0
 10
26.600928
 20
122.488365
 30
0.0
 10
26.548916
 20
123.231727
 30
0.0
 10
26.847788
 20
123.759025
 30
0.0
  0
LWPOLYLINE
  5
2c3
100
AcDbEntity
  8
0
 62
7
100
AcDbPolyline
 90
3
 70
0
 10
39.641103
 20
124.438354
 30
0.0
 10
39.641103
 20
124.438354
 30
0.0
 10
39.641103
 20
124.438354
 30
0.0
  0
SPLINE
  5
2c4
100
AcDbEntity
  8
0
 62
7
100
AcDbSpline
 70
8
 71
3
 72
8
 73
4
 74
0
 40
0
 40
0
 40
0
 40
0
 40
1
 40
1
 40
1
 40
1
 10
42.031782
 20
123.759025
 30
0.0
 10
42.958791
 20
123.697001
 30
0.0
 10
43.198153
 20
122.515176
 30
0.0
 10
42.334584
 20
122.147686
 30
0.0
  0
SPLINE
  5
2c5
100
AcDbEntity
  8
0
 62
7
100
AcDbSpline
 70
8
 71
3
 72
8
 73
4
 74
0
 40
0
 40
0
 40
0
 40
0
 40
1
 40
1
 40
1
 40
1
 10
42.334584
 20
122.147686
 30
0.0
 10
41.785252
 20
122.488475
 30
0.0
 10
41.732750
 20
123.231834
 30
0.0
 10
42.031782
 20
123.759025
 30
0.0
  0
LWPOLYLINE
  5
2c6
100
AcDbEntity
  8
0
 62
7
100
AcDbPolyline
 90
2
 70
0
 10
26.847788
 20
123.759025
 30
0.0
 10
26.847788
 20
123.759025
 30
0.0
  0
SPLINE
  5
2c7
100
AcDbEntity
  8
0
 62
7
100
AcDbSpline
 70
8
 71
3
 72
8
 73
4
 74
0
 40
0
 40
0
 40
0
 40
0
 40
1
 40
1
 40
1
 40
1
 10
39.146113
 20
123.656319
 30
0.0
 10
40.452365
 20
123.959874
 30
0.0
 10
40.480042
 20
122.727870
 30
0.0
 10
39.146113
 20
123.058626
 30
0.0
  0
SPLINE
  5
2c8
100
AcDbEntity
  8
0
 62
7
100
AcDbSpline
 70
8
 71
3
 72
8
 73
4
 74
0
 40
0
 40
0
 40
0
 40
0
 40
1
 40
1
 40
1
 40
1
 10
39.146113
 20
123.058626
 30
0.0
 10
39.146113
 20
123.257858
 30
0.0
 10
39.146113
 20
123.457087
 30
0.0
 10
39.146113
 20
123.656319
 30
0.0
  0
LWPOLYLINE
  5
2c9
100
AcDbEntity
  8
0
 62
7
100
AcDbPolyline
 90
2
 70
0
 10
42.031782
 20
123.759025
 30
0.0
 10
42.031782
 20
123.759025
 30
0.0
  0
SPLINE
  5
2ca
100
AcDbEntity
  8
0
 62
7
100
AcDbSpline
 70
8
 71
3
 72
8
 73
4
 74
0
 40
0
 40
0
 40
0
 40
0
 40
1
 40
1
 40
1
 40
1
 10
19.359802
 20
123.556310
 30
0.0
 10
20.830826
 20
123.511996
 30
0.0
 10
20.309768
 20
121.173076
 30
0.0
 10
18.907205
 20
122.543674
 30
0.0
  0
SPLINE
  5
2cb
100
AcDbEntity
  8
0
 62
7
100
AcDbSpline
 70
8
 71
3
 72
8
 73
4
 74
0
 40
0
 40
0
 40
0
 40
0
 40
1
 40
1
 40
1
 40
1
 10
18.907205
 20
122.543674
 30
0.0
 10
18.052244
 20
122.470426
 30
0.0
 10
18.567851
 20
123.855122
 30
0.0
 10
19.359802
 20
123.556310
 30
0.0
  0
LWPOLYLINE
  5
2cc
100
AcDbEntity
  8
0
 62
7
100
AcDbPolyline
 90
2
 70
0
 10
39.146113
 20
123.656319
 30
0.0
 10
39.146113
 20
123.656319
 30
0.0
  0
SPLINE
  5
2cd
100
AcDbEntity
  8
0
 62
7
100
AcDbSpline
 70
8
 71
3
 72
8
 73
4
 74
0
 40
0
 40
0
 40
0
 40
0
 40
1
 40
1
 40
1
 40
1
 10
39.612118
 20
123.013891
 30
0.0
 10
41.455814
 20
122.313263
 30
0.0
 10
37.807663
 20
122.125492
 30
0.0
 10
39.612118
 20
123.013891
 30
0.0
  0
LWPOLYLINE
  5
2ce
100
AcDbEntity
  8
0
 62
7
100
AcDbPolyline
 90
2
 70
0
 10
19.359802
 20
123.556310
 30
0.0
 10
19.359802
 20
123.556310
 30
0.0
  0
LWPOLYLINE
  5
2cf
100
AcDbEntity
  8
0
 62
7
100
AcDbPolyline
 90
3
 70
0
 10
39.612118
 20
123.013891
 30
0.0
 10
39.612118
 20
123.013891
 30
0.0
 10
39.612118
 20
123.013891
 30
0.0
  0
ENDSEC
  0
SECTION
  2
OBJECTS
  0
DICTIONARY
  5
C
330
0
100
AcDbDictionary
  3
ACAD_GROUP
350
D
  3
ACAD_MLINESTYLE
350
17
  0
DICTIONARY
  5
D
330
C
100
AcDbDictionary
  0
DICTIONARY
  5
1A
330
C
100
AcDbDictionary
  0
DICTIONARY
  5
17
330
C
100
AcDbDictionary
  3
STANDARD
350
18
  0
DICTIONARY
  5
19
330
C
100
AcDbDictionary
  0
ENDSEC
  0
EOF
